<svg width="390" height="438" viewBox="0 0 390 438" fill="none" xmlns="http://www.w3.org/2000/svg">
<g clip-path="url(#clip0_391_4603)">
<path d="M-54.08 211.25C-54.08 211.25 -14.16 113.66 102.5 89.9101C104.46 89.5101 106.01 88.0201 106.44 86.0601L120.64 22.1601C121.46 18.4501 125.01 16.0101 128.77 16.5701L184.93 24.9601C195.2 26.4901 204 28 201.03 46.2601L195.41 89.9401C195.13 92.0901 196.21 94.1801 198.12 95.2101C203.62 98.1601 209.83 99.5201 216.05 99.1301C218.41 98.9801 220.37 97.2301 220.78 94.9001L229.25 46.6601C230.5 30.5 239.8 30.9401 249.22 32.4701L313.55 42.9601C318.56 43.7801 322.19 48.1801 322.05 53.2501L316 103C315.467 105 317.5 112.5 323.37 114.17C338.45 121.65 405.39 158.17 429.88 227.63V652.5H-54.08V211.25Z" fill="#F5F7FB"/>
<path d="M101.559 84.9754L101.498 85.2503L101.468 85.5303L96.0035 136.816C95.1767 144.576 100.438 151.674 108.104 153.139L168.155 164.614C176.044 166.121 183.721 161.147 185.568 153.33L200.276 91.09L200.336 90.8365L200.369 90.5782L205.979 46.979C207.538 37.3068 206.297 30.2061 201.322 25.6494C198.987 23.5101 196.212 22.3214 193.583 21.5622C190.988 20.8126 188.183 20.3895 185.669 20.015C185.668 20.0149 185.667 20.0148 185.667 20.0147L129.509 11.625L129.507 11.6247C123.154 10.6785 117.148 14.8013 115.759 21.0775C115.758 21.0787 115.758 21.0798 115.758 21.081L101.559 84.9754Z" stroke="#F18721" stroke-width="10" stroke-miterlimit="10"/>
<path d="M215.847 102.436L215.781 102.721L215.749 103.013L210.06 154.187C209.19 162.013 214.52 169.179 222.266 170.598L285.729 182.222C293.531 183.651 301.097 178.759 302.995 171.058L318.382 108.642L318.447 108.379L318.483 108.11L324.334 64.517C325.97 54.7897 324.653 47.6381 319.471 43.0881C317.064 40.9747 314.213 39.8048 311.509 39.0562C308.83 38.3147 305.93 37.8948 303.304 37.5198C303.303 37.5197 303.303 37.5196 303.302 37.5195L244.72 29.1304L244.718 29.13C238.393 28.227 232.136 32.1431 230.659 38.5439C230.659 38.5446 230.659 38.5453 230.659 38.5461L215.847 102.436Z" stroke="#F18721" stroke-width="10" stroke-miterlimit="10"/>
<path d="M76.1799 77.0399C76.1799 77.0399 116.09 8.1499 186.11 53.6999" stroke="#F18721" stroke-width="10" stroke-miterlimit="10" stroke-linecap="round"/>
<path d="M230.15 74.4105C230.15 74.4105 259.51 46.5505 332.17 60.4805" stroke="#F18721" stroke-width="10" stroke-miterlimit="10" stroke-linecap="round"/>
<path d="M149.78 94.17C149.97 93.61 156.93 66.88 169.54 68.57C182.15 70.26 183.85 87.96 183.85 87.96C183.85 87.96 181.59 119.96 174.81 124.1C168.03 128.24 161.63 128.81 161.63 128.81C161.63 128.81 146.01 128.43 146.38 113.75C146.76 99.07 149.78 94.17 149.78 94.17Z" fill="#F18721"/>
<path d="M236.74 106.22C236.93 105.66 243.89 78.9298 256.5 80.6198C269.11 82.3098 270.81 100.01 270.81 100.01C270.81 100.01 268.55 132.01 261.77 136.15C254.99 140.29 248.59 140.86 248.59 140.86C248.59 140.86 232.97 140.48 233.34 125.8C233.71 111.12 236.74 106.22 236.74 106.22Z" fill="#F18721"/>
<path d="M-36.0317 429.597C-36.0317 429.597 -68.8371 335.199 -8.96259 271.167C-8.96259 271.167 18.3099 229.71 21.1707 214.316C23.2134 203.38 31.3523 187.382 35.8946 179.034C37.8975 175.353 40.723 172.159 44.4676 170.278C49.4691 167.765 56.9004 165.16 62.3698 168.149C71.388 173.076 78.3586 206.931 78.3586 206.931C78.3586 206.931 85.5325 229.913 74.2634 243.868C62.9942 257.823 62.5731 261.108 62.5731 261.108C62.5731 261.108 61.2515 282.234 67.4653 293.379C67.9784 294.3 68.8405 294.97 69.8496 295.273C79.3423 298.129 87 294.759 87 294.759C87 294.759 106.501 290.645 124 294.759C141.499 298.858 224.189 307.842 224.189 307.842C224.189 307.842 218.729 311.679 232.67 307.842C246.611 304.004 313.863 298.539 323.694 309.484C333.54 320.43 323.419 333.019 323.419 333.019C323.419 333.019 266.565 355.186 232.67 359.285C198.776 363.385 100.911 346.145 100.911 346.145C100.911 346.145 206.705 358.457 215.999 381.991C225.293 405.525 209.159 410.991 209.159 410.991M209.159 410.991C209.159 410.991 235.676 431.516 208.07 443M209.159 410.991L128.5 405L77.5 391.5" stroke="#F18721" stroke-width="10" stroke-miterlimit="10"/>
<path d="M135.66 236.67C135.66 236.67 150.34 218.22 200.41 234.03C250.48 249.84 297.54 270.17 297.54 270.17" stroke="#F18721" stroke-width="10" stroke-miterlimit="10" stroke-linecap="round"/>
</g>
<defs>
<clipPath id="clip0_391_4603">
<rect width="501" height="438" fill="white" transform="translate(-56)"/>
</clipPath>
</defs>
</svg>
