<svg width="142" height="12" viewBox="0 0 142 12" fill="none" xmlns="http://www.w3.org/2000/svg">
<path d="M1.185 1.25H11.685V6.5H10.81V7.375H9.06V6.5H9.935V2.125H1.185V1.25ZM0.309998 7.375H12.56V8.25H7.31V11.75H5.56V8.25H0.309998V7.375ZM14.765 0.375H25.265V4.75H24.39V5.625H22.64V4.75H23.515V1.25H14.765V0.375ZM13.89 5.625H26.14V6.5H13.89V5.625ZM14.765 7.375H25.265V10H16.515V10.875H25.265V11.75H15.64V10.875H14.765V9.125H23.515V8.25H14.765V7.375ZM31.425 1.25H36.675V9.125H35.8V10H34.925V10.875H32.3V10H34.05V9.125H34.925V2.125H31.425V1.25ZM37.55 3.875H39.3V0.375H41.05V11.75H39.3V8.25H37.55V7.375H39.3V4.75H37.55V3.875ZM41.925 0.375H43.675V11.75H41.925V0.375ZM45.005 0.375H52.005V1.25H49.38V3.875H50.255V4.75H51.13V5.625H52.005V6.5H50.255V5.625H49.38V4.75H47.63V5.625H46.755V6.5H45.005V5.625H45.88V4.75H46.755V3.875H47.63V1.25H45.005V0.375ZM52.005 3H54.63V0.375H56.38V6.5H54.63V3.875H52.005V3ZM45.88 8.25H47.63V7.375H54.63V8.25H56.38V10.875H54.63V11.75H47.63V10.875H45.88V8.25ZM47.63 9.125V10H48.505V10.875H53.755V10H54.63V9.125H53.755V8.25H48.505V9.125H47.63ZM59.46 3H60.335V2.125H61.21V1.25H68.21V2.125H69.085V3H69.96V5.625H69.085V6.5H68.21V7.375H61.21V6.5H60.335V5.625H59.46V3ZM61.21 3V5.625H62.085V6.5H67.335V5.625H68.21V3H67.335V2.125H62.085V3H61.21ZM58.585 10H70.835V10.875H58.585V10ZM73.04 1.25H83.54V4.75H74.79V6.5H83.54V7.375H73.915V6.5H73.04V3.875H81.79V2.125H73.04V1.25ZM72.165 10H77.415V7.375H79.165V10H84.415V10.875H72.165V10ZM89.7 10H90.575V9.125H91.45V8.25H92.325V1.25H94.075V8.25H94.95V9.125H95.825V10H96.7V10.875H94.95V10H94.075V9.125H92.325V10H91.45V10.875H89.7V10ZM99.325 0.375H101.075V11.75H99.325V0.375ZM103.28 0.375H110.28V1.25H107.655V3.875H108.53V4.75H109.405V5.625H110.28V6.5H108.53V5.625H107.655V4.75H105.905V5.625H105.03V6.5H103.28V5.625H104.155V4.75H105.03V3.875H105.905V1.25H103.28V0.375ZM112.03 0.375H113.78V3H116.405V3.875H113.78V6.5H112.03V0.375ZM104.155 7.375H113.78V10.875H112.905V11.75H112.03V8.25H104.155V7.375ZM116.86 1.25H119.485V0.375H121.235V1.25H123.86V2.125H116.86V1.25ZM116.86 4.75H117.735V3.875H118.61V3H122.11V3.875H122.985V4.75H123.86V9.125H122.985V10H122.11V10.875H118.61V10H117.735V9.125H116.86V4.75ZM118.61 4.75V9.125H119.485V10H121.235V9.125H122.11V4.75H121.235V3.875H119.485V4.75H118.61ZM125.61 0.375H127.36V5.625H129.985V6.5H127.36V11.75H125.61V0.375ZM130.44 1.25H135.69V9.125H134.815V10H133.94V10.875H131.315V10H133.065V9.125H133.94V2.125H130.44V1.25ZM140.065 0.375H141.815V11.75H140.065V0.375Z" fill="#434343"/>
</svg>
