<svg xmlns="http://www.w3.org/2000/svg" width="340" height="54" fill="none">
  <g filter="url(#a)">
    <rect width="340" height="53" fill="#FDDC3F" rx="26.5"/>
  </g>
  <path fill="#3C1E1E" d="M115.929 21.75c-.005 1.495-.195 2.857-.57 4.086-.37 1.224-1.024 2.367-1.961 3.43-.938 1.062-2.224 1.994-3.86 2.797l-.812-1.11c1.234-.604 2.247-1.281 3.039-2.031a8.239 8.239 0 0 0 1.828-2.492l-4.57.43-.219-1.282 5.25-.351c.198-.672.326-1.43.383-2.274h-4.899V21.75h6.391Zm2.141-1.422h1.484v5.594h2.172v1.219h-2.172v7.172h-1.484V20.328Zm11.207 1.422c-.005 1.495-.195 2.857-.57 4.086-.37 1.224-1.024 2.367-1.961 3.43-.938 1.062-2.224 1.994-3.859 2.797l-.813-1.11c1.234-.604 2.247-1.281 3.039-2.031a8.239 8.239 0 0 0 1.828-2.492l-4.57.43-.219-1.282 5.25-.351c.198-.672.326-1.43.383-2.274h-4.898V21.75h6.39Zm2.141-1.422h1.484v5.594h2.172v1.219h-2.172v7.172h-1.484V20.328Zm10.301.844c.99 0 1.878.156 2.664.469.787.312 1.401.75 1.844 1.312.443.557.664 1.203.664 1.938 0 .687-.188 1.3-.563 1.836-.375.53-.898.958-1.57 1.28-.667.319-1.435.514-2.305.587v2.75h5.704v1.234h-12.813v-1.234h5.641v-2.75c-.865-.073-1.633-.268-2.305-.586-.667-.323-1.187-.753-1.562-1.29a3.143 3.143 0 0 1-.555-1.827c0-.73.221-1.375.664-1.938.443-.562 1.055-1 1.836-1.312.781-.313 1.666-.47 2.656-.47ZM138 24.89c0 .515.159.966.477 1.351.318.386.758.682 1.32.89.563.21 1.203.316 1.922.321.724-.005 1.367-.112 1.93-.32.562-.209 1.002-.505 1.32-.89a2.04 2.04 0 0 0 .484-1.352c0-.5-.161-.94-.484-1.32-.318-.38-.76-.673-1.328-.876-.563-.208-1.203-.31-1.922-.304-.713-.006-1.354.096-1.922.304-.562.203-1.002.498-1.32.883-.318.38-.477.818-.477 1.313Zm22.723 9.437h-1.406v-14h1.406v14Zm-12.109-4.047c1.458-.864 2.565-1.877 3.32-3.039.761-1.166 1.206-2.487 1.336-3.96h-3.968v-1.22h5.437c0 .714-.055 1.412-.164 2.094h1.883v-3.468h1.406V33.64h-1.406v-4.766h-2.391v-1.219h2.391v-2.281h-2.156c-.724 2.5-2.329 4.49-4.813 5.969l-.875-1.063Zm25.098-1.625h-1.484V25.11h-2.61v-1.218h2.61v-3.563h1.484v8.328Zm-11.672-1.265a5.593 5.593 0 0 0 1.86-1.078 4.965 4.965 0 0 0 1.218-1.618c.287-.61.428-1.237.422-1.883V22.5h-3.031v-1.203h7.547V22.5h-3v.297a3.84 3.84 0 0 0 .398 1.726 4.628 4.628 0 0 0 1.172 1.493 5.478 5.478 0 0 0 1.805 1l-.766 1.172A5.673 5.673 0 0 1 167.65 27a5.643 5.643 0 0 1-1.321-1.86 5.923 5.923 0 0 1-3.507 3.438l-.782-1.187Zm2.25 4.297c0-.553.188-1.024.563-1.415.38-.395.924-.697 1.633-.906.713-.213 1.56-.32 2.539-.32.974 0 1.815.107 2.523.32.708.209 1.253.51 1.633.906.385.391.578.862.578 1.415 0 .552-.193 1.023-.578 1.414-.38.395-.925.698-1.633.906-.708.213-1.549.32-2.523.32-.979 0-1.826-.107-2.539-.32-.709-.209-1.253-.51-1.633-.906a1.969 1.969 0 0 1-.563-1.414Zm1.469 0c-.005.473.279.84.852 1.101.578.255 1.382.378 2.414.367 1.021.01 1.817-.112 2.39-.367.578-.26.87-.628.875-1.102-.005-.468-.291-.833-.859-1.093-.563-.26-1.349-.39-2.359-.39-1.053 0-1.87.127-2.454.382-.578.255-.864.622-.859 1.102Zm16.004-10.516c.974 0 1.855.164 2.641.492.787.323 1.404.781 1.852 1.375a3.25 3.25 0 0 1 .679 2.04c0 .77-.226 1.452-.679 2.046-.448.594-1.065 1.052-1.852 1.375-.786.323-1.667.484-2.641.484s-1.854-.161-2.64-.484c-.781-.323-1.396-.781-1.844-1.375a3.307 3.307 0 0 1-.672-2.047c0-.765.224-1.445.672-2.039.448-.594 1.063-1.052 1.844-1.375.786-.328 1.666-.492 2.64-.492Zm-6.375 10.11h12.813v1.234h-12.813V31.28Zm2.641-6.204c0 .537.159 1.008.477 1.414.323.406.768.721 1.336.945.567.22 1.208.329 1.921.329.714 0 1.352-.11 1.914-.328.568-.224 1.014-.54 1.336-.946.323-.406.485-.877.485-1.414 0-.531-.162-1.002-.485-1.414-.322-.411-.768-.73-1.336-.953-.567-.224-1.205-.336-1.914-.336-.713 0-1.354.112-1.921.336-.568.224-1.013.542-1.336.953a2.25 2.25 0 0 0-.477 1.414Zm23.52 7.578h-12.812v-1.25h5.64v-2.453h-4.078V24.5h8.219v-1.969h-8.25v-1.218h9.719v4.375h-8.219v2.046h8.547v1.22h-4.469v2.452h5.703v1.25Zm9.103-8.765a6.783 6.783 0 0 0 .461 2.492 7.157 7.157 0 0 0 1.32 2.18 5.697 5.697 0 0 0 1.922 1.421l-.891 1.172c-.797-.38-1.503-.942-2.117-1.687a8.181 8.181 0 0 1-1.422-2.563 8.53 8.53 0 0 1-1.437 2.758c-.625.797-1.352 1.398-2.18 1.805l-.906-1.25c.724-.318 1.369-.805 1.937-1.461a7.461 7.461 0 0 0 1.328-2.266 7.303 7.303 0 0 0 .485-2.601V21.5h1.5v2.39Zm4.968-3.563h1.485V34.36h-1.485V20.33Zm8.13 2.516a3.854 3.854 0 0 0 .39 1.726 4.574 4.574 0 0 0 1.172 1.477 5.467 5.467 0 0 0 1.813 1l-.75 1.156a5.88 5.88 0 0 1-2.039-1.187 5.383 5.383 0 0 1-1.321-1.828 5.683 5.683 0 0 1-1.359 2 5.807 5.807 0 0 1-2.109 1.28l-.797-1.155a5.615 5.615 0 0 0 1.867-1.055 4.814 4.814 0 0 0 1.219-1.57 4.377 4.377 0 0 0 .429-1.86v-.375h-3.078V21.25h7.578v1.203h-3.015v.39Zm-3.141 6.61h9.25v4.874h-1.484v-3.672h-7.766v-1.203Zm7.766-9.126h1.484v3.594h2.031v1.25h-2.031v3.594h-1.484v-8.438ZM243.113 26h2.25v1.234h-2.25v7.094h-1.468v-14h1.468V26Zm-10.984-3.484h3.453v-2h1.485v2h3.359v1.218h-8.297v-1.218Zm.719 5.5a3.2 3.2 0 0 1 .445-1.68c.302-.495.716-.88 1.242-1.156.532-.276 1.131-.414 1.797-.414.662 0 1.255.138 1.781.414a3.11 3.11 0 0 1 1.25 1.156c.303.495.454 1.055.454 1.68 0 .63-.151 1.192-.454 1.687a3.166 3.166 0 0 1-1.25 1.164c-.526.276-1.119.414-1.781.414-.666 0-1.265-.138-1.797-.414a3.184 3.184 0 0 1-1.242-1.164c-.297-.495-.445-1.057-.445-1.687Zm1.422 0c0 .4.086.755.257 1.062.178.307.422.544.735.711.318.167.674.247 1.07.242.391.006.742-.075 1.055-.242.312-.167.557-.404.734-.71.183-.308.274-.662.274-1.063 0-.391-.091-.74-.274-1.047a1.876 1.876 0 0 0-.734-.719 2.103 2.103 0 0 0-1.055-.266 2.16 2.16 0 0 0-1.07.266 1.878 1.878 0 0 0-.735.719 2.116 2.116 0 0 0-.257 1.047Zm22.926 6.312h-1.5v-14h1.5v14Zm-11.5-3.75c1.833-.875 3.227-1.94 4.18-3.195.953-1.255 1.502-2.711 1.648-4.367h-5.156v-1.188h6.656c0 2.167-.518 4.091-1.555 5.774-1.031 1.682-2.695 3.075-4.992 4.18l-.781-1.204ZM85 18c-6.075 0-11 3.828-11 8.554 0 3.035 2.04 5.7 5.104 7.221l-1.037 3.809a.312.312 0 0 0 .08.325c.059.059.138.091.224.091a.318.318 0 0 0 .191-.071l4.457-2.965a14.21 14.21 0 0 0 1.98.143C91.075 35.107 96 31.28 96 26.554 96 21.828 91.074 18 85 18Z"/>
  <defs>
    <filter id="a" width="340" height="53.33" x="0" y="0" color-interpolation-filters="sRGB" filterUnits="userSpaceOnUse">
      <feFlood flood-opacity="0" result="BackgroundImageFix"/>
      <feColorMatrix in="SourceAlpha" result="hardAlpha" values="0 0 0 0 0 0 0 0 0 0 0 0 0 0 0 0 0 0 127 0"/>
      <feOffset dy=".33"/>
      <feComposite in2="hardAlpha" operator="out"/>
      <feColorMatrix values="0 0 0 0 0.133333 0 0 0 0 0.133333 0 0 0 0 0.133333 0 0 0 0.3 0"/>
      <feBlend in2="BackgroundImageFix" result="effect1_dropShadow_3262_16521"/>
      <feBlend in="SourceGraphic" in2="effect1_dropShadow_3262_16521" result="shape"/>
    </filter>
  </defs>
</svg>