<svg width="9" height="15" viewBox="0 0 9 15" fill="none" xmlns="http://www.w3.org/2000/svg">
<path d="M1.59731 13.6438L1.59784 13.6433L7.8093 7.51861C7.80938 7.51853 7.80946 7.51845 7.80954 7.51837C7.83773 7.49043 7.84472 7.47344 7.84649 7.4685L7.84648 7.4685L7.84736 7.4661C7.85694 7.43977 7.86365 7.40691 7.86365 7.36368C7.86365 7.32046 7.85694 7.28759 7.84736 7.26126L7.84735 7.26127L7.84649 7.25886C7.84472 7.25391 7.83769 7.23684 7.8093 7.20876L1.59731 1.06532C1.52555 0.994339 1.43985 0.95459 1.30374 0.95459C1.178 0.95459 1.08294 0.993341 0.991732 1.08355C0.89535 1.17886 0.863648 1.26615 0.863648 1.36608C0.863648 1.46601 0.89535 1.55329 0.991732 1.64861L6.41109 7.00817L6.77056 7.36368L6.41109 7.71919L0.991732 13.0787C0.917665 13.152 0.882081 13.2322 0.882081 13.3518C0.882081 13.4618 0.916604 13.5513 1.01017 13.6438C1.10659 13.7392 1.19741 13.7728 1.30374 13.7728C1.41007 13.7728 1.50089 13.7392 1.59731 13.6438Z" fill="white" stroke="white"/>
</svg>
