<svg width="32" height="32" viewBox="0 0 32 32" fill="none" xmlns="http://www.w3.org/2000/svg">
<path d="M27 23C27 23.5304 26.7893 24.0391 26.4142 24.4142C26.0391 24.7893 25.5304 25 25 25H7C6.46957 25 5.96086 24.7893 5.58579 24.4142C5.21071 24.0391 5 23.5304 5 23V12C5 11.4696 5.21071 10.9609 5.58579 10.5858C5.96086 10.2107 6.46957 10 7 10H11L13 7H19L21 10H25C25.5304 10 26.0391 10.2107 26.4142 10.5858C26.7893 10.9609 27 11.4696 27 12V23Z" stroke="#6A6C73" stroke-width="2" stroke-linecap="round" stroke-linejoin="round"/>
<path d="M16 21C18.2091 21 20 19.2091 20 17C20 14.7909 18.2091 13 16 13C13.7909 13 12 14.7909 12 17C12 19.2091 13.7909 21 16 21Z" stroke="#6A6C73" stroke-width="2" stroke-linecap="round" stroke-linejoin="round"/>
</svg>
