<svg xmlns="http://www.w3.org/2000/svg" width="209" height="69" fill="none">
  <path fill="#222" d="M20.104.684h2.268v11.564h-2.268V.684Zm.028 17.248v-2.24H4.284V13.76h17.36c.476 0 .728.224.728.672v4.144c0 1.008-.7 1.54-1.764 1.54H6.524v1.68a.56.56 0 0 0 .224.476l.476.42c.14.112.28.168.476.168h15.288v1.932H7.196c-.504 0-.952-.084-1.26-.364l-1.176-1.12c-.336-.308-.476-.7-.476-1.176V18.94c0-.476.252-.7.756-.7h14.784c.224 0 .308-.084.308-.308ZM14.42 6.088v.7c0 3.08-2.408 5.6-6.16 5.6-3.752 0-6.244-2.52-6.244-5.6v-.7c0-3.08 2.492-5.572 6.244-5.572s6.16 2.492 6.16 5.572Zm-2.184.7v-.7c0-1.988-1.736-3.612-3.976-3.612-2.324 0-3.948 1.624-3.948 3.612v.7c0 2.016 1.624 3.612 3.948 3.612 2.24 0 3.976-1.596 3.976-3.612ZM45.644 8.44v6.132H43.32V.684h2.324v5.768h4.032V8.44h-4.032Zm-12.6 6.86h7.812c3.22 0 5.656 1.708 5.656 4.732 0 3.052-2.408 4.732-5.656 4.732h-7.812c-3.248 0-5.6-1.68-5.6-4.732 0-3.024 2.38-4.732 5.6-4.732Zm7.812 1.988h-7.812c-1.848 0-3.332 1.008-3.332 2.744 0 1.736 1.484 2.772 3.332 2.772h7.812c1.876 0 3.388-1.036 3.388-2.772 0-1.736-1.512-2.744-3.388-2.744ZM34.584 6.424c1.68 1.96 3.668 3.864 5.74 5.74l-1.512 1.456c-1.96-1.848-3.892-3.696-5.488-5.572-.14-.14-.336-.28-.364-.448-.056.168-.196.28-.364.448-1.736 1.932-3.556 3.864-5.516 5.74l-1.54-1.316c2.016-1.904 3.976-3.92 5.74-6.048.28-.28.504-.504.504-.896V.992h2.324v4.536c0 .392.196.616.476.896ZM69.393.684h2.268V24.68h-2.268V.684ZM67.32 21.152H50.689v-2.016H67.32v2.016ZM58.473 1.356c3.948 0 6.468 2.604 6.468 5.824v1.428c0 3.22-2.52 5.824-6.468 5.824-3.976 0-6.468-2.604-6.468-5.824V7.18c0-3.22 2.52-5.824 6.468-5.824Zm4.2 7.252V7.18c0-2.212-1.764-3.836-4.2-3.836-2.464 0-4.172 1.624-4.172 3.836v1.428c0 2.24 1.652 3.864 4.172 3.864 2.492 0 4.2-1.652 4.2-3.864Zm38.521-5.964v9.632c0 2.38-.056 2.968-1.12 5.432-.672-.14-1.372-.28-2.016-.448.728-2.128.84-2.884.84-4.928v-8.54h-16.1V1.804h17.612c.476 0 .784.336.784.84Zm-11.452 8.204h2.324V21.32h10.92v2.016h-21.84V21.32h8.596V10.848ZM124.131.684h2.268v17.808h-2.268V.684Zm2.8 24.108h-15.036c-.812 0-1.372-.168-1.82-.644l-1.092-1.036c-.504-.532-.728-.98-.728-1.792v-4.844h2.268v4.62c0 .42.14.588.392.84l.504.56c.196.196.42.308.812.308h14.7v1.988Zm-9.492-10.528h-7.504c-.784 0-1.232-.168-1.736-.616l-1.288-1.176c-.476-.476-.756-.896-.756-1.764v-8.54c0-.532.28-.812.812-.812h10.584c.532 0 .784.28.784.812V13.34c0 .588-.28.924-.896.924Zm-7.14-2.044h5.796V3.344h-7.644v7.028c0 .392.14.644.392.84l.532.588c.224.252.532.42.924.42ZM134.103.908v3.92h14.168V.908h2.296v10.416c0 .588-.308.924-.924.924h-14.28c-.812 0-1.344-.112-1.82-.532l-1.064-.98c-.532-.448-.672-.952-.672-1.736V.908h2.296Zm1.484 9.408h12.684V6.704h-14.168v2.24c0 .364.056.504.252.7l.56.476c.14.14.28.196.672.196Zm6.888 14.784h-2.268v-8.092h-9.688V15.02h21.672v1.988h-9.716V25.1Zm13.276-7.588V2.588c0-.588.308-.924.952-.924h11.368V3.68h-10.024v7.336h8.568v1.932h-8.568v4.48c0 .868.28 1.232.588 1.568l.7.784c.336.336.728.588 1.344.588h8.176v2.044h-8.596c-1.344 0-1.876-.252-2.66-1.148l-.784-.924c-.728-.812-1.064-1.26-1.064-2.828ZM173.419.684h2.268V24.68h-2.268V12.192h-4.648v-1.988h4.648V.684ZM15.092 42.852h2.268v9.016H21v-9.184h2.24v23.968H21V53.828h-3.64v12.6h-2.268V42.852ZM8.148 54.948a79.624 79.624 0 0 0 4.928 7.98l-1.82 1.4c-1.624-2.436-2.996-4.676-4.312-7.196a2.593 2.593 0 0 1-.224-.588c-.028.252-.14.476-.224.588-1.26 2.576-2.716 4.9-4.368 7.336l-1.82-1.26c1.848-2.716 3.472-5.572 4.9-8.26.224-.42.336-.756.336-1.176v-7.98H.952v-1.988h11.34v1.988h-4.48v7.98c0 .42.112.728.336 1.176Zm36.6-12.264h2.268V66.68h-2.268V42.684Zm-6.468 21.56h-6.944c-1.092 0-1.456-.112-2.156-.868l-1.372-1.624c-.616-.7-.812-1.148-.812-2.324V44.672c0-.504.28-.812.84-.812h10.528c.588 0 .868.308.868.812v18.676c0 .588-.308.84-.952.896Zm-8.988-18.396v13.72c0 .336.168.728.42.98l1.036 1.204c.224.28.56.476.924.476h5.264v-16.38h-7.644Zm28.173-3.108c3.864 0 6.244 2.716 6.244 5.88v1.204c0 3.164-2.408 5.908-6.244 5.908-3.864 0-6.272-2.744-6.272-5.908V48.62c0-3.164 2.408-5.88 6.272-5.88Zm2.744 18.48c.84 1.036 1.82 2.044 2.828 2.996 1.064-1.008 2.1-2.044 2.968-3.108.252-.336.56-.644.56-1.092v-2.772h2.268v2.772c0 .448.252.812.56 1.092 1.232 1.372 2.772 2.772 4.312 4.088l-1.372 1.456c-1.456-1.232-2.968-2.548-4.144-3.892-.224-.252-.42-.392-.448-.672-.056.28-.252.476-.42.672-1.204 1.428-2.688 2.772-4.144 4.144-1.428-1.316-3.024-2.632-4.2-4.032-.168-.224-.42-.364-.448-.644-.056.28-.252.476-.42.644-1.176 1.344-2.604 2.66-4.06 3.948l-1.512-1.428c1.512-1.288 2.996-2.632 4.284-4.172.224-.308.532-.644.532-1.064v-2.94h2.268v2.94c0 .42.28.784.588 1.064Zm1.232-11.396V48.62c0-2.184-1.596-3.892-3.976-3.892-2.436 0-3.976 1.708-3.976 3.892v1.204c0 2.156 1.484 3.92 3.976 3.92 2.436 0 3.976-1.792 3.976-3.92Zm7.952 6.244V42.684h2.268v13.384h-2.268Zm26.8 10.444H80.71c-.588 0-1.148-.14-1.512-.504l-1.372-1.344c-.364-.392-.56-.84-.56-1.456v-4.48h2.296V62.9c0 .252.112.448.252.616l.784.784c.14.14.336.196.588.196h15.008v2.016Zm-15.568-14c-.588 0-1.12-.112-1.512-.504l-1.344-1.344c-.392-.364-.588-.84-.588-1.428V43.02h2.324v5.908c0 .252.084.42.224.588l.784.812a.986.986 0 0 0 .588.196h14.924v1.988h-15.4Zm16.884 4.06H75.67v-1.904h21.84v1.904Zm13.21-4.312c-.588 0-1.12-.14-1.512-.504l-1.344-1.344a1.9 1.9 0 0 1-.588-1.428v-6.188h2.324v5.88c0 .252.084.42.224.588l.784.784a.85.85 0 0 0 .588.224h14.924v1.988h-8.4v2.828h9.856v1.932h-21.756v-1.932h9.632V52.26h-4.732Zm15.596 14.532h-15.4c-.84 0-1.344-.112-1.82-.588l-1.176-1.092c-.476-.504-.7-.98-.7-1.792v-4.564h2.324v4.256c0 .476.112.672.392.952l.504.504c.252.252.476.336.924.336h14.952v1.988ZM137.883 58h8.848c3.304 0 5.6 1.568 5.6 4.48 0 2.912-2.268 4.48-5.6 4.48h-8.848c-3.332 0-5.572-1.568-5.572-4.48 0-2.912 2.268-4.48 5.572-4.48Zm8.848 1.988h-8.848c-1.932 0-3.304.896-3.304 2.492s1.372 2.492 3.304 2.492h8.848c1.96 0 3.304-.896 3.304-2.492s-1.344-2.492-3.304-2.492Zm-2.996-17.136h2.268v5.236h3.668v-5.404h2.24v14.14h-2.24v-6.748h-3.668v6.188h-2.268V42.852Zm-6.888 6.244c1.456 1.96 2.884 3.528 4.676 5.432l-1.652 1.344c-1.568-1.708-2.828-3.024-4.144-4.816a1.815 1.815 0 0 1-.308-.616c-.028.224-.196.448-.308.616-1.288 1.792-2.604 3.192-4.228 4.956l-1.596-1.372c1.708-1.96 3.164-3.528 4.62-5.544.28-.364.336-.616.336-1.036v-2.772h-4.592V43.3h11.34v1.988h-4.48v2.772c0 .42.056.672.336 1.036Zm19.324 14.644-1.904-1.12c2.772-4.48 3.864-6.888 4.396-8.344.42-1.092.42-1.82.42-2.968v-5.46h-4.088V43.86h5.012c.98 0 1.4.448 1.4 1.316v5.992c0 1.484-.028 2.408-.56 3.78-.616 1.568-1.848 4.172-4.676 8.792Zm7.42.672-1.988-1.176c2.352-4.2 3.332-6.692 3.92-8.204.476-1.344.532-2.268.532-3.64v-5.544h-3.668V43.86h4.564c.952 0 1.372.448 1.372 1.316v6.076c0 1.708-.028 2.716-.616 4.312-.588 1.68-1.652 4.34-4.116 8.848Zm8.4-21.728h2.324v9.996h4.032v1.988h-4.032V66.68h-2.324V42.684Zm7.649 2.996v-1.988h13.692v1.988h-5.656v7.644c0 .42.056.784.364 1.148 1.876 2.996 3.808 5.824 5.964 8.54l-1.736 1.204c-2.016-2.464-3.808-5.18-5.46-7.896a.844.844 0 0 1-.224-.476.844.844 0 0 1-.224.476 66.64 66.64 0 0 1-5.432 8.064l-1.848-1.204c2.184-2.856 4.2-5.768 5.964-8.708.28-.392.364-.728.364-1.148V45.68h-5.768Zm18.424-2.996h2.268V66.68h-2.268V42.684Zm7.34 26.04-.308-.7c1.036-.448 1.372-1.288 1.372-2.716h-1.036V62.62h2.884v2.128c0 1.848-.812 3.472-2.912 3.976Z"/>
</svg>