<svg width="153" height="12" viewBox="0 0 153 12" fill="none" xmlns="http://www.w3.org/2000/svg">
<path d="M0.997498 1.25H6.2475V9.125H5.3725V10H4.4975V10.875H1.8725V10H3.6225V9.125H4.4975V5.625H0.997498V4.75H4.4975V2.125H0.997498V1.25ZM9.7475 0.375H11.4975V5.625H14.1225V6.5H11.4975V11.75H9.7475V0.375ZM14.5775 1.25H19.8275V9.125H18.9525V10H18.0775V10.875H15.4525V10H17.2025V9.125H18.0775V5.625H14.5775V4.75H18.0775V2.125H14.5775V1.25ZM23.3275 0.375H25.0775V5.625H27.7025V6.5H25.0775V11.75H23.3275V0.375ZM29.0325 3H29.9075V2.125H30.7825V1.25H37.7825V2.125H38.6575V3H39.5325V5.625H38.6575V6.5H37.7825V7.375H30.7825V6.5H29.9075V5.625H29.0325V3ZM30.7825 3V5.625H31.6575V6.5H36.9075V5.625H37.7825V3H36.9075V2.125H31.6575V3H30.7825ZM28.1575 10H33.4075V7.375H35.1575V10H40.4075V10.875H28.1575V10ZM41.7375 1.25H46.9875V9.125H46.1125V10H45.2375V10.875H42.6125V10H44.3625V9.125H45.2375V2.125H41.7375V1.25ZM47.8625 3.875H49.6125V0.375H51.3625V11.75H49.6125V8.25H47.8625V7.375H49.6125V4.75H47.8625V3.875ZM52.2375 0.375H53.9875V11.75H52.2375V0.375ZM55.3175 0.375H62.3175V1.25H59.6925V3.875H60.5675V4.75H61.4425V5.625H62.3175V6.5H60.5675V5.625H59.6925V4.75H57.9425V5.625H57.0675V6.5H55.3175V5.625H56.1925V4.75H57.0675V3.875H57.9425V1.25H55.3175V0.375ZM62.3175 3H64.9425V0.375H66.6925V6.5H64.9425V3.875H62.3175V3ZM56.1925 8.25H57.9425V7.375H64.9425V8.25H66.6925V10.875H64.9425V11.75H57.9425V10.875H56.1925V8.25ZM57.9425 9.125V10H58.8175V10.875H64.0675V10H64.9425V9.125H64.0675V8.25H58.8175V9.125H57.9425ZM69.7725 3H70.6475V2.125H71.5225V1.25H78.5225V2.125H79.3975V3H80.2725V5.625H79.3975V6.5H78.5225V7.375H71.5225V6.5H70.6475V5.625H69.7725V3ZM71.5225 3V5.625H72.3975V6.5H77.6475V5.625H78.5225V3H77.6475V2.125H72.3975V3H71.5225ZM68.8975 10H81.1475V10.875H68.8975V10ZM83.3525 1.25H93.8525V4.75H85.1025V6.5H93.8525V7.375H84.2275V6.5H83.3525V3.875H92.1025V2.125H83.3525V1.25ZM82.4775 10H87.7275V7.375H89.4775V10H94.7275V10.875H82.4775V10ZM100.012 10H100.887V9.125H101.762V8.25H102.637V1.25H104.387V8.25H105.262V9.125H106.137V10H107.012V10.875H105.262V10H104.387V9.125H102.637V10H101.762V10.875H100.012V10ZM109.637 0.375H111.387V11.75H109.637V0.375ZM113.592 0.375H120.592V1.25H117.967V3.875H118.842V4.75H119.717V5.625H120.592V6.5H118.842V5.625H117.967V4.75H116.217V5.625H115.342V6.5H113.592V5.625H114.467V4.75H115.342V3.875H116.217V1.25H113.592V0.375ZM122.342 0.375H124.092V3H126.717V3.875H124.092V6.5H122.342V0.375ZM114.467 7.375H124.092V10.875H123.217V11.75H122.342V8.25H114.467V7.375ZM127.173 1.25H129.798V0.375H131.548V1.25H134.173V2.125H127.173V1.25ZM127.173 4.75H128.048V3.875H128.923V3H132.423V3.875H133.298V4.75H134.173V9.125H133.298V10H132.423V10.875H128.923V10H128.048V9.125H127.173V4.75ZM128.923 4.75V9.125H129.798V10H131.548V9.125H132.423V4.75H131.548V3.875H129.798V4.75H128.923ZM135.923 0.375H137.673V5.625H140.298V6.5H137.673V11.75H135.923V0.375ZM140.753 1.25H146.003V9.125H145.128V10H144.253V10.875H141.628V10H143.378V9.125H144.253V2.125H140.753V1.25ZM150.378 0.375H152.128V11.75H150.378V0.375Z" fill="#434343"/>
</svg>
