<svg width="32" height="32" viewBox="0 0 32 32" fill="none" xmlns="http://www.w3.org/2000/svg">
<g clip-path="url(#clip0_904_14128)">
<circle cx="16" cy="16" r="16" fill="#F18721"/>
<path d="M15.9996 8.425C16.1329 8.425 16.2579 8.446 16.3746 8.488C16.4913 8.52933 16.5996 8.6 16.6996 8.7L23.2996 15.3C23.4996 15.5 23.5996 15.7377 23.5996 16.013C23.5996 16.2877 23.4996 16.525 23.2996 16.725C23.0996 16.925 22.8663 17.025 22.5996 17.025C22.3329 17.025 22.0996 16.925 21.8996 16.725L16.9996 11.825L16.9996 23.025C16.9996 23.3083 16.9036 23.5417 16.7116 23.725C16.5203 23.9083 16.2829 24 15.9996 24C15.7163 24 15.4786 23.9043 15.2866 23.713C15.0953 23.521 14.9996 23.2833 14.9996 23L14.9996 11.825L10.0996 16.725C9.89961 16.925 9.66627 17.025 9.39961 17.025C9.13294 17.025 8.89961 16.925 8.69961 16.725C8.49961 16.525 8.39961 16.2877 8.39961 16.013C8.39961 15.7377 8.49961 15.5 8.69961 15.3L15.2996 8.7C15.3996 8.6 15.5079 8.52933 15.6246 8.488C15.7413 8.446 15.8663 8.425 15.9996 8.425Z" fill="white"/>
</g>
<defs>
<clipPath id="clip0_904_14128">
<rect width="32" height="32" fill="white" transform="translate(32 32) rotate(-180)"/>
</clipPath>
</defs>
</svg>
