<svg width="58" height="57" viewBox="0 0 58 57" fill="none" xmlns="http://www.w3.org/2000/svg">
<rect x="0.5" width="57" height="57" rx="28.5" fill="#F18721"/>
<path fill-rule="evenodd" clip-rule="evenodd" d="M29 17.6567C29.466 17.6567 29.8438 18.0345 29.8438 18.5005V39.5005C29.8438 39.9665 29.466 40.3442 29 40.3442C28.534 40.3442 28.1562 39.9665 28.1562 39.5005V18.5005C28.1562 18.0345 28.534 17.6567 29 17.6567Z" fill="#F5F7FB" stroke="#F5F7FB" stroke-linecap="round" stroke-linejoin="round"/>
<path fill-rule="evenodd" clip-rule="evenodd" d="M17.6562 29C17.6562 28.534 18.034 28.1562 18.5 28.1562H39.5C39.966 28.1562 40.3438 28.534 40.3438 29C40.3438 29.466 39.966 29.8438 39.5 29.8438H18.5C18.034 29.8438 17.6562 29.466 17.6562 29Z" fill="#F5F7FB" stroke="#F5F7FB" stroke-linecap="round" stroke-linejoin="round"/>
</svg>
