<svg xmlns="http://www.w3.org/2000/svg" width="435" height="393" fill="none">
  <g opacity=".9">
    <path fill="#F5F7FB" d="m41.007 93.804-8.603-48.003L23.8 93.804h-9.005L2.653 30.766h5.95l10.775 55.4 9.247-50.978h7.477l9.488 50.977 10.614-55.4h5.87l-11.98 63.04h-9.087ZM82.14 54.887c-7.638 0-11.739 4.584-11.9 13.509h23.72c-.16-7.96-3.86-13.509-11.82-13.509Zm18.413 18.816H70.159C70.079 83.752 73.616 89.3 82.3 89.3c6.915 0 10.775-3.296 11.579-8.925h6.513c-1.126 8.764-8.925 14.715-17.77 14.715-11.9 0-18.976-8.282-18.976-20.665v-5.95c0-11.418 6.835-19.297 18.493-19.297 11.74 0 18.413 7.88 18.413 20.02v4.504Zm24.187-39.962v53.228c0 .805.402 1.207 1.126 1.207h12.945v5.628h-15.599c-3.296 0-4.824-1.447-4.824-4.663V36.555h-13.508v-5.79h16.885c1.93 0 2.975.965 2.975 2.976Zm54.127 31.197h-6.513c-.483-5.95-4.262-10.05-11.418-10.05-7.076 0-11.498 4.502-11.498 13.99v6.272c0 8.684 3.699 14.151 11.82 14.151 6.995 0 11.337-4.261 11.739-10.13h6.432c-.804 10.05-7.879 15.92-17.93 15.92-12.543 0-18.654-7.72-18.654-20.102v-6.03c0-12.222 6.513-19.78 18.332-19.78 10.131 0 16.886 5.708 17.69 15.76Zm43.143 2.412v8.845c0 10.935-6.513 19.137-18.413 19.137-11.819 0-18.332-8.202-18.332-19.137V67.35c0-10.854 6.513-19.056 18.332-19.056 11.9 0 18.413 8.202 18.413 19.056Zm-6.191 9.086V67.11c0-8.04-5.387-13.026-12.222-13.026-6.673 0-12.061 4.986-12.061 13.026v9.327c0 8.121 5.388 13.106 12.061 13.106 6.835 0 12.222-4.985 12.222-13.106Zm38.633 17.368V66.466c0-7.96-4.261-11.418-8.844-11.418-5.227 0-10.694 3.78-10.694 13.99v24.766h-6.192V50.626h6.192v3.94c2.171-2.975 6.271-5.387 11.819-5.387 5.79 0 10.614 3.055 12.624 6.834 2.332-3.699 7.237-6.674 12.945-6.674 10.212 0 14.232 6.835 14.232 16.323v28.142h-6.191V67.11c0-8.282-3.779-12.06-9.005-12.06-4.905 0-10.855 3.778-10.855 13.266v25.49h-6.031Zm58.26-38.917c-7.639 0-11.74 4.584-11.9 13.509h23.719c-.16-7.96-3.859-13.509-11.819-13.509Zm18.413 18.816H300.73c-.08 10.05 3.458 15.598 12.141 15.598 6.915 0 10.775-3.296 11.579-8.925h6.513c-1.126 8.764-8.925 14.715-17.77 14.715-11.9 0-18.976-8.282-18.976-20.665v-5.95c0-11.418 6.835-19.297 18.494-19.297 11.739 0 18.413 7.88 18.413 20.02v4.504Zm20.42-18.333v-5.307h8.845v-13.99h6.352v13.99h17.207v5.307h-17.207V83.35c0 3.056 1.608 4.664 4.262 4.664h13.347v5.79h-13.347c-7.398 0-10.614-3.539-10.614-10.293V55.37h-8.845Zm75.046 11.98v8.845c0 10.935-6.513 19.137-18.413 19.137-11.82 0-18.333-8.202-18.333-19.137V67.35c0-10.854 6.513-19.056 18.333-19.056 11.9 0 18.413 8.202 18.413 19.056Zm-6.191 9.086V67.11c0-8.04-5.388-13.026-12.222-13.026-6.674 0-12.061 4.986-12.061 13.026v9.327c0 8.121 5.387 13.106 12.061 13.106 6.834 0 12.222-4.985 12.222-13.106Z"/>
    <path fill="#FFD7BF" d="M33.69 189.622v-5.307c0-8.362-4.663-13.106-11.257-13.106-6.593 0-11.256 4.583-11.256 12.141v7.076c0 6.915 4.663 11.659 11.256 11.659 6.594 0 11.257-4.181 11.257-12.463Zm0 18.896v-6.031c-1.527 3.056-6.834 5.468-12.06 5.468-10.132 0-17.127-6.433-17.127-17.931v-6.432c0-11.177 6.915-18.413 17.046-18.413 5.387 0 10.372 2.492 12.141 5.467v-4.02h6.513v41.49c0 10.694-4.905 16-16.242 16H9.971v-5.869H23.8c7.477 0 9.89-3.86 9.89-9.729Zm50.526-25.168v8.845c0 10.935-6.513 19.137-18.413 19.137-11.82 0-18.332-8.202-18.332-19.137v-8.845c0-10.854 6.512-19.056 18.332-19.056 11.9 0 18.413 8.202 18.413 19.056Zm-6.191 9.086v-9.327c0-8.04-5.387-13.026-12.222-13.026-6.674 0-12.06 4.986-12.06 13.026v9.327c0 8.121 5.386 13.107 12.06 13.107 6.835 0 12.222-4.986 12.222-13.107Zm38.633 17.368v-27.338c0-7.96-4.261-11.418-8.844-11.418-5.227 0-10.694 3.779-10.694 13.991v24.765h-6.192v-43.178h6.192v3.94c2.17-2.975 6.271-5.387 11.819-5.387 5.789 0 10.614 3.055 12.624 6.834 2.332-3.699 7.237-6.674 12.945-6.674 10.212 0 14.232 6.835 14.232 16.323v28.142h-6.191v-26.695c0-8.282-3.779-12.061-9.005-12.061-4.905 0-10.855 3.779-10.855 13.267v25.489h-6.031Zm39.203 0v-5.789h15.599v-32.484h-13.749v-5.709h18.332c1.608 0 2.252.884 2.252 2.492v35.701h14.071v5.789h-36.505Zm15.599-63.923h6.835v7.639h-6.835v-7.639Zm62.952 63.923h-6.272v-24.685c0-9.809-3.296-14.794-11.337-14.794-7.478 0-12.061 5.708-12.061 14.875v24.604h-6.352v-43.982h6.352v5.226c2.171-3.779 7.397-6.593 13.749-6.593 9.408 0 15.921 7.076 15.921 19.941v25.408Zm10.237.804v-8.443h8.201v8.443h-8.201Zm19.3-3.377v-2.412l28.222-33.288h-27.016v-5.709h33.368c1.769 0 2.413.884 2.413 2.653v2.171l-28.303 33.449h30.071v5.709h-36.263c-1.769 0-2.492-.804-2.492-2.573Zm79.913-23.881v8.845c0 10.935-6.512 19.137-18.413 19.137-11.819 0-18.332-8.202-18.332-19.137v-8.845c0-10.854 6.513-19.056 18.332-19.056 11.901 0 18.413 8.202 18.413 19.056Zm-6.191 9.086v-9.327c0-8.04-5.387-13.026-12.222-13.026-6.673 0-12.061 4.986-12.061 13.026v9.327c0 8.121 5.388 13.107 12.061 13.107 6.835 0 12.222-4.986 12.222-13.107Zm48.926 17.368h-6.272v-24.685c0-9.809-3.297-14.794-11.337-14.794-7.478 0-12.061 5.708-12.061 14.875v24.604h-6.353v-43.982h6.353v5.226c2.171-3.779 7.397-6.593 13.749-6.593 9.408 0 15.921 7.076 15.921 19.941v25.408Zm25.353-38.917c-7.639 0-11.74 4.584-11.901 13.509h23.72c-.161-7.961-3.859-13.509-11.819-13.509Zm18.413 18.815h-30.394c-.08 10.051 3.458 15.599 12.141 15.599 6.915 0 10.775-3.296 11.579-8.925h6.513c-1.126 8.764-8.925 14.715-17.77 14.715-11.9 0-18.976-8.282-18.976-20.665v-5.95c0-11.418 6.835-19.297 18.494-19.297 11.739 0 18.413 7.879 18.413 20.021v4.502Z"/>
    <path fill="#F5F7FB" d="M19.386 270.481h2.187v11.151h-2.187v-11.151Zm.027 16.632v-2.16H4.131v-1.863h16.74c.459 0 .702.216.702.648v3.996c0 .972-.675 1.485-1.701 1.485H6.291v1.62a.54.54 0 0 0 .216.459l.459.405c.135.108.27.162.459.162h14.742v1.863H6.939c-.486 0-.918-.081-1.215-.351l-1.134-1.08c-.324-.297-.459-.675-.459-1.134v-3.078c0-.459.243-.675.729-.675h14.256c.216 0 .297-.081.297-.297Zm-5.508-11.421v.675c0 2.97-2.322 5.4-5.94 5.4-3.618 0-6.021-2.43-6.021-5.4v-.675c0-2.97 2.403-5.373 6.021-5.373s5.94 2.403 5.94 5.373Zm-2.106.675v-.675c0-1.917-1.674-3.483-3.834-3.483-2.241 0-3.807 1.566-3.807 3.483v.675c0 1.944 1.566 3.483 3.807 3.483 2.16 0 3.834-1.539 3.834-3.483Zm32.215 1.593v5.913h-2.24v-13.392h2.24v5.562h3.888v1.917h-3.888Zm-12.15 6.615h7.533c3.105 0 5.454 1.647 5.454 4.563 0 2.943-2.322 4.563-5.454 4.563h-7.533c-3.132 0-5.4-1.62-5.4-4.563 0-2.916 2.295-4.563 5.4-4.563Zm7.533 1.917h-7.533c-1.782 0-3.213.972-3.213 2.646s1.431 2.673 3.213 2.673h7.533c1.81 0 3.267-.999 3.267-2.673s-1.458-2.646-3.267-2.646Zm-6.048-10.476c1.62 1.89 3.537 3.726 5.535 5.535l-1.458 1.404c-1.89-1.782-3.753-3.564-5.292-5.373-.135-.135-.324-.27-.35-.432-.055.162-.19.27-.352.432-1.674 1.863-3.429 3.726-5.319 5.535l-1.485-1.269c1.944-1.836 3.834-3.78 5.535-5.832.27-.27.486-.486.486-.864v-4.374h2.241v4.374c0 .378.19.594.46.864Zm33.565-5.535h2.187v23.139h-2.187v-23.139Zm-1.998 19.737H48.878v-1.944h16.038v1.944Zm-8.532-19.089c3.807 0 6.237 2.511 6.237 5.616v1.377c0 3.105-2.43 5.616-6.237 5.616-3.834 0-6.237-2.511-6.237-5.616v-1.377c0-3.105 2.43-5.616 6.237-5.616Zm4.05 6.993v-1.377c0-2.133-1.7-3.699-4.05-3.699-2.376 0-4.023 1.566-4.023 3.699v1.377c0 2.16 1.593 3.726 4.023 3.726 2.403 0 4.05-1.593 4.05-3.726Zm37.146-5.751v9.288c0 2.295-.054 2.862-1.08 5.238-.648-.135-1.323-.27-1.944-.432.702-2.052.81-2.781.81-4.752v-8.235H79.841v-1.917h16.983c.46 0 .756.324.756.81Zm-11.043 7.911h2.241v10.098h10.53v1.944h-21.06v-1.944h8.29v-10.098Zm33.16-9.801h2.187v17.172h-2.187v-17.172Zm2.7 23.247h-14.499c-.783 0-1.323-.162-1.755-.621l-1.053-.999c-.486-.513-.702-.945-.702-1.728v-4.671h2.187v4.455c0 .405.135.567.378.81l.486.54c.189.189.405.297.783.297h14.175v1.917Zm-9.153-10.152h-7.236c-.756 0-1.188-.162-1.674-.594l-1.242-1.134c-.459-.459-.729-.864-.729-1.701v-8.235c0-.513.27-.783.783-.783h10.206c.513 0 .756.27.756.783v10.773c0 .567-.27.891-.864.891Zm-6.885-1.971h5.589v-8.559h-7.371v6.777c0 .378.135.621.378.81l.513.567c.216.243.513.405.891.405Zm22.955-10.908v3.78h13.662v-3.78h2.214v10.044c0 .567-.297.891-.891.891h-13.77c-.783 0-1.296-.108-1.755-.513l-1.026-.945c-.513-.432-.648-.918-.648-1.674v-7.803h2.214Zm1.431 9.072h12.231v-3.483h-13.662v2.16c0 .351.054.486.243.675l.54.459c.135.135.27.189.648.189Zm6.642 14.256H135.2v-7.803h-9.342v-1.917h20.898v1.917h-9.369v7.803Zm12.802-7.317v-14.391c0-.567.297-.891.918-.891h10.962v1.944h-9.666v7.074h8.262v1.863h-8.262v4.32c0 .837.27 1.188.567 1.512l.675.756c.324.324.702.567 1.296.567h7.884v1.971h-8.289c-1.296 0-1.809-.243-2.565-1.107l-.756-.891c-.702-.783-1.026-1.215-1.026-2.727Zm17.037-16.227h2.187v23.139h-2.187v-12.042h-4.482v-1.917h4.482v-9.18Zm24.185.162h2.187v8.694h3.51v-8.856h2.16v23.112h-2.16v-12.366h-3.51v12.15h-2.187v-22.734Zm-6.696 11.664a76.78 76.78 0 0 0 4.752 7.695l-1.755 1.35c-1.566-2.349-2.889-4.509-4.158-6.939-.054-.108-.162-.324-.216-.567a1.243 1.243 0 0 1-.216.567c-1.215 2.484-2.619 4.725-4.212 7.074l-1.755-1.215c1.782-2.619 3.348-5.373 4.725-7.965.216-.405.324-.729.324-1.134v-7.695h-4.428v-1.917h10.935v1.917h-4.32v7.695c0 .405.108.702.324 1.134Zm35.294-11.826h2.187v23.139h-2.187v-23.139Zm-6.237 20.79h-6.696c-1.053 0-1.404-.108-2.079-.837l-1.323-1.566c-.594-.675-.783-1.107-.783-2.241v-14.229c0-.486.27-.783.81-.783h10.152c.567 0 .837.297.837.783v18.009c0 .567-.297.81-.918.864Zm-8.667-17.739v13.23c0 .324.162.702.405.945l.999 1.161c.216.27.54.459.891.459h5.076v-15.795h-7.371Zm27.166-2.997c3.726 0 6.021 2.619 6.021 5.67v1.161c0 3.051-2.322 5.697-6.021 5.697-3.726 0-6.048-2.646-6.048-5.697v-1.161c0-3.051 2.322-5.67 6.048-5.67Zm2.646 17.82c.81.999 1.755 1.971 2.727 2.889 1.026-.972 2.025-1.971 2.862-2.997.243-.324.54-.621.54-1.053v-2.673h2.187v2.673c0 .432.243.783.54 1.053 1.188 1.323 2.673 2.673 4.158 3.942l-1.323 1.404c-1.404-1.188-2.862-2.457-3.996-3.753-.216-.243-.405-.378-.432-.648-.054.27-.243.459-.405.648-1.161 1.377-2.592 2.673-3.996 3.996-1.377-1.269-2.916-2.538-4.05-3.888-.162-.216-.405-.351-.432-.621-.054.27-.243.459-.405.621-1.134 1.296-2.511 2.565-3.915 3.807l-1.458-1.377c1.458-1.242 2.889-2.538 4.131-4.023.216-.297.513-.621.513-1.026v-2.835h2.187v2.835c0 .405.27.756.567 1.026Zm1.188-10.989v-1.161c0-2.106-1.539-3.753-3.834-3.753-2.349 0-3.834 1.647-3.834 3.753v1.161c0 2.079 1.431 3.78 3.834 3.78 2.349 0 3.834-1.728 3.834-3.78Zm7.668 6.021v-12.906h2.187v12.906h-2.187Zm25.843 10.071h-14.931c-.567 0-1.107-.135-1.458-.486l-1.323-1.296c-.351-.378-.54-.81-.54-1.404v-4.32h2.214v4.023c0 .243.108.432.243.594l.756.756c.135.135.324.189.567.189h14.472v1.944Zm-15.012-13.5c-.567 0-1.08-.108-1.458-.486l-1.296-1.296c-.378-.351-.567-.81-.567-1.377v-5.994h2.241v5.697a.82.82 0 0 0 .216.567l.756.783a.951.951 0 0 0 .567.189h14.391v1.917h-14.85Zm16.281 3.915h-21.06v-1.836h21.06v1.836Zm12.738-4.158c-.567 0-1.08-.135-1.458-.486l-1.296-1.296a1.832 1.832 0 0 1-.567-1.377v-5.967h2.241v5.67a.82.82 0 0 0 .216.567l.756.756a.82.82 0 0 0 .567.216h14.391v1.917h-8.1v2.727h9.504v1.863h-20.979v-1.863h9.288v-2.727h-4.563Zm15.039 14.013h-14.85c-.81 0-1.296-.108-1.755-.567l-1.134-1.053c-.459-.486-.675-.945-.675-1.728v-4.401h2.241v4.104c0 .459.108.648.378.918l.486.486c.243.243.459.324.891.324h14.418v1.917Zm11.155-8.478h8.532c3.186 0 5.4 1.512 5.4 4.32 0 2.808-2.187 4.32-5.4 4.32h-8.532c-3.213 0-5.373-1.512-5.373-4.32 0-2.808 2.187-4.32 5.373-4.32Zm8.532 1.917h-8.532c-1.863 0-3.186.864-3.186 2.403 0 1.539 1.323 2.403 3.186 2.403h8.532c1.89 0 3.186-.864 3.186-2.403 0-1.539-1.296-2.403-3.186-2.403Zm-2.889-16.524h2.187v5.049h3.537v-5.211h2.16v13.635h-2.16v-6.507h-3.537v5.967h-2.187v-12.933Zm-6.642 6.021c1.404 1.89 2.781 3.402 4.509 5.238l-1.593 1.296c-1.512-1.647-2.727-2.916-3.996-4.644a1.75 1.75 0 0 1-.297-.594c-.027.216-.189.432-.297.594-1.242 1.728-2.511 3.078-4.077 4.779l-1.539-1.323c1.647-1.89 3.051-3.402 4.455-5.346.27-.351.324-.594.324-.999v-2.673h-4.428v-1.917h10.935v1.917h-4.32v2.673c0 .405.054.648.324.999Zm18.634 14.121-1.836-1.08c2.673-4.32 3.726-6.642 4.239-8.046.405-1.053.405-1.755.405-2.862v-5.265h-3.942v-1.917h4.833c.945 0 1.35.432 1.35 1.269v5.778c0 1.431-.027 2.322-.54 3.645-.594 1.512-1.782 4.023-4.509 8.478Zm7.155.648-1.917-1.134c2.268-4.05 3.213-6.453 3.78-7.911.459-1.296.513-2.187.513-3.51v-5.346h-3.537v-1.917h4.401c.918 0 1.323.432 1.323 1.269v5.859c0 1.647-.027 2.619-.594 4.158-.567 1.62-1.593 4.185-3.969 8.532Zm8.1-20.952h2.241v9.639h3.888v1.917h-3.888v11.583h-2.241v-23.139Zm7.375 2.889v-1.917h13.203v1.917h-5.454v7.371c0 .405.054.756.351 1.107 1.809 2.889 3.672 5.616 5.751 8.235l-1.674 1.161c-1.944-2.376-3.672-4.995-5.265-7.614a.814.814 0 0 1-.216-.459.814.814 0 0 1-.216.459 64.26 64.26 0 0 1-5.238 7.776l-1.782-1.161c2.106-2.754 4.05-5.562 5.751-8.397a1.74 1.74 0 0 0 .351-1.107v-7.371h-5.562Zm17.766-2.889h2.187v23.139h-2.187v-23.139ZM14.526 315.643h2.187v9.288h3.537v-9.45h2.16v23.112h-2.16v-11.745h-3.537v11.529h-2.187v-22.734Zm-10.827 2.7v13.77c0 .594.297.918.621 1.269l.54.648c.297.351.675.567 1.269.567h2.889v-16.254H3.699Zm-2.187 13.608v-14.769c0-.486.297-.756.81-.756h8.1c.513 0 .783.27.783.756v18.522c0 .567-.297.864-.891.864h-4.59c-1.269 0-1.836-.189-2.565-1.08l-.621-.81c-.675-.837-1.026-1.215-1.026-2.727Zm41.638-10.368v-6.102h2.187v17.145H43.15v-9.18h-6.237v5.076c0 .27-.108.432-.35.432h-7.426c-.702 0-1.242-.108-1.62-.486l-1.08-1.053c-.432-.459-.567-.783-.567-1.701v-9.423h2.214v4.482H34.7v-4.482h2.214v5.292h6.237Zm2.754 17.064H31.135c-.567 0-1.134-.135-1.458-.486l-1.404-1.377c-.378-.378-.54-.837-.54-1.404v-4.401h2.187v4.158c0 .243.081.432.27.567l.864.864c.108.135.27.216.54.216h14.31v1.863ZM29.65 327.091h5.05v-4.482h-6.616v2.889c0 .459.054.648.27.81l.46.486c.27.243.404.297.836.297Zm42.546 5.211v-2.187H56.752v-1.863h16.902c.459 0 .702.27.702.702v4.104c0 .81-.594 1.269-1.566 1.269H58.939v1.539c0 .216.054.351.189.459l.459.405c.135.081.27.162.486.162H74.95v1.863H59.587c-.513 0-.918-.081-1.242-.351l-1.134-1.08c-.324-.297-.46-.675-.46-1.134v-3.024c0-.459.27-.675.757-.675h14.499c.135 0 .189-.027.189-.189Zm-16.794-5.076-.73-1.863a65.467 65.467 0 0 0 7.399-2.889c1.782-.837 2.106-1.836 2.106-2.754v-2.025h-8.532v-1.917h9.45c.89 0 1.323.432 1.323 1.269v1.296h5.75v-2.862h2.188v11.691h-2.187v-2.646h-5.751v-1.917h5.75v-2.349h-5.777c-.108 1.593-.702 2.808-3.24 3.969-2.484 1.161-5.184 2.16-7.75 2.997Zm30.325 2.916h7.641c3.051 0 5.32 1.431 5.32 4.239s-2.242 4.266-5.32 4.266h-7.64c-3.133 0-5.347-1.458-5.347-4.266s2.241-4.239 5.346-4.239Zm7.641 1.917h-7.64c-1.783 0-3.16.783-3.16 2.322 0 1.539 1.377 2.349 3.16 2.349h7.64c1.755 0 3.105-.81 3.105-2.349 0-1.539-1.35-2.322-3.105-2.322Zm-15.012-14.175v-1.836h13.311v1.836h-5.48v3.807c0 .378.242.594.458.864a78.932 78.932 0 0 0 5.562 4.482l-1.242 1.62c-2.025-1.539-4.023-3.024-5.616-4.509-.162-.162-.297-.324-.35-.486-.055.162-.217.297-.379.486a84.773 84.773 0 0 1-5.427 4.563l-1.323-1.593c1.863-1.458 3.672-2.943 5.373-4.563.27-.243.486-.486.486-.864v-3.807h-5.373Zm17.577 2.808v-5.211h2.187v13.446h-2.187v-6.318h-4.752v-1.917h4.752Zm18.337 7.83v3.348c0 2.916-1.863 5.508-5.508 5.508-3.618 0-5.481-2.727-5.481-5.508v-3.348c0-2.916 1.863-5.454 5.481-5.454 3.645 0 5.508 2.538 5.508 5.454Zm-2.16 3.348v-3.348c0-2.025-1.242-3.537-3.348-3.537-2.133 0-3.267 1.512-3.267 3.537v3.348c0 2.025 1.134 3.591 3.267 3.591 2.106 0 3.348-1.566 3.348-3.591Zm6.21-16.389h2.241v10.125h3.888v1.917h-3.888v11.097h-2.241v-23.139Zm-16.254 5.508v-1.917h5.562V315.4h2.214v3.672h5.481v1.917h-13.257Zm25.574 15.363-1.377-1.647c2.754-2.106 5.184-4.212 6.48-5.535 2.538-2.592 2.97-3.834 2.97-5.292v-5.427h-8.91v-1.944h10.098c.648 0 .972.405.972 1.053v6.048c0 2.619-.162 3.834-3.321 6.858-1.431 1.35-3.726 3.294-6.912 5.886Zm15.822-20.871h2.187v23.139h-2.187v-23.139Zm14.33 22.572v-6.48c0-.486.243-.783.783-.783h15.309c.513 0 .783.297.783.783v6.48c0 .567-.297.864-.891.864h-15.12c-.594 0-.864-.297-.864-.864Zm3.159-17.172h1.701c3.348 0 4.806 1.62 4.806 4.023 0 2.376-1.458 3.942-4.806 3.942h-1.674c-3.294 0-4.833-1.566-4.833-3.942 0-2.403 1.512-4.023 4.806-4.023Zm-.972 16.173h12.501v-4.428h-12.501v4.428Zm-5.4-17.766v-1.917h6.021v-2.538h2.241v2.538h5.994v1.917h-14.256Zm17.901-3.807h2.187v14.04h-2.187v-14.04Zm-11.502 11.475h1.674c1.863 0 2.673-.918 2.673-2.052 0-1.161-.81-2.106-2.673-2.106h-1.701c-1.917 0-2.673.945-2.673 2.106 0 1.134.783 2.052 2.7 2.052Zm37.048-1.836h-14.58c-.594 0-1.134-.135-1.485-.459l-1.377-1.35c-.351-.378-.54-.81-.54-1.404v-5.157c0-.567.297-.864.945-.864h16.767v1.917h-15.498v3.807c0 .27.108.432.243.594l.81.756c.162.135.324.189.567.189h14.148v1.971Zm1.566 4.293h-21.06v-1.836h21.06v1.836Zm-1.215 9.315h-14.958c-.837 0-1.269-.108-1.647-.513l-1.08-1.08c-.486-.54-.729-.945-.729-1.701v-3.996h2.241v3.78c0 .297.081.513.324.756l.513.54c.189.216.459.297.756.297h14.58v1.917Zm29.64-.081h-14.472c-.567 0-1.107-.135-1.485-.486l-1.377-1.377c-.378-.378-.54-.837-.54-1.404v-4.509h2.187v4.266c0 .243.108.432.27.567l.837.864a.754.754 0 0 0 .54.216h14.04v1.863Zm-12.231-16.659c1.647 1.782 3.618 3.591 5.616 5.319l-1.35 1.431c-1.917-1.62-3.807-3.348-5.454-5.103-.108-.135-.297-.27-.351-.459-.054.189-.216.324-.351.459a85.295 85.295 0 0 1-5.4 5.211l-1.404-1.404c1.917-1.755 3.834-3.591 5.535-5.454.243-.27.486-.486.486-.864v-5.076h2.187v5.076c0 .378.243.594.486.864Zm9.477-1.539v-4.968h2.187v17.226h-2.187v-10.341h-4.941v-1.917h4.941Zm6.079 5.157v-8.505c0-.567.297-.81.918-.81h8.775v1.89h-7.479v3.402h6.993v1.863h-6.993v1.836c0 .378.135.513.324.783l.54.621c.189.189.486.189.837.189h6.21v1.971h-6.615c-.756 0-1.35-.108-1.809-.594l-.945-.945c-.459-.486-.756-.864-.756-1.701Zm12.744-9.963h2.106v5.697h3.699v-5.859h2.16v13.932h-2.16v-6.156h-3.699v5.967h-2.106v-13.581Zm-10.503 15.12h17.658c.567 0 .81.297.81.783v7.506h-2.16v-6.399h-16.308v-1.89Zm39.209-15.282h2.187v23.139h-2.187v-23.139Zm-1.998 19.737h-16.038v-1.944h16.038v1.944Zm-8.532-19.089c3.807 0 6.237 2.511 6.237 5.616v1.377c0 3.105-2.43 5.616-6.237 5.616-3.834 0-6.237-2.511-6.237-5.616v-1.377c0-3.105 2.43-5.616 6.237-5.616Zm4.05 6.993v-1.377c0-2.133-1.701-3.699-4.05-3.699-2.376 0-4.023 1.566-4.023 3.699v1.377c0 2.16 1.593 3.726 4.023 3.726 2.403 0 4.05-1.593 4.05-3.726Zm37.577 15.363h-15.093c-.567 0-1.08-.108-1.431-.459l-1.323-1.296c-.378-.378-.54-.837-.54-1.404v-4.104h2.214v3.807c0 .243.081.432.243.567l.729.783c.135.135.351.189.567.189h14.634v1.917Zm-7.668-19.386c2.673 1.566 5.427 3.024 8.1 4.374l-.999 1.674a88.477 88.477 0 0 1-8.262-4.509.777.777 0 0 1-.405-.378c-.081.189-.216.27-.432.378-2.592 1.701-5.373 3.213-8.181 4.644l-1.026-1.701c2.727-1.404 5.373-2.916 7.965-4.482.324-.189.513-.351.513-.756v-2.997h2.187v2.997c0 .405.189.567.54.756Zm-.432 14.688h-2.187v-4.833h-9.396v-1.836h20.898v1.836h-9.315v4.833Zm12.559-4.212-.918-1.917a63.855 63.855 0 0 0 6.696-3.267c2.592-1.458 2.7-2.403 2.7-3.375V318.1h-8.667v-1.917h9.558c.945 0 1.35.405 1.35 1.269v3.429c0 2.079-.135 3.321-3.645 5.265-2.322 1.242-4.725 2.43-7.074 3.429Zm18.09-5.724v8.856h-2.241v-17.226h2.241v6.453h3.888v1.917h-3.888Zm-14.067 7.074v4.401c0 .243.081.432.243.567l.783.783c.108.135.27.189.54.189h12.987v1.917h-13.419c-.594 0-1.134-.108-1.485-.459l-1.296-1.296c-.378-.378-.567-.837-.567-1.404v-4.698h2.214Zm38.75-7.614H336.46c-.594 0-1.134-.135-1.485-.459l-1.35-1.35c-.378-.378-.567-.837-.567-1.404v-3.51c0-.567.324-.837.972-.837h16.821v1.917h-15.552v2.133c0 .243.081.432.216.567l.81.783a.951.951 0 0 0 .567.189h14.229v1.971Zm1.593 3.726h-21.06v-1.836h21.06v1.836Zm-18.981 5.67h15.12c.081 0 .135-.081.135-.162v-1.863h-15.957v-1.836h17.442c.486 0 .729.27.729.702v3.591c0 .864-.675 1.404-1.728 1.404h-14.229v1.026c0 .189.054.324.162.459l.567.54c.108.135.243.189.432.189h15.39v1.836h-16.011c-.486 0-.918-.162-1.242-.513L333.49 337c-.324-.351-.459-.729-.459-1.215v-2.403c0-.432.243-.675.702-.675Zm22.684 7.884-.297-.675c.999-.432 1.323-1.242 1.323-2.619h-.999v-2.592h2.781v2.052c0 1.782-.783 3.348-2.808 3.834Zm-335.384 21.78v9.288c0 2.295-.054 2.862-1.08 5.238-.648-.135-1.323-.27-1.944-.432.702-2.052.81-2.781.81-4.752v-8.235H3.294v-1.917h16.983c.459 0 .756.324.756.81ZM9.99 370.282h2.241v10.098h10.53v1.944H1.701v-1.944H9.99v-10.098Zm33.16-9.801h2.187v17.172H43.15v-17.172Zm2.7 23.247H31.351c-.783 0-1.323-.162-1.755-.621l-1.053-.999c-.486-.513-.702-.945-.702-1.728v-4.671h2.187v4.455c0 .405.135.567.378.81l.486.54c.19.189.405.297.783.297H45.85v1.917Zm-9.153-10.152h-7.236c-.756 0-1.188-.162-1.674-.594l-1.242-1.134c-.459-.459-.729-.864-.729-1.701v-8.235c0-.513.27-.783.783-.783h10.206c.513 0 .756.27.756.783v10.773c0 .567-.27.891-.864.891Zm-6.885-1.971h5.59v-8.559H28.03v6.777c0 .378.135.621.378.81l.513.567c.216.243.513.405.891.405Zm37.102-11.124h2.187v23.139h-2.187v-23.139Zm-1.998 19.737H48.878v-1.944h16.038v1.944Zm-8.532-19.089c3.807 0 6.237 2.511 6.237 5.616v1.377c0 3.105-2.43 5.616-6.237 5.616-3.834 0-6.237-2.511-6.237-5.616v-1.377c0-3.105 2.43-5.616 6.237-5.616Zm4.05 6.993v-1.377c0-2.133-1.7-3.699-4.05-3.699-2.376 0-4.023 1.566-4.023 3.699v1.377c0 2.16 1.593 3.726 4.023 3.726 2.403 0 4.05-1.593 4.05-3.726Zm31.109-.108v6.102h-2.241v-13.635h2.24v5.616h3.889v1.917h-3.888Zm-14.553 14.04h12.312v-4.536H76.99v4.536Zm-2.214.999v-6.588c0-.486.27-.783.837-.783h15.12c.513 0 .81.297.81.783v6.588c0 .567-.324.864-.918.864H75.694c-.621 0-.918-.297-.918-.864Zm-2.268-18.279v-1.917h5.454v-2.916h2.376v2.916h5.4v1.917h-5.346v1.89c0 .486.108.837.54 1.161 1.566 1.296 3.456 2.781 5.265 4.023l-1.27 1.674c-1.835-1.269-3.644-2.781-5.345-4.158-.162-.135-.297-.297-.351-.513-.081.216-.243.378-.405.513a43.86 43.86 0 0 1-5.508 4.347l-1.27-1.782a67.879 67.879 0 0 0 5.293-4.077c.405-.324.594-.675.594-1.161v-1.917h-5.427Zm36.184 6.507v-1.917h5.751v-3.861h-5.697v.378c0 2.079-.108 3.402-3.672 5.319-2.268 1.242-4.698 2.457-7.047 3.402l-.891-1.944c2.24-.891 4.563-1.998 6.642-3.213 2.592-1.458 2.754-2.457 2.754-3.429v-3.024h-8.694v-1.917h9.612c.891 0 1.296.405 1.296 1.269v1.242h5.697v-3.105h2.187v17.226h-2.187v-6.426h-5.751Zm-6.831 4.644v4.401c0 .243.081.432.243.567l.756.783c.135.135.27.189.54.189h13.932v1.917h-14.364c-.594 0-1.107-.108-1.485-.459l-1.296-1.296c-.378-.378-.54-.837-.54-1.404v-4.698h2.214Zm32.539-15.282h2.16v22.815h-2.16v-11.691h-4.077v3.402c0 4.293-1.593 6.696-5.076 6.696-3.51 0-5.022-2.403-5.022-6.696v-7.587c0-4.266 1.512-6.696 5.022-6.696 3.483 0 5.076 2.43 5.076 6.696v2.268h4.077v-9.207Zm-6.291 14.526v-7.587c0-3.375-.918-4.779-2.862-4.779-1.998 0-2.808 1.404-2.808 4.779v7.587c0 3.402.81 4.779 2.808 4.779 1.944 0 2.862-1.377 2.862-4.779Zm10.935 8.451v-23.139h2.187v23.139h-2.187Zm13.639-11.394c1.863 2.619 3.699 5.157 5.778 7.587l-1.593 1.242a107.24 107.24 0 0 1-5.616-7.29c-.054-.081-.135-.162-.162-.324-.027.162-.135.243-.216.324a75.612 75.612 0 0 1-5.562 7.479l-1.701-1.242a67.122 67.122 0 0 0 5.832-7.776c.405-.567.513-.918.513-1.674v-9.531h2.214v9.531c0 .756.135 1.134.513 1.674Zm9.288-11.745h2.187v23.139h-2.187v-12.798h-5.724v-1.863h5.724v-8.478Zm10.875 2.889v-1.917h12.69v1.917h-5.184v7.128c0 .405.081.729.351 1.134 1.701 2.7 3.645 5.481 5.751 8.208l-1.701 1.161c-1.971-2.565-3.672-5.103-5.238-7.479a.814.814 0 0 1-.216-.459.814.814 0 0 1-.216.459c-1.566 2.511-3.294 5.103-5.238 7.641l-1.782-1.161a88.669 88.669 0 0 0 5.751-8.37c.27-.405.351-.729.351-1.134v-7.128h-5.319Zm16.767-2.889h2.241v9.018h3.888v1.917h-3.888v12.204h-2.241v-23.139Zm15.313.297h5.427c3.996 0 6.48 2.052 6.48 5.454 0 3.375-2.484 5.427-6.48 5.427h-5.427c-3.996 0-6.534-2.052-6.534-5.427 0-3.456 2.538-5.454 6.534-5.454Zm0 8.991h5.427c2.565 0 4.32-1.404 4.32-3.537 0-2.187-1.755-3.537-4.32-3.537h-5.427c-2.592 0-4.401 1.323-4.401 3.537 0 2.133 1.809 3.537 4.401 3.537Zm-.486 14.256h-2.214v-7.776h-5.103v-1.89h20.898v1.89h-5.103v7.776h-2.214v-7.776h-6.264v7.776Zm33.322-19.926v-1.62h-15.228v-1.836h16.713c.459 0 .729.216.729.675v3.537c0 .81-.594 1.269-1.593 1.269h-13.662v.729c0 .162.054.324.189.432l.54.594a.809.809 0 0 0 .486.162h14.607v1.836h-8.208v2.133h9.504v1.836H220.86v-1.836h9.288v-2.133h-4.86c-.513 0-.918-.162-1.242-.513l-1.053-1.107c-.324-.351-.459-.729-.459-1.215v-2.052c0-.459.243-.675.729-.675h14.283c.135 0 .216-.081.216-.216Zm-13.095 10.989v2.511h13.392v-2.511h2.187v7.668c0 .567-.27.864-.864.864h-13.689c-.567 0-1.107-.135-1.458-.486l-1.242-1.161c-.405-.378-.54-.81-.54-1.404v-5.481h2.214Zm1.377 6.669h12.015v-2.349h-13.392v1.026c0 .243.081.432.243.567l.567.54a.773.773 0 0 0 .567.216Zm31.811-21.114h2.16v22.815h-2.16v-11.961h-4.131c-.243.837-.729 1.701-1.593 2.862-1.89 2.403-3.942 4.644-5.994 6.939l-1.647-1.458c2.025-2.187 3.969-4.293 5.751-6.615 1.512-1.998 1.512-2.97 1.512-4.563v-4.833h-6.723v-1.917h7.641c.891 0 1.323.432 1.323 1.269v6.399h3.861v-8.937Zm5.265 22.977v-23.139h2.187v23.139h-2.187Zm22.538-16.74a90.54 90.54 0 0 0 8.748 6.642l-1.161 1.539c-3.132-2.052-6.048-4.185-8.694-6.48-.135-.081-.27-.297-.351-.486a1.19 1.19 0 0 1-.405.486c-2.619 2.403-5.508 4.536-8.586 6.696l-1.188-1.593a68.063 68.063 0 0 0 8.505-6.804c.324-.27.486-.54.486-.918v-5.13h2.187v5.13c0 .351.135.648.459.918Zm-2.673 7.128h2.187v6.399h9.504v1.944h-21.06v-1.944h9.369v-6.399Zm16.124-6.642v-5.94c0-.567.27-.81.918-.81h16.335v1.917h-15.066v2.025h14.877v1.863h-14.877v.594c0 .405.081.567.351.783l.54.432c.243.189.486.243.864.243h13.5v1.971h-7.668v2.052h9.504v1.863h-20.979v-1.863h9.288v-2.052h-4.077c-.756 0-1.323-.189-1.809-.594l-.945-.81c-.513-.432-.756-.864-.756-1.674Zm4.968 8.397h7.641c3.591 0 5.508 1.323 5.508 3.996 0 2.646-1.917 3.942-5.508 3.942h-7.641c-3.537 0-5.562-1.296-5.562-3.942 0-2.7 2.025-3.996 5.562-3.996Zm0 6.048h7.641c2.133 0 3.348-.648 3.348-2.052 0-1.431-1.215-2.079-3.348-2.079h-7.641c-2.187 0-3.429.621-3.429 2.079 0 1.404 1.242 2.052 3.429 2.052Zm26.734-9.045v4.239c0 2.808-1.458 4.887-4.509 4.887-2.997 0-4.482-2.079-4.482-4.887v-4.239c0-2.781 1.485-4.86 4.482-4.86 3.051 0 4.509 2.079 4.509 4.86Zm3.186-12.123h2.187v8.991h3.51v-9.153h2.16v23.139h-2.16v-12.069h-3.51v11.907h-2.187v-22.815Zm-5.346 16.362v-4.239c0-1.89-.891-2.943-2.349-2.943-1.485 0-2.268 1.053-2.268 2.943v4.239c0 1.917.783 2.97 2.268 2.97 1.458 0 2.349-1.053 2.349-2.97Zm-7.695-11.016v-1.917h4.293v-3.24h2.214v3.24h4.077v1.917h-10.584Zm27.517-4.968v5.049h13.662v-5.049h2.187v12.744c0 .594-.27.891-.864.891h-6.993v5.913h9.504v1.944h-21.06v-1.944h9.369v-5.913h-4.455c-.864 0-1.242-.189-1.728-.621l-1.161-1.026c-.513-.54-.675-.891-.675-1.728v-10.26h2.214Zm1.728 11.772h11.934v-4.887h-13.662v3.24c0 .432.108.648.297.81l.567.513c.216.243.513.324.864.324Zm24.79-.945c1.458 2.7 3.132 5.4 4.968 8.073l-1.674 1.026c-1.593-2.376-3.132-4.698-4.482-7.209a.78.78 0 0 1-.162-.459.814.814 0 0 1-.216.459 122.27 122.27 0 0 1-4.428 7.425l-1.701-1.053c1.782-2.7 3.375-5.481 4.833-8.262.216-.378.324-.702.324-1.107v-9.504h2.214v9.504c0 .405.135.756.324 1.107Zm7.02-11.205h2.16v22.815h-2.16v-12.825h-4.131v-1.863h4.131v-8.127Zm5.184 22.977v-23.139h2.187v23.139h-2.187Zm13.612-22.437h4.347c4.563 0 7.128 2.646 7.128 6.561 0 2.916-1.458 5.13-4.077 6.048v6.453h5.292v1.944h-21.06v-1.944h5.238v-6.507c-2.592-.945-4.05-3.105-4.05-5.994 0-3.942 2.646-6.561 7.182-6.561Zm.027 11.178h4.32c3.132 0 4.968-1.971 4.968-4.617 0-2.673-1.836-4.644-4.968-4.644h-4.347c-3.159 0-5.049 1.944-5.049 4.644 0 2.646 1.917 4.617 5.076 4.617Zm0 1.89c-.324 0-.621 0-.918-.027v6.021h6.075v-6.021c-.27.027-.567.027-.837.027h-4.32Zm16.232 8.289v-2.835h2.754v2.835h-2.754Z"/>
  </g>
</svg>