<svg width="390" height="130" viewBox="0 0 390 130" fill="none" xmlns="http://www.w3.org/2000/svg">
<g clip-path="url(#clip0_3872_23103)">
<rect width="390" height="130" fill="#F5F5F5"/>
<g filter="url(#filter0_b_3872_23103)">
<path d="M162 22.4099C162 13.8993 168.899 7 177.41 7H241.515C250.026 7 256.925 13.8993 256.925 22.4099V54.0516C256.925 62.5623 250.026 69.4616 241.515 69.4616H177.41C168.899 69.4616 162 62.5623 162 54.0516V22.4099Z" fill="white" fill-opacity="0.1"/>
</g>
<g opacity="0.5" filter="url(#filter1_bd_3872_23103)">
<path d="M162 22.4099C162 13.8993 168.899 7 177.41 7H241.515C250.026 7 256.925 13.8993 256.925 22.4099V54.0516C256.925 62.5623 250.026 69.4616 241.515 69.4616H177.41C168.899 69.4616 162 62.5623 162 54.0516V22.4099Z" fill="url(#paint0_radial_3872_23103)" shape-rendering="crispEdges"/>
</g>
<path d="M180.082 27.6488C180.082 26.6843 180.864 25.9023 181.829 25.9023H237.099C238.063 25.9023 238.845 26.6843 238.845 27.6488C238.845 28.6133 238.063 29.3953 237.099 29.3953H181.829C180.864 29.3953 180.082 28.6133 180.082 27.6488Z" fill="#C6CEEB" fill-opacity="0.8"/>
<path d="M180.082 37.9222C180.082 36.9577 180.864 36.1758 181.829 36.1758H237.099C238.063 36.1758 238.845 36.9577 238.845 37.9222C238.845 38.8868 238.063 39.6687 237.099 39.6687H181.829C180.864 39.6687 180.082 38.8868 180.082 37.9222Z" fill="#D6DDF3" fill-opacity="0.5"/>
<path d="M180.082 48.1976C180.082 47.2331 180.864 46.4512 181.829 46.4512H221.689C222.653 46.4512 223.435 47.2331 223.435 48.1976C223.435 49.1622 222.653 49.9441 221.689 49.9441H181.829C180.864 49.9441 180.082 49.1622 180.082 48.1976Z" fill="#D6DDF3" fill-opacity="0.34"/>
<path d="M37.32 48.872H40.32V69.44H37.32V59.624H33.624V61.904C33.624 65.528 31.8 67.928 28.248 67.928C24.72 67.928 22.968 65.528 22.968 61.904V54.896C22.968 51.248 24.744 48.824 28.248 48.824C31.8 48.824 33.624 51.248 33.624 54.896V56.984H37.32V48.872ZM30.528 61.904V54.896C30.528 52.544 29.616 51.536 28.248 51.536C26.952 51.536 26.016 52.544 26.016 54.896V61.904C26.016 64.256 26.928 65.264 28.248 65.264C29.616 65.264 30.528 64.256 30.528 61.904ZM51.7958 59.36C53.1398 61.472 54.7238 63.608 56.4038 65.672L54.2918 67.568C52.7318 65.648 51.1238 63.632 49.8518 61.592C49.7558 61.448 49.6358 61.208 49.6118 61.016C49.5638 61.232 49.4678 61.448 49.3718 61.592C48.0758 63.704 46.6358 65.768 45.0758 67.784L42.8678 65.936C44.4518 63.848 45.9638 61.664 47.4278 59.312C47.8358 58.616 48.0278 57.632 48.0278 56.624V49.304H51.1718V56.624C51.1718 57.656 51.3398 58.616 51.7958 59.36ZM58.3718 48.872H61.4438V69.44H58.3718V58.592H54.2678V55.856H58.3718V48.872ZM75.1421 48.968C78.7421 48.968 80.9981 51.44 80.9981 54.32V55.52C80.9981 57.944 79.4141 60.104 76.8221 60.752V64.568H81.9581V67.28H68.7821V64.568H73.7741V60.824C71.0141 60.272 69.3341 58.04 69.3341 55.52V54.32C69.3341 51.44 71.5661 48.968 75.1421 48.968ZM83.2781 48.872H86.3741V56.72H89.1581V59.432H86.3741V69.44H83.2781V48.872ZM77.9501 55.616V54.248C77.9501 52.784 76.7501 51.608 75.1421 51.608C73.5821 51.608 72.3821 52.784 72.3821 54.248V55.616C72.3821 57.08 73.5821 58.304 75.1421 58.304C76.7501 58.304 77.9501 57.08 77.9501 55.616ZM91.9699 63.008L91.5619 49.424L95.0659 49.448L94.6099 63.008H91.9699ZM91.6099 68.24V65.048H94.8739V68.24H91.6099ZM40.008 84.528V92.664C40.008 94.752 39.96 95.208 38.952 97.536L36.12 96.96C36.84 95.184 36.912 94.464 36.912 92.712V86.352H23.544V83.616H39.144C39.744 83.616 40.008 83.928 40.008 84.528ZM29.28 91.176H32.376V100.032H40.968V102.72H22.512V100.032H29.28V91.176ZM46.0118 96.096H59.4278C60.1478 96.096 60.5798 96.528 60.5798 97.248V102.552C60.5798 103.272 60.1478 103.704 59.4278 103.704H46.0118C45.3158 103.704 44.8598 103.272 44.8598 102.552V97.248C44.8598 96.528 45.3158 96.096 46.0118 96.096ZM55.5398 87.432H50.9558V88.248C50.9558 88.872 51.1718 89.328 51.6518 89.712C52.8758 90.72 54.6758 91.944 56.0198 92.688L54.5558 94.992C53.0198 94.104 50.9558 92.64 49.8518 91.728C49.6358 91.536 49.4918 91.344 49.3478 91.128C49.2758 91.344 48.9878 91.632 48.7718 91.776C47.6678 92.736 45.7478 94.152 44.2598 94.992L42.7478 92.736C44.1158 91.92 45.8438 90.648 46.9958 89.712C47.5478 89.304 47.7158 88.872 47.7158 88.248V87.432H43.0838V84.84H47.7878V82.536H50.9078V84.84H55.5398V87.432ZM57.5078 82.872H60.5798V87.456H63.3638V90.072H60.5798V94.944H57.5078V82.872ZM47.9318 101.088H57.5318V98.688H47.9318V101.088ZM83.2155 95.688H64.7595V93H83.2155V95.688ZM69.7275 100.824H82.4235V103.488H68.7915C67.8555 103.488 67.5435 103.296 67.0155 102.768L66.4875 102.24C65.9355 101.688 65.8155 101.376 65.8155 100.32V96.984H68.9115V99.936C68.9115 100.128 68.9355 100.224 69.0795 100.368L69.3435 100.68C69.4635 100.776 69.5595 100.824 69.7275 100.824ZM71.1675 83.016H76.8315C80.6475 83.016 82.4235 84.72 82.4235 87.168C82.4235 89.64 80.6475 91.32 76.8315 91.32H71.1675C67.3755 91.32 65.5995 89.64 65.5995 87.168C65.5995 84.72 67.3755 83.016 71.1675 83.016ZM70.9995 88.728H76.9995C78.6555 88.728 79.3035 88.08 79.3035 87.168C79.3035 86.28 78.6555 85.632 76.9995 85.632H70.9995C69.3435 85.632 68.6955 86.28 68.6955 87.168C68.6955 88.08 69.3435 88.728 70.9995 88.728ZM98.6659 94.152C100.082 96.096 101.378 97.776 103.178 99.768L101.162 101.592C99.5059 99.744 98.0419 97.896 96.7699 96.12C96.5539 95.904 96.4339 95.712 96.4099 95.472C96.3619 95.712 96.2419 95.88 96.0979 96.12C94.8259 97.896 93.3379 99.816 91.7539 101.712L89.5939 99.936C91.2499 98.088 92.7859 96.192 94.2019 94.152C94.7299 93.432 94.8499 93.072 94.8499 91.968V88.272H90.1459V85.56H94.8739V82.728H97.9699V85.56H102.602V88.272H97.9939V91.968C97.9939 93.072 98.1139 93.432 98.6659 94.152ZM105.29 82.872H108.362V103.44H105.29V93.408H101.042V90.696H105.29V82.872ZM130.134 94.728H111.678V92.16H130.134V94.728ZM115.662 100.896H126.174V98.784H115.662V100.896ZM113.814 96.216H128.022C128.742 96.216 129.174 96.648 129.174 97.368V102.336C129.174 103.032 128.742 103.488 128.022 103.488H113.814C113.094 103.488 112.662 103.032 112.662 102.336V97.368C112.662 96.648 113.094 96.216 113.814 96.216ZM118.038 82.824H123.798C127.614 82.824 129.342 84.48 129.342 86.808C129.342 89.112 127.614 90.768 123.798 90.768H118.038C114.246 90.768 112.518 89.112 112.518 86.808C112.518 84.48 114.246 82.824 118.038 82.824ZM117.918 88.152H123.918C125.526 88.152 126.126 87.6 126.126 86.808C126.126 86.016 125.526 85.44 123.918 85.44H117.918C116.286 85.44 115.71 86.016 115.71 86.808C115.71 87.6 116.286 88.152 117.918 88.152ZM147.537 82.872H150.609V103.44H147.537V82.872ZM138.585 82.824C142.185 82.824 143.985 85.248 143.985 88.896V95.904C143.985 99.528 142.185 101.928 138.585 101.928C135.009 101.928 133.257 99.528 133.257 95.904V88.896C133.257 85.248 135.033 82.824 138.585 82.824ZM140.889 95.904V88.896C140.889 86.544 139.977 85.536 138.585 85.536C137.265 85.536 136.329 86.544 136.329 88.896V95.904C136.329 98.256 137.241 99.264 138.585 99.264C139.977 99.264 140.889 98.256 140.889 95.904ZM166.021 86.136H161.461V90.6C161.461 91.608 161.677 92.568 162.133 93.312C163.477 95.424 164.989 97.536 166.645 99.672L164.533 101.568C162.997 99.6 161.461 97.584 160.141 95.544C160.069 95.4 159.949 95.16 159.925 94.968C159.877 95.208 159.781 95.4 159.685 95.544C158.365 97.656 156.925 99.72 155.341 101.736L153.109 99.888C154.717 97.8 156.253 95.616 157.717 93.264C158.125 92.568 158.365 91.584 158.365 90.576V86.136H153.661V83.448H166.021V86.136ZM168.661 82.872H171.733V103.44H168.661V82.872ZM177.737 88.848L174.809 88.416C175.025 85.392 176.849 82.776 181.049 82.776C184.865 82.776 187.145 85.272 187.145 87.816V88.32C187.145 90.12 186.017 91.896 183.593 93.12C182.369 93.744 181.865 94.488 181.865 95.448V97.008H178.937V95.4C178.937 93.432 179.369 92.28 181.049 91.464C182.729 90.696 183.809 89.544 183.809 88.224V87.888C183.809 86.736 182.873 85.44 181.049 85.44C178.793 85.44 177.809 87.048 177.737 88.848ZM178.745 102.24V99.048H181.985V102.24H178.745Z" fill="#424242"/>
<path d="M28.4023 27.7793C28.3991 28.2839 28.391 28.7152 28.3779 29.0732C28.3682 29.4281 28.3389 29.8431 28.29 30.3184C28.2445 30.7936 28.1712 31.3079 28.0703 31.8613L27.1328 31.7637C27.237 31.2396 27.3135 30.7464 27.3623 30.2842C27.4111 29.8187 27.4404 29.4085 27.4502 29.0537C27.4632 28.6989 27.4714 28.2741 27.4746 27.7793V27.6719H22.1621V26.9199H28.4023V27.7793ZM21.3223 32.877H24.3594V29.791H25.2773V32.877H29.3008V33.6484H21.3223V32.877ZM34.284 30.9336H30.1238V26.8223H34.284V30.9336ZM33.366 30.1914V27.5742H31.032V30.1914H33.366ZM31.198 31.7539H32.1355V33.8047H37.1844V34.5664H31.198V31.7539ZM35.993 26.0898H36.9207V32.3594H35.993V26.0898ZM40.859 26.7051C41.3147 26.7051 41.7232 26.793 42.0846 26.9688C42.4459 27.1413 42.7291 27.387 42.9342 27.7061C43.1393 28.0218 43.2418 28.3815 43.2418 28.7852C43.2418 29.1888 43.1393 29.5501 42.9342 29.8691C42.7291 30.1849 42.4459 30.4323 42.0846 30.6113C41.7232 30.7871 41.3147 30.875 40.859 30.875C40.4033 30.875 39.9931 30.7871 39.6285 30.6113C39.2672 30.4323 38.984 30.1849 38.7789 29.8691C38.5771 29.5501 38.4762 29.1888 38.4762 28.7852C38.4762 28.3815 38.5771 28.0218 38.7789 27.7061C38.984 27.3903 39.2672 27.1445 39.6285 26.9688C39.9931 26.793 40.4033 26.7051 40.859 26.7051ZM38.0562 32.1934C39.1565 32.1934 40.1721 32.1755 41.1031 32.1396C42.0341 32.1038 42.9228 32.0241 43.7691 31.9004L43.8375 32.5742C42.9651 32.7435 42.0781 32.8509 41.1764 32.8965C40.2779 32.9421 39.277 32.9648 38.1734 32.9648L38.0562 32.1934ZM39.3941 28.7852C39.3909 29.0391 39.4511 29.2637 39.5748 29.459C39.7018 29.651 39.8759 29.8008 40.0973 29.9082C40.3219 30.0124 40.5758 30.0645 40.859 30.0645C41.1422 30.0645 41.3945 30.0124 41.6158 29.9082C41.8404 29.8008 42.0162 29.651 42.1432 29.459C42.2701 29.2637 42.3336 29.0391 42.3336 28.7852C42.3336 28.5345 42.2701 28.3132 42.1432 28.1211C42.0162 27.9258 41.8404 27.7744 41.6158 27.667C41.3912 27.5596 41.1389 27.5059 40.859 27.5059C40.5758 27.5059 40.3219 27.5596 40.0973 27.667C39.8759 27.7744 39.7018 27.9258 39.5748 28.1211C39.4511 28.3132 39.3909 28.5345 39.3941 28.7852ZM44.316 26.0801H45.2437V34.8496H44.316V26.0801ZM49.4164 27.8867C49.4164 28.2253 49.501 28.5492 49.6703 28.8584C49.8396 29.1644 50.0837 29.4362 50.4027 29.6738C50.725 29.9115 51.1059 30.0938 51.5453 30.2207L51.1156 30.9434C50.6176 30.8001 50.1846 30.5804 49.8168 30.2842C49.449 29.988 49.1658 29.638 48.9672 29.2344C48.7719 29.6771 48.487 30.0612 48.1127 30.3867C47.7383 30.709 47.294 30.9499 46.7797 31.1094L46.3305 30.3867C46.7699 30.2565 47.1524 30.0661 47.4779 29.8154C47.8067 29.5615 48.059 29.2686 48.2348 28.9365C48.4105 28.6045 48.4984 28.2546 48.4984 27.8867V27.7988H46.5941V27.0566H48.4984V26.041H49.4262V27.0566H51.3207V27.7988H49.4164V27.8867ZM47.6391 31.6367H53.225V34.7227H47.6391V31.6367ZM52.307 33.9707V32.3691H48.5473V33.9707H52.307ZM52.2973 26.0801H53.225V28.248H54.4945V29.0195H53.225V31.2461H52.2973V26.0801ZM61.9875 32.584H61.0598V30.5723H58.8234V29.8105H61.0598V28.6094H58.9455C58.6363 29.2865 58.1626 29.8773 57.5246 30.3818C56.8898 30.8831 56.1249 31.2754 55.2297 31.5586L54.8293 30.8262C55.4966 30.6113 56.0809 30.3395 56.5822 30.0107C57.0868 29.6787 57.4888 29.3011 57.7883 28.8779C58.0878 28.4548 58.2684 27.9974 58.3303 27.5059H55.2785V26.7637H59.341C59.341 27.125 59.2971 27.4896 59.2092 27.8574H61.0598V26.0898H61.9875V32.584ZM56.3527 31.9395H57.2902V33.8926H62.2121V34.6445H56.3527V31.9395ZM68.3309 28.3066C68.3309 28.8372 68.4236 29.3581 68.6092 29.8691C68.798 30.377 69.0617 30.8278 69.4002 31.2217C69.7387 31.6156 70.1277 31.9102 70.5672 32.1055L70.0008 32.8477C69.5125 32.6003 69.0844 32.2438 68.7166 31.7783C68.3488 31.3096 68.0672 30.7725 67.8719 30.167C67.6766 30.8083 67.3917 31.3796 67.0174 31.8809C66.6463 32.3789 66.2117 32.7565 65.7137 33.0137L65.1277 32.2617C65.5704 32.0501 65.9627 31.7376 66.3045 31.3242C66.6495 30.9076 66.9165 30.4355 67.1053 29.9082C67.2973 29.3776 67.3934 28.8438 67.3934 28.3066V26.8125H68.3309V28.3066ZM69.6004 28.9902H71.5535V26.0801H72.4715V34.8496H71.5535V29.7422H69.6004V28.9902ZM80.7652 34.8496H79.8375V26.0801H80.7652V34.8496ZM74.0074 26.8125H74.9352V29.0586H77.2887V26.8125H78.2066V32.75H74.0074V26.8125ZM77.2887 31.9883V29.791H74.9352V31.9883H77.2887ZM86.3051 27.3203C86.3051 27.7826 86.4532 28.2318 86.7494 28.668C87.0456 29.1042 87.4395 29.4769 87.9311 29.7861C88.4258 30.0921 88.9516 30.2956 89.5082 30.3965L89.0785 31.168C88.6098 31.0671 88.1622 30.901 87.7357 30.6699C87.3093 30.4388 86.9301 30.1572 86.598 29.8252C86.2693 29.4899 86.0121 29.1204 85.8266 28.7168C85.6378 29.1172 85.3773 29.485 85.0453 29.8203C84.7133 30.1523 84.334 30.4339 83.9076 30.665C83.4812 30.8962 83.0336 31.0638 82.5648 31.168L82.1547 30.3965C82.7048 30.2923 83.2224 30.0872 83.7074 29.7812C84.1957 29.472 84.588 29.1009 84.8842 28.668C85.1804 28.2318 85.3285 27.7826 85.3285 27.3203V26.6562H86.3051V27.3203ZM81.8617 32.9062H89.8695V33.6777H81.8617V32.9062ZM100.354 33.7168H92.3457V32.9551H95.8516V30.875H96.7695V32.9551H100.354V33.7168ZM92.6191 30.2695C93.1758 30.1751 93.6982 29.9798 94.1865 29.6836C94.6781 29.3874 95.0719 29.0293 95.3682 28.6094C95.6644 28.1862 95.8125 27.75 95.8125 27.3008V26.6367H96.7891V27.3008C96.7891 27.75 96.9372 28.1862 97.2334 28.6094C97.5329 29.0293 97.9284 29.3874 98.4199 29.6836C98.9147 29.9798 99.4421 30.1751 100.002 30.2695L99.6016 31.0312C99.1263 30.9368 98.6722 30.7806 98.2393 30.5625C97.8096 30.3444 97.4271 30.0742 97.0918 29.752C96.7565 29.4264 96.4945 29.0684 96.3057 28.6777C96.1169 29.0684 95.8548 29.4248 95.5195 29.7471C95.1875 30.0693 94.8066 30.3411 94.377 30.5625C93.9505 30.7806 93.5013 30.9368 93.0293 31.0312L92.6191 30.2695ZM108.179 34.8301H107.29V30.2891H106.206V34.4102H105.337V26.3145H106.206V29.5371H107.29V26.0801H108.179V34.8301ZM100.659 32.3301C101.596 31.7962 102.296 31.1663 102.759 30.4404C103.221 29.7145 103.489 28.8861 103.564 27.9551H101.03V27.1934H104.468C104.464 28.4401 104.214 29.5485 103.716 30.5186C103.218 31.4886 102.378 32.3073 101.196 32.9746L100.659 32.3301Z" fill="#424242"/>
<g filter="url(#filter2_b_3872_23103)">
<path d="M236.294 67.6348C236.294 55.423 246.194 45.5234 258.405 45.5234H350.192C362.404 45.5234 372.303 55.423 372.303 67.6348V113.037C372.303 125.249 362.404 135.148 350.192 135.148H258.405C246.194 135.148 236.294 125.249 236.294 113.037V67.6348Z" fill="white" fill-opacity="0.7"/>
</g>
<g opacity="0.5" filter="url(#filter3_bd_3872_23103)">
<path d="M236.294 67.6348C236.294 55.423 246.194 45.5234 258.405 45.5234H350.389C362.6 45.5234 372.5 55.423 372.5 67.6348V113.037C372.5 125.249 362.6 135.148 350.389 135.148H258.405C246.194 135.148 236.294 125.249 236.294 113.037V67.6348Z" fill="url(#paint1_radial_3872_23103)" shape-rendering="crispEdges"/>
</g>
<path d="M248.873 67.4301C248.873 62.9286 252.522 59.2793 257.024 59.2793H351.574C356.075 59.2793 359.725 62.9286 359.725 67.4301C359.725 71.9317 356.075 75.581 351.574 75.581H257.024C252.522 75.581 248.873 71.9317 248.873 67.4301Z" fill="#D6DDF3" fill-opacity="0.34"/>
<g clip-path="url(#clip1_3872_23103)">
<path d="M356.102 67.6117C356.102 70.2126 353.993 72.3211 351.393 72.3211C348.792 72.3211 346.683 70.2126 346.683 67.6117C346.683 65.0108 348.792 62.9023 351.393 62.9023C353.993 62.9023 356.102 65.0108 356.102 67.6117Z" fill="white" fill-opacity="0.7"/>
<path fill-rule="evenodd" clip-rule="evenodd" d="M353.903 65.6897C353.99 65.7759 353.99 65.9156 353.903 66.0018L350.666 69.2395C350.579 69.3258 350.44 69.3258 350.353 69.2395L348.882 67.7679C348.796 67.6817 348.796 67.5419 348.882 67.4557C348.968 67.3695 349.108 67.3695 349.194 67.4557L350.51 68.7713L353.591 65.6897C353.677 65.6034 353.817 65.6034 353.903 65.6897Z" fill="#C6CEEB" fill-opacity="0.8"/>
<path fill-rule="evenodd" clip-rule="evenodd" d="M353.452 65.55C353.615 65.387 353.879 65.387 354.042 65.55C354.205 65.7129 354.205 65.9771 354.042 66.1401L353.903 66.0011L354.042 66.1401L350.805 69.3778C350.642 69.5408 350.377 69.5408 350.214 69.3778L348.743 67.9061C348.58 67.7432 348.58 67.4789 348.743 67.316L348.88 67.4536L348.743 67.316C348.906 67.153 349.17 67.153 349.333 67.316L350.51 68.4926L353.452 65.55ZM353.764 65.8279C353.755 65.8185 353.74 65.8185 353.73 65.8279L353.593 65.6904L353.73 65.8279L350.649 68.9095C350.612 68.9464 350.562 68.9671 350.51 68.9671C350.457 68.9671 350.407 68.9464 350.371 68.9095L349.055 67.5939C349.046 67.5845 349.03 67.5845 349.021 67.5939C349.011 67.6034 349.011 67.6187 349.021 67.6282L350.492 69.0998C350.502 69.1093 350.517 69.1093 350.527 69.0998L353.764 65.8621C353.774 65.8527 353.774 65.8374 353.764 65.8279Z" fill="#C6CEEB" fill-opacity="0.8"/>
</g>
<g opacity="0.7">
<path d="M248.873 90.4165C248.873 85.9149 252.522 82.2656 257.024 82.2656H351.574C356.075 82.2656 359.725 85.9149 359.725 90.4165C359.725 94.9181 356.075 98.5673 351.574 98.5673H257.024C252.522 98.5673 248.873 94.9181 248.873 90.4165Z" fill="#D6DDF3" fill-opacity="0.34"/>
<g clip-path="url(#clip2_3872_23103)">
<path d="M356.102 90.5981C356.102 93.199 353.993 95.3074 351.393 95.3074C348.792 95.3074 346.683 93.199 346.683 90.5981C346.683 87.9971 348.792 85.8887 351.393 85.8887C353.993 85.8887 356.102 87.9971 356.102 90.5981Z" fill="white" fill-opacity="0.7"/>
<path fill-rule="evenodd" clip-rule="evenodd" d="M353.903 88.676C353.99 88.7622 353.99 88.902 353.903 88.9882L350.666 92.2259C350.579 92.3121 350.44 92.3121 350.353 92.2259L348.882 90.7542C348.796 90.668 348.796 90.5282 348.882 90.442C348.968 90.3558 349.108 90.3558 349.194 90.442L350.51 91.7576L353.591 88.676C353.677 88.5898 353.817 88.5898 353.903 88.676Z" fill="#C6CEEB" fill-opacity="0.8"/>
<path fill-rule="evenodd" clip-rule="evenodd" d="M353.452 88.5363C353.615 88.3733 353.879 88.3733 354.042 88.5363C354.205 88.6993 354.205 88.9635 354.042 89.1264L353.903 88.9875L354.042 89.1264L350.805 92.3641C350.642 92.5271 350.377 92.5271 350.214 92.3641L348.743 90.8925C348.58 90.7295 348.58 90.4653 348.743 90.3023L348.88 90.4399L348.743 90.3023C348.906 90.1393 349.17 90.1393 349.333 90.3023L350.51 91.4789L353.452 88.5363ZM353.764 88.8142C353.755 88.8048 353.74 88.8048 353.73 88.8142L353.593 88.6768L353.73 88.8142L350.649 91.8958C350.612 91.9327 350.562 91.9534 350.51 91.9534C350.457 91.9534 350.407 91.9327 350.371 91.8958L349.055 90.5803C349.046 90.5708 349.03 90.5708 349.021 90.5803C349.011 90.5897 349.011 90.605 349.021 90.6145L350.492 92.0862C350.502 92.0956 350.517 92.0956 350.527 92.0862L353.764 88.8485C353.774 88.839 353.774 88.8237 353.764 88.8142Z" fill="#C6CEEB" fill-opacity="0.8"/>
</g>
</g>
<g opacity="0.5">
<path d="M248.873 113.403C248.873 108.901 252.522 105.252 257.024 105.252H351.574C356.075 105.252 359.725 108.901 359.725 113.403C359.725 117.904 356.075 121.554 351.574 121.554H257.024C252.522 121.554 248.873 117.904 248.873 113.403Z" fill="#D6DDF3" fill-opacity="0.34"/>
<g clip-path="url(#clip3_3872_23103)">
<path d="M356.102 113.584C356.102 116.185 353.993 118.294 351.393 118.294C348.792 118.294 346.683 116.185 346.683 113.584C346.683 110.983 348.792 108.875 351.393 108.875C353.993 108.875 356.102 110.983 356.102 113.584Z" fill="white" fill-opacity="0.7"/>
<path fill-rule="evenodd" clip-rule="evenodd" d="M353.903 111.662C353.99 111.749 353.99 111.888 353.903 111.975L350.666 115.212C350.579 115.298 350.44 115.298 350.353 115.212L348.882 113.741C348.796 113.654 348.796 113.515 348.882 113.428C348.968 113.342 349.108 113.342 349.194 113.428L350.51 114.744L353.591 111.662C353.677 111.576 353.817 111.576 353.903 111.662Z" fill="#C6CEEB" fill-opacity="0.8"/>
<path fill-rule="evenodd" clip-rule="evenodd" d="M353.452 111.523C353.615 111.36 353.879 111.36 354.042 111.523C354.205 111.686 354.205 111.95 354.042 112.113L353.903 111.974L354.042 112.113L350.805 115.35C350.642 115.513 350.377 115.513 350.214 115.35L348.743 113.879C348.58 113.716 348.58 113.452 348.743 113.289L348.88 113.426L348.743 113.289C348.906 113.126 349.17 113.126 349.333 113.289L350.51 114.465L353.452 111.523ZM353.764 111.801C353.755 111.791 353.74 111.791 353.73 111.801L353.593 111.663L353.73 111.801L350.649 114.882C350.612 114.919 350.562 114.94 350.51 114.94C350.457 114.94 350.407 114.919 350.371 114.882L349.055 113.567C349.046 113.557 349.03 113.557 349.021 113.567C349.011 113.576 349.011 113.591 349.021 113.601L350.492 115.073C350.502 115.082 350.517 115.082 350.527 115.073L353.764 111.835C353.774 111.825 353.774 111.81 353.764 111.801Z" fill="#C6CEEB" fill-opacity="0.8"/>
</g>
</g>
<path d="M331.404 26C330.946 26 330.616 25.9075 330.413 25.7224C330.219 25.5286 330.114 25.2906 330.096 25.0087C329.999 25.3083 329.792 25.5726 329.475 25.8017C329.166 26.022 328.717 26.1322 328.126 26.1322C327.783 26.1322 327.448 26.0661 327.122 25.9339C326.796 25.7929 326.505 25.5638 326.249 25.2466C325.994 24.9293 325.787 24.5064 325.628 23.9777C325.478 23.4489 325.404 22.7925 325.404 22.0082C325.404 21.7086 325.421 21.3649 325.456 20.9772C325.492 20.5807 325.562 20.1797 325.668 19.7744C325.782 19.3602 325.941 18.9593 326.144 18.5715C326.355 18.175 326.628 17.8225 326.963 17.5141C327.307 17.2057 327.725 16.959 328.219 16.7739C328.712 16.58 329.303 16.4831 329.99 16.4831C330.44 16.4831 330.841 16.5316 331.193 16.6285C331.554 16.7254 331.858 16.862 332.105 17.0383C332.361 17.2145 332.554 17.4304 332.687 17.6859C332.828 17.9415 332.898 18.2279 332.898 18.5451C332.898 19.0562 332.731 19.4439 332.396 19.7083C332.061 19.9638 331.59 20.0916 330.981 20.0916C330.788 20.0916 330.669 20.0784 330.625 20.0519C330.589 20.0167 330.567 19.9506 330.559 19.8537C330.541 19.6951 330.528 19.5364 330.519 19.3778C330.519 19.2192 330.497 19.0738 330.453 18.9416C330.418 18.8095 330.351 18.7037 330.255 18.6244C330.158 18.5451 330.003 18.5054 329.792 18.5054C329.36 18.5054 329.016 18.6288 328.761 18.8755C328.505 19.1223 328.311 19.4219 328.179 19.7744C328.047 20.1268 327.963 20.4925 327.928 20.8715C327.893 21.2416 327.875 21.5544 327.875 21.8099C327.875 22.2329 327.902 22.5898 327.955 22.8806C328.007 23.1626 328.082 23.3961 328.179 23.5811C328.285 23.7574 328.408 23.8851 328.549 23.9644C328.69 24.0349 328.853 24.0702 329.038 24.0702C329.373 24.0702 329.655 23.9997 329.884 23.8587C330.114 23.7177 330.25 23.4622 330.294 23.0921L330.373 22.3519C330.4 22.0963 330.435 21.8892 330.479 21.7306C330.523 21.5632 330.629 21.4795 330.796 21.4795H331.523C331.744 21.4795 331.92 21.5059 332.052 21.5588C332.193 21.6028 332.299 21.6822 332.369 21.7967C332.449 21.9024 332.502 22.0434 332.528 22.2197C332.554 22.3959 332.568 22.6118 332.568 22.8674C332.568 23.0436 332.559 23.2771 332.541 23.5679C332.532 23.8587 332.515 24.1539 332.488 24.4535C332.471 24.7531 332.449 25.0307 332.422 25.2862C332.396 25.533 332.374 25.7048 332.356 25.8017C332.339 25.881 332.317 25.9339 332.29 25.9603C332.264 25.9868 332.211 26 332.131 26H331.404ZM336.755 26.1322C336.147 26.1322 335.64 26.0485 335.235 25.881C334.838 25.7048 334.521 25.4669 334.283 25.1673C334.045 24.8677 333.878 24.5196 333.781 24.1231C333.684 23.7177 333.635 23.2859 333.635 22.8277C333.635 22.299 333.697 21.7835 333.82 21.2812C333.952 20.7701 334.173 20.3163 334.481 19.9198C334.79 19.5232 335.195 19.206 335.697 18.9681C336.208 18.7213 336.843 18.598 337.601 18.598C338.711 18.598 339.504 18.8711 339.98 19.4175C340.464 19.955 340.707 20.7128 340.707 21.691C340.707 21.9641 340.685 22.2681 340.641 22.603C340.605 22.929 340.531 23.2551 340.416 23.5811C340.31 23.9072 340.16 24.2244 339.967 24.5328C339.782 24.8412 339.544 25.1144 339.253 25.3523C338.962 25.5902 338.61 25.7797 338.195 25.9207C337.79 26.0617 337.31 26.1322 336.755 26.1322ZM337.376 20.356C337.041 20.356 336.772 20.4441 336.57 20.6203C336.376 20.7877 336.226 20.9948 336.12 21.2416C336.023 21.4795 335.957 21.735 335.922 22.0082C335.895 22.2726 335.882 22.4973 335.882 22.6823C335.882 23.2639 335.975 23.6913 336.16 23.9644C336.345 24.2376 336.609 24.3742 336.953 24.3742C337.261 24.3742 337.512 24.2773 337.706 24.0834C337.909 23.8895 338.063 23.656 338.169 23.3829C338.283 23.1097 338.358 22.8233 338.394 22.5237C338.438 22.2241 338.46 21.9729 338.46 21.7703C338.46 21.3297 338.376 20.986 338.209 20.7393C338.05 20.4837 337.772 20.356 337.376 20.356ZM345.791 24.0702C346.152 24.0702 346.456 24.0173 346.703 23.9116C346.959 23.8058 347.175 23.6869 347.351 23.5547C347.527 23.4225 347.681 23.3035 347.813 23.1978C347.954 23.0921 348.095 23.0392 348.236 23.0392C348.413 23.0392 348.501 23.1714 348.501 23.4357C348.501 23.5767 348.483 23.7485 348.448 23.9512C348.413 24.1451 348.364 24.3654 348.303 24.6121C348.267 24.7619 348.179 24.9249 348.038 25.1012C347.906 25.2774 347.721 25.4448 347.483 25.6035C347.245 25.7533 346.95 25.881 346.597 25.9868C346.254 26.0837 345.857 26.1322 345.408 26.1322C344.958 26.1322 344.509 26.0661 344.06 25.9339C343.61 25.8017 343.209 25.577 342.857 25.2598C342.504 24.9426 342.218 24.5152 341.998 23.9777C341.777 23.4401 341.667 22.766 341.667 21.9553C341.667 21.6645 341.685 21.3297 341.72 20.9508C341.764 20.563 341.843 20.1665 341.958 19.7611C342.072 19.3558 342.231 18.9593 342.434 18.5715C342.645 18.175 342.914 17.8225 343.24 17.5141C343.566 17.2057 343.963 16.959 344.43 16.7739C344.906 16.58 345.469 16.4831 346.122 16.4831C346.641 16.4831 347.091 16.5448 347.47 16.6682C347.858 16.7915 348.175 16.9634 348.421 17.1837C348.677 17.3951 348.862 17.6463 348.977 17.9371C349.1 18.2279 349.162 18.5363 349.162 18.8623C349.162 19.4263 348.994 19.8405 348.659 20.1048C348.333 20.3604 347.866 20.4881 347.258 20.4881C347.064 20.4881 346.941 20.4749 346.888 20.4485C346.844 20.4132 346.822 20.3471 346.822 20.2502C346.813 19.9506 346.804 19.6907 346.796 19.4704C346.787 19.2501 346.756 19.0694 346.703 18.9284C346.65 18.7786 346.567 18.6729 346.452 18.6112C346.346 18.5407 346.196 18.5054 346.003 18.5054C345.721 18.5054 345.478 18.5671 345.276 18.6905C345.082 18.8051 344.914 18.9593 344.773 19.1531C344.641 19.3382 344.531 19.5497 344.443 19.7876C344.364 20.0255 344.298 20.2678 344.245 20.5146C344.201 20.7613 344.17 20.9992 344.152 21.2283C344.143 21.4574 344.139 21.6557 344.139 21.8231C344.139 22.6338 344.271 23.211 344.535 23.5547C344.809 23.8984 345.227 24.0702 345.791 24.0702ZM354.24 24.361C354.266 24.0702 354.293 23.7662 354.319 23.4489C354.354 23.1317 354.381 22.8277 354.398 22.5369C354.425 22.2461 354.447 21.9862 354.465 21.7571C354.482 21.5279 354.491 21.3605 354.491 21.2548C354.491 21.0257 354.434 20.823 354.319 20.6467C354.213 20.4617 354.002 20.3692 353.685 20.3692C353.262 20.3692 352.918 20.5674 352.654 20.964C352.398 21.3605 352.248 21.8892 352.204 22.5501C352.187 22.7352 352.165 22.9951 352.138 23.33C352.112 23.656 352.085 23.9909 352.059 24.3345C352.032 24.6694 352.006 24.9734 351.98 25.2466C351.962 25.5109 351.953 25.674 351.953 25.7356C351.953 25.8414 351.931 25.9119 351.887 25.9471C351.852 25.9824 351.777 26 351.662 26H351.187C350.913 26 350.689 25.9736 350.512 25.9207C350.345 25.859 350.208 25.7753 350.103 25.6696C350.006 25.5638 349.935 25.436 349.891 25.2862C349.856 25.1276 349.838 24.947 349.838 24.7443C349.838 24.5504 349.852 24.2817 349.878 23.938C349.913 23.5855 349.957 23.1053 350.01 22.4973C350.063 21.8804 350.125 21.0962 350.195 20.1445C350.266 19.1928 350.341 18.012 350.42 16.6021C350.429 16.4082 350.451 16.2936 350.486 16.2584C350.512 16.232 350.583 16.2187 350.697 16.2187H351.213C351.477 16.2187 351.698 16.2496 351.874 16.3113C352.05 16.373 352.191 16.4567 352.297 16.5624C352.403 16.6682 352.477 16.7915 352.522 16.9325C352.566 17.0647 352.588 17.2057 352.588 17.3555C352.588 17.5141 352.57 17.8093 352.535 18.2411C352.508 18.6729 352.473 19.1796 352.429 19.7611C352.693 19.3206 352.984 19.0165 353.301 18.8491C353.627 18.6817 354.037 18.598 354.531 18.598C354.901 18.598 355.222 18.6376 355.496 18.7169C355.769 18.7962 355.993 18.9328 356.17 19.1267C356.355 19.3117 356.491 19.5585 356.579 19.8669C356.668 20.1665 356.712 20.541 356.712 20.9904C356.712 21.1314 356.698 21.3737 356.672 21.7174C356.646 22.0611 356.61 22.4532 356.566 22.8938C356.531 23.3344 356.491 23.797 356.447 24.2817C356.412 24.7575 356.381 25.1937 356.355 25.5902C356.346 25.6872 356.337 25.7621 356.328 25.8149C356.319 25.8678 356.302 25.9075 356.275 25.9339C356.258 25.9603 356.227 25.978 356.183 25.9868C356.139 25.9956 356.077 26 355.998 26H355.575C355.293 26 355.064 25.9736 354.888 25.9207C354.711 25.8678 354.575 25.7929 354.478 25.696C354.381 25.5991 354.31 25.4801 354.266 25.3391C354.231 25.1893 354.213 25.0219 354.213 24.8368C354.213 24.7487 354.213 24.665 354.213 24.5857C354.222 24.5064 354.231 24.4315 354.24 24.361ZM357.497 24.3742C357.497 23.5811 357.854 22.9599 358.567 22.5105C359.281 22.0611 360.334 21.8187 361.726 21.7835C361.735 21.6866 361.74 21.6072 361.74 21.5456C361.748 21.4751 361.753 21.3914 361.753 21.2944C361.753 21.0124 361.7 20.7877 361.594 20.6203C361.489 20.4529 361.268 20.3692 360.933 20.3692C360.748 20.3692 360.599 20.3956 360.484 20.4485C360.369 20.5014 360.277 20.5763 360.206 20.6732C360.136 20.7613 360.079 20.8715 360.035 21.0036C359.99 21.1358 359.951 21.2812 359.916 21.4398C359.898 21.5191 359.858 21.572 359.797 21.5984C359.735 21.6161 359.638 21.6249 359.506 21.6249C358.607 21.6249 358.158 21.2856 358.158 20.6071C358.158 20.3339 358.219 20.074 358.343 19.8272C358.475 19.5805 358.664 19.369 358.911 19.1928C359.167 19.0077 359.484 18.8623 359.863 18.7566C360.242 18.6508 360.682 18.598 361.185 18.598C362.163 18.598 362.872 18.8006 363.313 19.206C363.753 19.6113 363.973 20.1841 363.973 20.9243C363.973 21.0213 363.96 21.1975 363.934 21.453C363.916 21.6998 363.89 21.9641 363.855 22.2461C363.828 22.5193 363.802 22.7792 363.775 23.026C363.758 23.2727 363.749 23.4445 363.749 23.5415C363.749 23.7618 363.788 23.9204 363.868 24.0173C363.947 24.1054 364.035 24.1671 364.132 24.2024C364.238 24.2376 364.33 24.264 364.41 24.2817C364.489 24.2993 364.529 24.3434 364.529 24.4139C364.529 24.6077 364.502 24.806 364.449 25.0087C364.396 25.2113 364.308 25.3964 364.185 25.5638C364.07 25.7312 363.907 25.8678 363.696 25.9736C363.493 26.0793 363.242 26.1322 362.942 26.1322C362.52 26.1322 362.202 26.0308 361.991 25.8282C361.779 25.6255 361.638 25.3435 361.568 24.9822C361.356 25.2906 361.079 25.5594 360.735 25.7885C360.4 26.0176 359.96 26.1322 359.413 26.1322C359.149 26.1322 358.898 26.1013 358.66 26.0397C358.431 25.978 358.228 25.8766 358.052 25.7356C357.884 25.5947 357.748 25.414 357.642 25.1937C357.545 24.9646 357.497 24.6914 357.497 24.3742ZM361.607 22.8674C361.378 22.8674 361.154 22.885 360.933 22.9202C360.713 22.9555 360.515 23.0128 360.339 23.0921C360.171 23.1626 360.035 23.2595 359.929 23.3829C359.823 23.5062 359.77 23.656 359.77 23.8323C359.77 24.0349 359.832 24.1759 359.955 24.2552C360.087 24.3345 360.228 24.3742 360.378 24.3742C360.519 24.3742 360.66 24.3434 360.801 24.2817C360.942 24.22 361.066 24.1275 361.171 24.0041C361.286 23.8719 361.383 23.7133 361.462 23.5283C361.541 23.3432 361.59 23.1229 361.607 22.8674ZM367.628 23.6208C367.601 24.0261 367.571 24.4139 367.535 24.784C367.5 25.1452 367.474 25.4625 367.456 25.7356C367.447 25.8414 367.425 25.9119 367.39 25.9471C367.355 25.9824 367.28 26 367.165 26H366.689C366.416 26 366.192 25.9736 366.015 25.9207C365.848 25.859 365.711 25.7753 365.606 25.6696C365.509 25.5638 365.438 25.436 365.394 25.2862C365.359 25.1276 365.341 24.947 365.341 24.7443C365.341 24.6121 365.346 24.4271 365.354 24.1891C365.372 23.9424 365.399 23.6076 365.434 23.1846C365.469 22.7528 365.509 22.2109 365.553 21.5588C365.606 20.8979 365.667 20.0828 365.738 19.1135C365.747 18.9196 365.769 18.8051 365.804 18.7698C365.83 18.7434 365.901 18.7302 366.015 18.7302H366.531C366.795 18.7302 367.011 18.761 367.179 18.8227C367.346 18.8844 367.483 18.9637 367.588 19.0606C367.694 19.1575 367.769 19.2721 367.813 19.4043C367.857 19.5364 367.883 19.673 367.892 19.814C368.148 19.3382 368.439 19.0165 368.765 18.8491C369.091 18.6817 369.474 18.598 369.915 18.598C370.153 18.598 370.382 18.62 370.602 18.6641C370.822 18.7081 371.021 18.783 371.197 18.8888C371.373 18.9945 371.523 19.1355 371.646 19.3117C371.77 19.4792 371.858 19.6951 371.911 19.9594C372.184 19.4483 372.483 19.0958 372.809 18.902C373.135 18.6993 373.545 18.598 374.039 18.598C374.312 18.598 374.572 18.6288 374.818 18.6905C375.074 18.7434 375.294 18.8403 375.479 18.9813C375.664 19.1223 375.81 19.3161 375.916 19.5629C376.03 19.8008 376.087 20.1004 376.087 20.4617C376.087 20.7349 376.074 21.0697 376.048 21.4663C376.021 21.8628 375.99 22.2946 375.955 22.7616C375.92 23.2198 375.88 23.6957 375.836 24.1891C375.792 24.6738 375.757 25.1408 375.731 25.5902C375.722 25.6872 375.713 25.7621 375.704 25.8149C375.695 25.8678 375.678 25.9075 375.651 25.9339C375.634 25.9603 375.603 25.978 375.559 25.9868C375.515 25.9956 375.453 26 375.374 26H374.951C374.669 26 374.44 25.9736 374.263 25.9207C374.087 25.8678 373.95 25.7929 373.854 25.696C373.757 25.5991 373.686 25.4801 373.642 25.3391C373.607 25.1893 373.589 25.0219 373.589 24.8368C373.589 24.7223 373.594 24.5592 373.602 24.3478C373.62 24.1363 373.638 23.9072 373.655 23.6604C373.682 23.4137 373.704 23.1581 373.721 22.8938C373.748 22.6294 373.77 22.3871 373.787 22.1668C373.814 21.9377 373.832 21.7394 373.84 21.572C373.858 21.4046 373.867 21.2944 373.867 21.2416C373.867 21.0124 373.818 20.8098 373.721 20.6335C373.633 20.4573 373.457 20.3692 373.193 20.3692C372.964 20.3692 372.765 20.4441 372.598 20.5939C372.43 20.7437 372.289 20.9508 372.175 21.2151C372.06 21.4795 371.968 21.7923 371.897 22.1536C371.827 22.5149 371.778 22.907 371.752 23.33C371.734 23.6032 371.712 23.916 371.686 24.2685C371.659 24.6209 371.629 25.0615 371.593 25.5902C371.584 25.6872 371.576 25.7621 371.567 25.8149C371.558 25.8678 371.54 25.9075 371.514 25.9339C371.496 25.9603 371.466 25.978 371.421 25.9868C371.377 25.9956 371.316 26 371.236 26H370.813C370.531 26 370.302 25.9736 370.126 25.9207C369.95 25.8678 369.813 25.7929 369.716 25.696C369.619 25.5991 369.549 25.4801 369.505 25.3391C369.47 25.1893 369.452 25.0219 369.452 24.8368C369.452 24.6606 369.465 24.405 369.492 24.0702C369.527 23.7265 369.558 23.374 369.584 23.0128C369.619 22.6427 369.65 22.2946 369.677 21.9685C369.712 21.6337 369.73 21.3914 369.73 21.2416C369.73 21.0124 369.681 20.8098 369.584 20.6335C369.496 20.4573 369.32 20.3692 369.055 20.3692C368.818 20.3692 368.615 20.4573 368.447 20.6335C368.28 20.8098 368.139 21.0477 368.024 21.3473C367.919 21.6381 367.831 21.9818 367.76 22.3783C367.698 22.7748 367.654 23.189 367.628 23.6208Z" fill="#FF7860"/>
<path d="M317.713 26.5118C320.91 26.5118 323.501 23.9204 323.501 20.7237C323.501 17.527 320.91 14.9355 317.713 14.9355C314.517 14.9355 311.925 17.527 311.925 20.7237C311.925 23.9204 314.517 26.5118 317.713 26.5118Z" fill="#FF7860"/>
<path d="M319.917 25.5621C320.526 24.912 321.208 24.3353 321.951 23.8438C322.303 24.046 321.915 25.0082 322.507 25.5621C322.883 25.9137 323.418 25.7736 323.464 25.8886C323.511 26.0036 323.126 26.3248 322.46 26.4583C321.995 26.5253 321.521 26.4788 321.078 26.3227C320.635 26.1667 320.237 25.9057 319.917 25.5621Z" fill="#FF7860"/>
<path d="M317.774 22.5024C317.774 22.9928 317.518 23.1157 317.026 23.1157C316.534 23.1157 313.994 20.8092 313.925 20.3228C313.864 19.8972 314.524 19.3077 314.889 19.3433C315.373 19.3909 317.774 22.012 317.774 22.5024Z" fill="white"/>
<path d="M321.519 19.3767C321.396 19.8539 317.827 23.0923 317.337 23.0923C316.846 23.0923 316.748 22.9601 316.32 22.5173C316.165 22.3587 319.835 18.4396 320.48 18.3206C320.892 18.2439 321.64 18.9009 321.519 19.3767Z" fill="white"/>
</g>
<defs>
<filter id="filter0_b_3872_23103" x="62" y="-93" width="294.925" height="262.461" filterUnits="userSpaceOnUse" color-interpolation-filters="sRGB">
<feFlood flood-opacity="0" result="BackgroundImageFix"/>
<feGaussianBlur in="BackgroundImageFix" stdDeviation="50"/>
<feComposite in2="SourceAlpha" operator="in" result="effect1_backgroundBlur_3872_23103"/>
<feBlend mode="normal" in="SourceGraphic" in2="effect1_backgroundBlur_3872_23103" result="shape"/>
</filter>
<filter id="filter1_bd_3872_23103" x="156.773" y="1.77308" width="105.379" height="72.9148" filterUnits="userSpaceOnUse" color-interpolation-filters="sRGB">
<feFlood flood-opacity="0" result="BackgroundImageFix"/>
<feGaussianBlur in="BackgroundImageFix" stdDeviation="2.61346"/>
<feComposite in2="SourceAlpha" operator="in" result="effect1_backgroundBlur_3872_23103"/>
<feColorMatrix in="SourceAlpha" type="matrix" values="0 0 0 0 0 0 0 0 0 0 0 0 0 0 0 0 0 0 127 0" result="hardAlpha"/>
<feOffset dy="2.09077"/>
<feGaussianBlur stdDeviation="1.04539"/>
<feComposite in2="hardAlpha" operator="out"/>
<feColorMatrix type="matrix" values="0 0 0 0 0 0 0 0 0 0 0 0 0 0 0 0 0 0 0.25 0"/>
<feBlend mode="normal" in2="effect1_backgroundBlur_3872_23103" result="effect2_dropShadow_3872_23103"/>
<feBlend mode="normal" in="SourceGraphic" in2="effect2_dropShadow_3872_23103" result="shape"/>
</filter>
<filter id="filter2_b_3872_23103" x="136.294" y="-54.4766" width="336.009" height="289.625" filterUnits="userSpaceOnUse" color-interpolation-filters="sRGB">
<feFlood flood-opacity="0" result="BackgroundImageFix"/>
<feGaussianBlur in="BackgroundImageFix" stdDeviation="50"/>
<feComposite in2="SourceAlpha" operator="in" result="effect1_backgroundBlur_3872_23103"/>
<feBlend mode="normal" in="SourceGraphic" in2="effect1_backgroundBlur_3872_23103" result="shape"/>
</filter>
<filter id="filter3_bd_3872_23103" x="228.794" y="38.0234" width="151.206" height="104.625" filterUnits="userSpaceOnUse" color-interpolation-filters="sRGB">
<feFlood flood-opacity="0" result="BackgroundImageFix"/>
<feGaussianBlur in="BackgroundImageFix" stdDeviation="3.75"/>
<feComposite in2="SourceAlpha" operator="in" result="effect1_backgroundBlur_3872_23103"/>
<feColorMatrix in="SourceAlpha" type="matrix" values="0 0 0 0 0 0 0 0 0 0 0 0 0 0 0 0 0 0 127 0" result="hardAlpha"/>
<feOffset dy="3"/>
<feGaussianBlur stdDeviation="1.5"/>
<feComposite in2="hardAlpha" operator="out"/>
<feColorMatrix type="matrix" values="0 0 0 0 0 0 0 0 0 0 0 0 0 0 0 0 0 0 0.25 0"/>
<feBlend mode="normal" in2="effect1_backgroundBlur_3872_23103" result="effect2_dropShadow_3872_23103"/>
<feBlend mode="normal" in="SourceGraphic" in2="effect2_dropShadow_3872_23103" result="shape"/>
</filter>
<radialGradient id="paint0_radial_3872_23103" cx="0" cy="0" r="1" gradientUnits="userSpaceOnUse" gradientTransform="translate(155.965 3.73195) rotate(31.9965) scale(115.065 174.467)">
<stop stop-color="white" stop-opacity="0.17"/>
<stop offset="1" stop-color="white" stop-opacity="0"/>
<stop offset="1" stop-color="white" stop-opacity="0"/>
</radialGradient>
<radialGradient id="paint1_radial_3872_23103" cx="0" cy="0" r="1" gradientUnits="userSpaceOnUse" gradientTransform="translate(227.634 40.8342) rotate(31.9965) scale(165.105 250.339)">
<stop stop-color="white" stop-opacity="0.17"/>
<stop offset="1" stop-color="white" stop-opacity="0"/>
<stop offset="1" stop-color="white" stop-opacity="0"/>
</radialGradient>
<clipPath id="clip0_3872_23103">
<rect width="390" height="130" fill="white"/>
</clipPath>
<clipPath id="clip1_3872_23103">
<rect width="9.41876" height="9.41876" fill="white" transform="translate(346.683 62.9023)"/>
</clipPath>
<clipPath id="clip2_3872_23103">
<rect width="9.41876" height="9.41876" fill="white" transform="translate(346.683 85.8887)"/>
</clipPath>
<clipPath id="clip3_3872_23103">
<rect width="9.41876" height="9.41876" fill="white" transform="translate(346.683 108.875)"/>
</clipPath>
</defs>
</svg>
