<svg xmlns="http://www.w3.org/2000/svg" width="400" height="236" fill="none"><path fill="#FF7860" d="M122.296 70.173c-2.848 0-4.902-.578-6.161-1.736-1.205-1.212-1.862-2.7-1.972-4.464-.602 1.874-1.889 3.527-3.861 4.96-1.917 1.378-4.71 2.067-8.379 2.067-2.136 0-4.217-.413-6.244-1.24-2.026-.882-3.833-2.315-5.421-4.299-1.589-1.984-2.876-4.629-3.861-7.936C85.466 54.22 85 50.113 85 45.208c0-1.874.11-4.023.329-6.448.219-2.48.657-4.988 1.314-7.523a38.294 38.294 0 0 1 2.957-7.522 24.786 24.786 0 0 1 5.094-6.614c2.135-1.929 4.737-3.472 7.804-4.629 3.067-1.212 6.736-1.819 11.008-1.819 2.793 0 5.285.303 7.475.91 2.246.606 4.135 1.46 5.669 2.562 1.588 1.103 2.793 2.453 3.614 4.051.876 1.598 1.315 3.39 1.315 5.373 0 3.197-1.041 5.622-3.122 7.275-2.081 1.598-5.011 2.397-8.79 2.397-1.205 0-1.944-.082-2.218-.248-.219-.22-.356-.633-.411-1.24a55.242 55.242 0 0 1-.246-2.976c0-.992-.137-1.901-.411-2.728-.219-.826-.63-1.488-1.232-1.984-.603-.496-1.561-.744-2.875-.744-2.684 0-4.82.772-6.408 2.315s-2.793 3.417-3.615 5.621a26.58 26.58 0 0 0-1.56 6.862c-.22 2.314-.329 4.27-.329 5.869 0 2.645.164 4.877.493 6.696.328 1.764.794 3.224 1.396 4.381.658 1.103 1.424 1.902 2.301 2.398.876.44 1.889.661 3.039.661 2.081 0 3.834-.44 5.258-1.323 1.424-.881 2.272-2.48 2.546-4.794l.493-4.63c.164-1.598.383-2.893.657-3.885.274-1.047.931-1.57 1.972-1.57h4.518c1.369 0 2.465.165 3.286.495.876.276 1.534.772 1.972 1.488.493.662.821 1.543.985 2.646.165 1.102.247 2.452.247 4.05 0 1.103-.055 2.563-.164 4.382a97.24 97.24 0 0 1-.329 5.538c-.11 1.874-.246 3.61-.411 5.208-.164 1.543-.301 2.618-.41 3.224-.11.496-.247.827-.411.992-.165.166-.493.248-.986.248h-4.518ZM155.547 71c-3.779 0-6.928-.524-9.447-1.57-2.465-1.103-4.436-2.59-5.915-4.465-1.479-1.873-2.519-4.05-3.122-6.53-.602-2.535-.903-5.236-.903-8.102 0-3.306.383-6.53 1.15-9.672.821-3.196 2.19-6.034 4.107-8.514 1.917-2.48 4.436-4.464 7.558-5.952 3.176-1.543 7.12-2.315 11.83-2.315 6.9 0 11.829 1.708 14.786 5.125 3.013 3.362 4.519 8.102 4.519 14.219 0 1.708-.137 3.61-.411 5.704a27.392 27.392 0 0 1-1.397 6.117 26.636 26.636 0 0 1-2.793 5.952c-1.15 1.93-2.629 3.638-4.436 5.126-1.807 1.488-3.998 2.673-6.572 3.554-2.519.882-5.504 1.323-8.954 1.323Zm3.861-36.125c-2.081 0-3.752.55-5.011 1.653-1.205 1.047-2.136 2.342-2.793 3.885a19.215 19.215 0 0 0-1.232 4.795c-.165 1.653-.247 3.059-.247 4.216 0 3.637.575 6.31 1.725 8.019 1.15 1.708 2.793 2.562 4.929 2.562 1.917 0 3.478-.606 4.683-1.818 1.259-1.213 2.218-2.673 2.875-4.382a19.902 19.902 0 0 0 1.396-5.373c.274-1.874.411-3.444.411-4.712 0-2.756-.52-4.905-1.561-6.448-.985-1.598-2.711-2.397-5.175-2.397ZM211.709 58.104c2.245 0 4.135-.33 5.668-.992 1.588-.661 2.93-1.405 4.025-2.232 1.096-.827 2.054-1.57 2.876-2.232.876-.661 1.752-.992 2.628-.992 1.096 0 1.643.827 1.643 2.48 0 .882-.109 1.956-.328 3.224a65.663 65.663 0 0 1-.904 4.133c-.219.937-.767 1.957-1.643 3.059-.821 1.102-1.971 2.15-3.45 3.141-1.479.937-3.313 1.736-5.504 2.398-2.136.606-4.6.909-7.394.909-2.793 0-5.586-.413-8.379-1.24-2.793-.827-5.285-2.232-7.475-4.216-2.191-1.984-3.971-4.657-5.34-8.019-1.369-3.361-2.054-7.577-2.054-12.648 0-1.818.11-3.913.329-6.282a47.058 47.058 0 0 1 1.479-7.44 38.885 38.885 0 0 1 2.957-7.44 25.659 25.659 0 0 1 5.011-6.614c2.026-1.929 4.491-3.472 7.393-4.629 2.958-1.212 6.463-1.819 10.516-1.819 3.231 0 6.024.386 8.379 1.158 2.409.771 4.381 1.846 5.915 3.224 1.588 1.322 2.738 2.893 3.45 4.712a14.755 14.755 0 0 1 1.15 5.786c0 3.527-1.041 6.118-3.122 7.771-2.026 1.598-4.929 2.397-8.708 2.397-1.204 0-1.971-.082-2.3-.248-.274-.22-.411-.633-.411-1.24-.054-1.873-.109-3.5-.164-4.877-.055-1.378-.246-2.508-.575-3.39-.329-.936-.849-1.598-1.561-1.983-.657-.441-1.588-.662-2.793-.662-1.752 0-3.258.386-4.518 1.158-1.205.716-2.245 1.68-3.122 2.893-.821 1.157-1.506 2.48-2.053 3.968a42.866 42.866 0 0 0-1.233 4.547 45.76 45.76 0 0 0-.575 4.464 100.855 100.855 0 0 0-.082 3.72c0 5.07.822 8.68 2.465 10.829 1.697 2.15 4.299 3.224 7.804 3.224ZM264.218 59.923c.164-1.819.328-3.72.492-5.704.22-1.984.384-3.886.493-5.704.165-1.819.302-3.445.411-4.878.11-1.433.164-2.48.164-3.141 0-1.433-.356-2.7-1.068-3.803-.657-1.157-1.971-1.736-3.943-1.736-2.628 0-4.764 1.24-6.407 3.72-1.589 2.48-2.52 5.787-2.793 9.92-.11 1.158-.247 2.783-.411 4.878-.164 2.039-.329 4.133-.493 6.282a327.981 327.981 0 0 1-.493 5.704c-.109 1.654-.164 2.673-.164 3.059 0 .661-.137 1.102-.411 1.323-.219.22-.685.33-1.397.33h-2.957c-1.698 0-3.094-.165-4.19-.496-1.04-.385-1.889-.909-2.546-1.57-.603-.662-1.041-1.46-1.315-2.398-.219-.992-.328-2.121-.328-3.389 0-1.212.082-2.893.246-5.043a752 752 0 0 0 .822-9.01c.328-3.858.712-8.763 1.15-14.715.438-5.952.904-13.337 1.396-22.155.055-1.212.192-1.929.411-2.149.164-.165.603-.248 1.315-.248h3.203c1.643 0 3.013.193 4.108.579 1.095.385 1.971.909 2.629 1.57a5.596 5.596 0 0 1 1.396 2.315c.274.827.411 1.708.411 2.645 0 .992-.11 2.839-.329 5.539-.164 2.7-.383 5.87-.657 9.507 1.643-2.756 3.45-4.657 5.422-5.704 2.026-1.047 4.573-1.571 7.64-1.571 2.3 0 4.299.248 5.997.744 1.698.496 3.094 1.35 4.189 2.563 1.15 1.157 1.999 2.7 2.547 4.629.548 1.874.821 4.216.821 7.027 0 .881-.082 2.397-.246 4.546-.164 2.15-.383 4.602-.657 7.358a830.93 830.93 0 0 1-.739 8.68c-.22 2.976-.411 5.704-.576 8.184a19.845 19.845 0 0 1-.164 1.405c-.055.33-.164.579-.328.744-.11.165-.302.276-.575.33-.274.056-.658.083-1.151.083h-2.628c-1.753 0-3.177-.165-4.272-.496-1.095-.33-1.944-.799-2.547-1.405-.602-.606-1.04-1.35-1.314-2.232-.219-.937-.329-1.984-.329-3.141v-1.571c.055-.496.11-.964.165-1.405ZM284.459 60.005c0-4.96 2.218-8.845 6.654-11.656 4.436-2.81 10.981-4.326 19.634-4.546.055-.607.082-1.103.082-1.488.055-.441.082-.965.082-1.571 0-1.764-.329-3.169-.986-4.216-.657-1.047-2.026-1.57-4.107-1.57-1.15 0-2.081.165-2.793.495-.712.331-1.287.8-1.725 1.406-.439.55-.794 1.24-1.068 2.066a27.616 27.616 0 0 0-.74 2.728c-.109.496-.356.827-.739.992-.383.11-.986.166-1.807.166-5.586 0-8.38-2.122-8.38-6.366 0-1.708.384-3.334 1.151-4.877.821-1.543 1.999-2.866 3.532-3.968 1.588-1.157 3.56-2.067 5.915-2.728s5.093-.992 8.215-.992c6.079 0 10.487 1.268 13.226 3.803 2.738 2.535 4.107 6.117 4.107 10.746 0 .607-.082 1.709-.246 3.307a95.47 95.47 0 0 1-.493 4.96 481.557 481.557 0 0 1-.493 4.877c-.11 1.543-.164 2.618-.164 3.224 0 1.378.246 2.37.739 2.976.493.551 1.041.937 1.643 1.158.657.22 1.232.385 1.725.496.493.11.739.385.739.826 0 1.213-.164 2.453-.492 3.72a10.142 10.142 0 0 1-1.643 3.472c-.712 1.047-1.726 1.902-3.04 2.563-1.26.661-2.82.992-4.682.992-2.629 0-4.601-.634-5.915-1.901-1.315-1.268-2.191-3.031-2.629-5.291-1.314 1.929-3.04 3.61-5.175 5.043-2.082 1.433-4.82 2.149-8.215 2.149-1.643 0-3.204-.193-4.683-.579a10.21 10.21 0 0 1-3.779-1.901c-1.04-.882-1.889-2.012-2.546-3.39-.603-1.432-.904-3.14-.904-5.125Zm25.548-9.424c-1.423 0-2.82.11-4.189.331-1.369.22-2.602.579-3.697 1.075-1.04.44-1.889 1.047-2.547 1.818-.657.772-.985 1.709-.985 2.811 0 1.268.383 2.15 1.15 2.645a5 5 0 0 0 2.629.744c.876 0 1.752-.193 2.628-.578a6.378 6.378 0 0 0 2.301-1.736c.711-.827 1.314-1.819 1.807-2.976.493-1.158.794-2.535.903-4.134ZM347.424 55.293c-.164 2.535-.355 4.96-.575 7.275-.219 2.26-.383 4.244-.492 5.952-.055.661-.192 1.102-.411 1.323-.219.22-.685.33-1.397.33h-2.957c-1.698 0-3.094-.165-4.19-.496-1.04-.385-1.889-.909-2.546-1.57-.603-.662-1.041-1.46-1.315-2.398-.219-.992-.328-2.121-.328-3.389 0-.827.027-1.984.082-3.472.109-1.543.274-3.637.493-6.283.219-2.7.465-6.09.739-10.168.329-4.133.712-9.23 1.15-15.293.055-1.212.192-1.929.411-2.15.164-.165.602-.247 1.314-.247h3.204c1.643 0 2.985.193 4.025.578 1.041.386 1.89.882 2.547 1.488a5.047 5.047 0 0 1 1.397 2.15c.273.826.438 1.68.492 2.562 1.589-2.976 3.396-4.987 5.422-6.034 2.027-1.047 4.409-1.571 7.147-1.571 1.479 0 2.903.138 4.272.413 1.369.276 2.601.744 3.697 1.406a9.141 9.141 0 0 1 2.793 2.645c.767 1.047 1.314 2.397 1.643 4.05 1.698-3.196 3.56-5.4 5.586-6.613 2.026-1.267 4.573-1.901 7.64-1.901 1.698 0 3.313.193 4.847.579 1.588.33 2.957.937 4.107 1.818 1.15.882 2.054 2.095 2.711 3.638.712 1.488 1.068 3.361 1.068 5.621 0 1.708-.082 3.803-.246 6.283a730.044 730.044 0 0 1-1.315 17.03 276.041 276.041 0 0 0-.657 8.762c-.055.606-.11 1.074-.164 1.405-.055.33-.165.579-.329.744-.109.165-.301.276-.575.33-.274.056-.657.083-1.15.083h-2.629c-1.752 0-3.176-.165-4.272-.496-1.095-.33-1.944-.799-2.546-1.405-.603-.606-1.041-1.35-1.315-2.232-.219-.937-.328-1.984-.328-3.141 0-.717.027-1.736.082-3.059.109-1.323.219-2.756.329-4.299.164-1.543.301-3.141.41-4.794.165-1.654.302-3.17.411-4.547.164-1.433.274-2.673.329-3.72.109-1.047.164-1.736.164-2.067 0-1.433-.301-2.7-.904-3.802-.547-1.103-1.643-1.654-3.286-1.654-1.424 0-2.656.469-3.696 1.406-1.041.937-1.917 2.232-2.629 3.885-.712 1.653-1.287 3.61-1.725 5.87-.438 2.259-.74 4.711-.904 7.357a568.44 568.44 0 0 1-.411 5.869c-.164 2.204-.356 4.96-.575 8.267a20.461 20.461 0 0 1-.164 1.405c-.055.33-.164.579-.329.744-.109.165-.301.276-.575.33-.274.056-.657.083-1.15.083h-2.629c-1.752 0-3.176-.165-4.271-.496-1.096-.33-1.944-.799-2.547-1.405-.602-.606-1.04-1.35-1.314-2.232-.219-.937-.329-1.984-.329-3.141 0-1.103.082-2.7.247-4.795.219-2.15.41-4.354.575-6.613.219-2.315.41-4.492.575-6.531.219-2.094.328-3.61.328-4.547 0-1.433-.301-2.7-.903-3.802-.548-1.103-1.643-1.654-3.286-1.654-1.479 0-2.739.551-3.779 1.654-1.041 1.102-1.917 2.59-2.629 4.464-.657 1.818-1.205 3.968-1.643 6.448a84.826 84.826 0 0 0-.822 7.77ZM36 72c19.882 0 36-16.118 36-36S55.882 0 36 0 0 16.118 0 36s16.118 36 36 36Z"/><path fill="#FF7860" d="M50 66.047c3.771-4.18 8-7.887 12.601-11.047 2.178 1.3-.22 7.486 3.448 11.047 2.325 2.26 5.641 1.36 5.928 2.099.286.74-2.096 2.804-6.223 3.662a17.394 17.394 0 0 1-8.56-.87A17.97 17.97 0 0 1 50 66.046Z"/><path fill="#fff" d="M37 47.1c0 3.118-1.664 3.9-4.854 3.9-3.19 0-19.675-14.668-20.12-17.761-.395-2.707 3.885-6.456 6.252-6.23C21.417 27.313 37 43.982 37 47.1Z"/><path fill="#fff" d="M59.919 27.67C59.165 30.666 37.273 51 34.264 51c-3.008 0-3.608-.83-6.235-3.61-.948-.996 21.56-25.604 25.517-26.351 2.53-.482 7.119 3.643 6.373 6.63Z"/><path fill="#222" fill-opacity=".7" d="M22.232 124.872h1.944v9.912h-1.944v-9.912Zm.024 14.784v-1.92H8.672v-1.656h14.88c.408 0 .624.192.624.576v3.552c0 .864-.6 1.32-1.512 1.32H10.592v1.44a.48.48 0 0 0 .192.408l.408.36c.12.096.24.144.408.144h13.104v1.656H11.168c-.432 0-.816-.072-1.08-.312l-1.008-.96c-.288-.264-.408-.6-.408-1.008v-2.736c0-.408.216-.6.648-.6h12.672c.192 0 .264-.072.264-.264Zm-4.896-10.152v.6c0 2.64-2.064 4.8-5.28 4.8s-5.352-2.16-5.352-4.8v-.6c0-2.64 2.136-4.776 5.352-4.776s5.28 2.136 5.28 4.776Zm-1.872.6v-.6c0-1.704-1.488-3.096-3.408-3.096-1.992 0-3.384 1.392-3.384 3.096v.6c0 1.728 1.392 3.096 3.384 3.096 1.92 0 3.408-1.368 3.408-3.096Zm28.156 1.416v5.256h-1.992v-11.904h1.992v4.944H47.1v1.704h-3.456Zm-10.8 5.88h6.696c2.76 0 4.848 1.464 4.848 4.056 0 2.616-2.064 4.056-4.848 4.056h-6.696c-2.784 0-4.8-1.44-4.8-4.056 0-2.592 2.04-4.056 4.8-4.056Zm6.696 1.704h-6.696c-1.584 0-2.856.864-2.856 2.352s1.272 2.376 2.856 2.376h6.696c1.608 0 2.904-.888 2.904-2.376s-1.296-2.352-2.904-2.352Zm-5.376-9.312c1.44 1.68 3.144 3.312 4.92 4.92l-1.296 1.248c-1.68-1.584-3.336-3.168-4.704-4.776-.12-.12-.288-.24-.312-.384-.048.144-.168.24-.312.384-1.488 1.656-3.048 3.312-4.728 4.92l-1.32-1.128c1.728-1.632 3.408-3.36 4.92-5.184.24-.24.432-.432.432-.768v-3.888h1.992v3.888c0 .336.168.528.408.768Zm29.355-4.92h1.944v20.568H63.52v-20.568Zm-1.776 17.544H47.487v-1.728h14.256v1.728Zm-7.584-16.968c3.385 0 5.544 2.232 5.544 4.992v1.224c0 2.76-2.16 4.992-5.544 4.992-3.407 0-5.544-2.232-5.544-4.992v-1.224c0-2.76 2.16-4.992 5.544-4.992Zm3.6 6.216v-1.224c0-1.896-1.511-3.288-3.6-3.288-2.111 0-3.575 1.392-3.575 3.288v1.224c0 1.92 1.415 3.312 3.575 3.312 2.136 0 3.6-1.416 3.6-3.312Zm32.059-5.112v8.256c0 2.04-.048 2.544-.96 4.656-.576-.12-1.176-.24-1.728-.384.624-1.824.72-2.472.72-4.224v-7.32h-13.8v-1.704h15.096c.408 0 .672.288.672.72Zm-9.816 7.032h1.992v8.976h9.36v1.728h-18.72v-1.728h7.368v-8.976Zm28.996-8.712h1.944v15.264h-1.944v-15.264Zm2.4 20.664H98.51c-.696 0-1.176-.144-1.56-.552l-.936-.888c-.432-.456-.624-.84-.624-1.536v-4.152h1.944v3.96c0 .36.12.504.336.72l.432.48c.168.168.36.264.696.264h12.6v1.704Zm-8.136-9.024H96.83c-.672 0-1.056-.144-1.488-.528l-1.104-1.008c-.408-.408-.648-.768-.648-1.512v-7.32c0-.456.24-.696.696-.696h9.072c.456 0 .672.24.672.696v9.576c0 .504-.24.792-.768.792Zm-6.12-1.752h4.968v-7.608h-6.552v6.024c0 .336.12.552.336.72l.456.504c.192.216.456.36.792.36Zm19.923-9.696v3.36h12.144v-3.36h1.968v8.928c0 .504-.264.792-.792.792h-12.24c-.696 0-1.152-.096-1.56-.456l-.912-.84c-.456-.384-.576-.816-.576-1.488v-6.936h1.968Zm1.272 8.064h10.872v-3.096h-12.144v1.92c0 .312.048.432.216.6l.48.408c.12.12.24.168.576.168Zm5.904 12.672h-1.944v-6.936h-8.304v-1.704h18.576v1.704h-8.328v6.936Zm10.9-6.504v-12.792c0-.504.264-.792.816-.792h9.744v1.728h-8.592v6.288h7.344v1.656h-7.344v3.84c0 .744.24 1.056.504 1.344l.6.672c.288.288.624.504 1.152.504h7.008v1.752h-7.368c-1.152 0-1.608-.216-2.28-.984l-.672-.792c-.624-.696-.912-1.08-.912-2.424Zm15.144-14.424h1.944v20.568h-1.944v-10.704h-3.984v-1.704h3.984v-8.16Zm20.538.144h1.944v7.728h3.12v-7.872h1.92v20.544h-1.92v-10.992h-3.12v10.8h-1.944v-20.208Zm-5.952 10.368a68.249 68.249 0 0 0 4.224 6.84l-1.56 1.2c-1.392-2.088-2.568-4.008-3.696-6.168-.048-.096-.144-.288-.192-.504-.024.216-.12.408-.192.504-1.08 2.208-2.328 4.2-3.744 6.288l-1.56-1.08c1.584-2.328 2.976-4.776 4.2-7.08.192-.36.288-.648.288-1.008v-6.84h-3.936v-1.704h9.72v1.704h-3.84v6.84c0 .36.096.624.288 1.008Zm30.892-10.512h1.944v20.568h-1.944v-20.568Zm-5.544 18.48h-5.952c-.936 0-1.248-.096-1.848-.744l-1.176-1.392c-.528-.6-.696-.984-.696-1.992v-12.648c0-.432.24-.696.72-.696h9.024c.504 0 .744.264.744.696v16.008c0 .504-.264.72-.816.768Zm-7.704-15.768v11.76c0 .288.144.624.36.84l.888 1.032c.192.24.48.408.792.408h4.512v-14.04h-6.552Zm23.668-2.664c3.312 0 5.352 2.328 5.352 5.04v1.032c0 2.712-2.064 5.064-5.352 5.064-3.312 0-5.376-2.352-5.376-5.064v-1.032c0-2.712 2.064-5.04 5.376-5.04Zm2.352 15.84c.72.888 1.56 1.752 2.424 2.568.912-.864 1.8-1.752 2.544-2.664.216-.288.48-.552.48-.936v-2.376h1.944v2.376c0 .384.216.696.48.936 1.056 1.176 2.376 2.376 3.696 3.504l-1.176 1.248c-1.248-1.056-2.544-2.184-3.552-3.336-.192-.216-.36-.336-.384-.576-.048.24-.216.408-.36.576-1.032 1.224-2.304 2.376-3.552 3.552-1.224-1.128-2.592-2.256-3.6-3.456-.144-.192-.36-.312-.384-.552-.048.24-.216.408-.36.552-1.008 1.152-2.232 2.28-3.48 3.384l-1.296-1.224c1.296-1.104 2.568-2.256 3.672-3.576.192-.264.456-.552.456-.912v-2.52h1.944v2.52c0 .36.24.672.504.912Zm1.056-9.768v-1.032c0-1.872-1.368-3.336-3.408-3.336-2.088 0-3.408 1.464-3.408 3.336v1.032c0 1.848 1.272 3.36 3.408 3.36 2.088 0 3.408-1.536 3.408-3.36Zm6.816 5.352v-11.472h1.944v11.472h-1.944Zm22.492 8.952h-13.272c-.504 0-.984-.12-1.296-.432l-1.176-1.152c-.312-.336-.48-.72-.48-1.248v-3.84h1.968v3.576c0 .216.096.384.216.528l.672.672c.12.12.288.168.504.168h12.864v1.728Zm-13.344-12c-.504 0-.96-.096-1.296-.432l-1.152-1.152c-.336-.312-.504-.72-.504-1.224v-5.328h1.992v5.064c0 .216.072.36.192.504l.672.696a.846.846 0 0 0 .504.168h12.792v1.704h-13.2Zm14.472 3.48h-18.72v-1.632h18.72v1.632Zm10.362-3.696c-.504 0-.96-.12-1.296-.432l-1.152-1.152a1.629 1.629 0 0 1-.504-1.224v-5.304h1.992v5.04c0 .216.072.36.192.504l.672.672c.144.12.288.192.504.192h12.792v1.704h-7.2v2.424h8.448v1.656h-18.648v-1.656h8.256v-2.424h-4.056Zm13.368 12.456h-13.2c-.72 0-1.152-.096-1.56-.504l-1.008-.936c-.408-.432-.6-.84-.6-1.536v-3.912h1.992v3.648c0 .408.096.576.336.816l.432.432c.216.216.408.288.792.288h12.816v1.704Zm9.436-7.536h7.584c2.832 0 4.8 1.344 4.8 3.84 0 2.496-1.944 3.84-4.8 3.84h-7.584c-2.856 0-4.776-1.344-4.776-3.84 0-2.496 1.944-3.84 4.776-3.84Zm7.584 1.704h-7.584c-1.656 0-2.832.768-2.832 2.136s1.176 2.136 2.832 2.136h7.584c1.68 0 2.832-.768 2.832-2.136s-1.152-2.136-2.832-2.136Zm-2.568-14.688h1.944v4.488h3.144v-4.632h1.92v12.12h-1.92v-5.784h-3.144v5.304h-1.944v-11.496Zm-5.904 5.352c1.248 1.68 2.472 3.024 4.008 4.656l-1.416 1.152c-1.344-1.464-2.424-2.592-3.552-4.128a1.556 1.556 0 0 1-.264-.528c-.024.192-.168.384-.264.528-1.104 1.536-2.232 2.736-3.624 4.248l-1.368-1.176c1.464-1.68 2.712-3.024 3.96-4.752.24-.312.288-.528.288-.888v-2.376h-3.936V125.4h9.72v1.704h-3.84v2.376c0 .36.048.576.288.888Zm16.084 12.552-1.632-.96c2.376-3.84 3.312-5.904 3.768-7.152.36-.936.36-1.56.36-2.544v-4.68h-3.504v-1.704h4.296c.84 0 1.2.384 1.2 1.128v5.136c0 1.272-.024 2.064-.48 3.24-.528 1.344-1.584 3.576-4.008 7.536Zm6.36.576-1.704-1.008c2.016-3.6 2.856-5.736 3.36-7.032.408-1.152.456-1.944.456-3.12v-4.752h-3.144v-1.704h3.912c.816 0 1.176.384 1.176 1.128v5.208c0 1.464-.024 2.328-.528 3.696-.504 1.44-1.416 3.72-3.528 7.584Zm7.2-18.624h1.992v8.568h3.456v1.704h-3.456v10.296h-1.992v-20.568Zm6.075 2.568v-1.704h11.736v1.704h-4.848v6.552c0 .36.048.672.312.984 1.608 2.568 3.264 4.992 5.112 7.32l-1.488 1.032c-1.728-2.112-3.264-4.44-4.68-6.768a.723.723 0 0 1-.192-.408.723.723 0 0 1-.192.408 57.12 57.12 0 0 1-4.656 6.912l-1.584-1.032c1.872-2.448 3.6-4.944 5.112-7.464.24-.336.312-.624.312-.984v-6.552h-4.944Zm15.792-2.568h1.944v20.568h-1.944v-20.568ZM17.912 166.016h1.944v8.256H23v-8.4h1.92v20.544H23v-10.44h-3.144v10.248h-1.944v-20.208Zm-9.624 2.4v12.24c0 .528.264.816.552 1.128l.48.576c.264.312.6.504 1.128.504h2.568v-14.448H8.288Zm-1.944 12.096v-13.128c0-.432.264-.672.72-.672h7.2c.456 0 .696.24.696.672v16.464c0 .504-.264.768-.792.768h-4.08c-1.128 0-1.632-.168-2.28-.96l-.552-.72c-.6-.744-.912-1.08-.912-2.424Zm36.532-9.216v-5.424h1.944v15.24h-1.944v-8.16h-5.544v4.512c0 .24-.096.384-.312.384h-6.6c-.624 0-1.104-.096-1.44-.432l-.96-.936c-.384-.408-.504-.696-.504-1.512v-8.376h1.968v3.984h5.88v-3.984h1.968v4.704h5.544Zm2.448 15.168H32.196c-.504 0-1.008-.12-1.296-.432l-1.248-1.224c-.336-.336-.48-.744-.48-1.248v-3.912h1.944v3.696c0 .216.072.384.24.504l.768.768c.096.12.24.192.48.192h12.72v1.656Zm-14.448-10.272h4.488v-3.984h-5.88v2.568c0 .408.048.576.24.72l.408.432c.24.216.36.264.744.264Zm36.858 4.632v-1.944H54.006v-1.656H69.03c.408 0 .624.24.624.624v3.648c0 .72-.528 1.128-1.392 1.128H55.95v1.368c0 .192.048.312.168.408l.408.36c.12.072.24.144.432.144h13.224v1.656H56.526c-.456 0-.816-.072-1.104-.312l-1.008-.96c-.288-.264-.408-.6-.408-1.008v-2.688c0-.408.24-.6.672-.6h12.888c.12 0 .168-.024.168-.168Zm-14.928-4.512-.648-1.656a58.193 58.193 0 0 0 6.576-2.568c1.584-.744 1.872-1.632 1.872-2.448v-1.8h-7.584v-1.704h8.4c.792 0 1.176.384 1.176 1.128v1.152h5.112v-2.544h1.944v10.392H67.71v-2.352h-5.112v-1.704h5.112v-2.088h-5.136c-.096 1.416-.624 2.496-2.88 3.528-2.208 1.032-4.608 1.92-6.888 2.664Zm26.476 2.592h6.792c2.712 0 4.728 1.272 4.728 3.768 0 2.496-1.992 3.792-4.728 3.792h-6.792c-2.784 0-4.752-1.296-4.752-3.792 0-2.496 1.992-3.768 4.752-3.768Zm6.792 1.704h-6.792c-1.584 0-2.808.696-2.808 2.064s1.224 2.088 2.808 2.088h6.792c1.56 0 2.76-.72 2.76-2.088s-1.2-2.064-2.76-2.064Zm-13.344-12.6v-1.632h11.832v1.632H79.69v3.384c0 .336.216.528.408.768a70.162 70.162 0 0 0 4.944 3.984l-1.104 1.44c-1.8-1.368-3.576-2.688-4.992-4.008-.144-.144-.264-.288-.312-.432-.048.144-.192.264-.336.432a75.354 75.354 0 0 1-4.824 4.056l-1.176-1.416c1.656-1.296 3.264-2.616 4.776-4.056.24-.216.432-.432.432-.768v-3.384H72.73Zm15.624 2.496v-4.632h1.944v11.952h-1.944v-5.616H84.13v-1.704h4.224Zm15.82 6.96v2.976c0 2.592-1.656 4.896-4.896 4.896-3.216 0-4.872-2.424-4.872-4.896v-2.976c0-2.592 1.656-4.848 4.872-4.848 3.24 0 4.896 2.256 4.896 4.848Zm-1.92 2.976v-2.976c0-1.8-1.104-3.144-2.976-3.144-1.896 0-2.904 1.344-2.904 3.144v2.976c0 1.8 1.008 3.192 2.904 3.192 1.872 0 2.976-1.392 2.976-3.192Zm5.52-14.568h1.992v9h3.456v1.704h-3.456v9.864h-1.992v-20.568Zm-14.448 4.896v-1.704h4.944V165.8h1.968v3.264h4.872v1.704H93.326Zm22.251 13.656-1.224-1.464c2.448-1.872 4.608-3.744 5.76-4.92 2.256-2.304 2.64-3.408 2.64-4.704v-4.824h-7.92v-1.728h8.976c.576 0 .864.36.864.936v5.376c0 2.328-.144 3.408-2.952 6.096-1.272 1.2-3.312 2.928-6.144 5.232Zm14.064-18.552h1.944v20.568h-1.944v-20.568Zm11.779 20.064v-5.76c0-.432.216-.696.696-.696h13.608c.456 0 .696.264.696.696v5.76c0 .504-.264.768-.792.768h-13.44c-.528 0-.768-.264-.768-.768Zm2.808-15.264h1.512c2.976 0 4.272 1.44 4.272 3.576 0 2.112-1.296 3.504-4.272 3.504h-1.488c-2.928 0-4.296-1.392-4.296-3.504 0-2.136 1.344-3.576 4.272-3.576Zm-.864 14.376h11.112v-3.936h-11.112v3.936Zm-4.8-15.792v-1.704h5.352v-2.256h1.992v2.256h5.328v1.704h-12.672Zm15.912-3.384h1.944v12.48h-1.944v-12.48Zm-10.224 10.2h1.488c1.656 0 2.376-.816 2.376-1.824 0-1.032-.72-1.872-2.376-1.872h-1.512c-1.704 0-2.376.84-2.376 1.872 0 1.008.696 1.824 2.4 1.824Zm32.451-1.632h-12.96c-.528 0-1.008-.12-1.32-.408l-1.224-1.2c-.312-.336-.48-.72-.48-1.248V167c0-.504.264-.768.84-.768h14.904v1.704h-13.776v3.384c0 .24.096.384.216.528l.72.672c.144.12.288.168.504.168h12.576v1.752Zm1.392 3.816h-18.72v-1.632h18.72v1.632Zm-1.08 8.28h-13.296c-.744 0-1.128-.096-1.464-.456l-.96-.96c-.432-.48-.648-.84-.648-1.512v-3.552h1.992v3.36c0 .264.072.456.288.672l.456.48c.168.192.408.264.672.264h12.96v1.704Zm25.387-.072h-12.864c-.504 0-.984-.12-1.32-.432l-1.224-1.224c-.336-.336-.48-.744-.48-1.248v-4.008h1.944v3.792c0 .216.096.384.24.504l.744.768a.67.67 0 0 0 .48.192h12.48v1.656Zm-10.872-14.808c1.464 1.584 3.216 3.192 4.992 4.728l-1.2 1.272c-1.704-1.44-3.384-2.976-4.848-4.536-.096-.12-.264-.24-.312-.408-.048.168-.192.288-.312.408-1.368 1.44-2.952 3-4.8 4.632l-1.248-1.248c1.704-1.56 3.408-3.192 4.92-4.848.216-.24.432-.432.432-.768v-4.512h1.944v4.512c0 .336.216.528.432.768Zm8.424-1.368v-4.416h1.944v15.312h-1.944v-9.192h-4.392v-1.704h4.392Zm4.924 4.584v-7.56c0-.504.264-.72.816-.72h7.8v1.68h-6.648v3.024h6.216v1.656h-6.216v1.632c0 .336.12.456.288.696l.48.552c.168.168.432.168.744.168h5.52v1.752h-5.88c-.672 0-1.2-.096-1.608-.528l-.84-.84c-.408-.432-.672-.768-.672-1.512Zm11.328-8.856h1.872v5.064h3.288v-5.208h1.92v12.384h-1.92v-5.472h-3.288v5.304h-1.872v-12.072Zm-9.336 13.44h15.696c.504 0 .72.264.72.696v6.672h-1.92v-5.688H206.87v-1.68Zm34.371-13.584h1.944v20.568h-1.944v-20.568Zm-1.776 17.544h-14.256v-1.728h14.256v1.728Zm-7.584-16.968c3.384 0 5.544 2.232 5.544 4.992v1.224c0 2.76-2.16 4.992-5.544 4.992-3.408 0-5.544-2.232-5.544-4.992v-1.224c0-2.76 2.16-4.992 5.544-4.992Zm3.6 6.216v-1.224c0-1.896-1.512-3.288-3.6-3.288-2.112 0-3.576 1.392-3.576 3.288v1.224c0 1.92 1.416 3.312 3.576 3.312 2.136 0 3.6-1.416 3.6-3.312Zm32.443 13.656h-13.416c-.504 0-.96-.096-1.272-.408l-1.176-1.152c-.336-.336-.48-.744-.48-1.248v-3.648h1.968v3.384c0 .216.072.384.216.504l.648.696c.12.12.312.168.504.168h13.008v1.704Zm-6.816-17.232c2.376 1.392 4.824 2.688 7.2 3.888l-.888 1.488a78.646 78.646 0 0 1-7.344-4.008.69.69 0 0 1-.36-.336c-.072.168-.192.24-.384.336-2.304 1.512-4.776 2.856-7.272 4.128l-.912-1.512a119.373 119.373 0 0 0 7.08-3.984c.288-.168.456-.312.456-.672v-2.664h1.944v2.664c0 .36.168.504.48.672Zm-.384 13.056h-1.944v-4.296h-8.352v-1.632h18.576v1.632h-8.28v4.296Zm10.683-3.744-.816-1.704a56.76 56.76 0 0 0 5.952-2.904c2.304-1.296 2.4-2.136 2.4-3V168.2h-7.704v-1.704h8.496c.84 0 1.2.36 1.2 1.128v3.048c0 1.848-.12 2.952-3.24 4.68-2.064 1.104-4.2 2.16-6.288 3.048Zm16.08-5.088v7.872h-1.992v-15.312h1.992v5.736h3.456v1.704h-3.456Zm-12.504 6.288v3.912c0 .216.072.384.216.504l.696.696c.096.12.24.168.48.168h11.544v1.704h-11.928c-.528 0-1.008-.096-1.32-.408l-1.152-1.152c-.336-.336-.504-.744-.504-1.248V179.6h1.968Zm33.964-6.768h-13.032c-.528 0-1.008-.12-1.32-.408l-1.2-1.2c-.336-.336-.504-.744-.504-1.248v-3.12c0-.504.288-.744.864-.744h14.952v1.704h-13.824v1.896c0 .216.072.384.192.504l.72.696a.846.846 0 0 0 .504.168h12.648v1.752Zm1.416 3.312h-18.72v-1.632h18.72v1.632Zm-16.872 5.04h13.44c.072 0 .12-.072.12-.144v-1.656h-14.184v-1.632h15.504c.432 0 .648.24.648.624v3.192c0 .768-.6 1.248-1.536 1.248h-12.648v.912c0 .168.048.288.144.408l.504.48c.096.12.216.168.384.168h13.68v1.632h-14.232c-.432 0-.816-.144-1.104-.456l-.936-.96c-.288-.312-.408-.648-.408-1.08v-2.136c0-.384.216-.6.624-.6Zm19.684 7.008-.264-.6c.888-.384 1.176-1.104 1.176-2.328h-.888v-2.304h2.472v1.824c0 1.584-.696 2.976-2.496 3.408Zm-289.479 20.36v8.256c0 2.04-.048 2.544-.96 4.656-.576-.12-1.176-.24-1.728-.384.624-1.824.72-2.472.72-4.224v-7.32h-13.8v-1.704h15.096c.408 0 .672.288.672.72Zm-9.816 7.032h1.992v8.976h9.36v1.728H6.512v-1.728h7.368v-8.976Zm28.996-8.712h1.944v15.264h-1.944v-15.264Zm2.4 20.664H32.388c-.696 0-1.176-.144-1.56-.552l-.936-.888c-.432-.456-.624-.84-.624-1.536v-4.152h1.944v3.96c0 .36.12.504.336.72l.432.48c.168.168.36.264.696.264h12.6v1.704Zm-8.136-9.024h-6.432c-.672 0-1.056-.144-1.488-.528l-1.104-1.008c-.408-.408-.648-.768-.648-1.512v-7.32c0-.456.24-.696.696-.696h9.072c.456 0 .672.24.672.696v9.576c0 .504-.24.792-.768.792Zm-6.12-1.752h4.968v-7.608h-6.552v6.024c0 .336.12.552.336.72l.456.504c.192.216.456.36.792.36Zm32.5-9.888h1.943v20.568H63.52v-20.568Zm-1.777 17.544H47.487v-1.728h14.256v1.728Zm-7.584-16.968c3.385 0 5.544 2.232 5.544 4.992v1.224c0 2.76-2.16 4.992-5.544 4.992-3.407 0-5.544-2.232-5.544-4.992v-1.224c0-2.76 2.16-4.992 5.544-4.992Zm3.6 6.216v-1.224c0-1.896-1.511-3.288-3.6-3.288-2.111 0-3.575 1.392-3.575 3.288v1.224c0 1.92 1.415 3.312 3.575 3.312 2.136 0 3.6-1.416 3.6-3.312Zm27.172-.096v5.424H82.94v-12.12h1.992v4.992h3.456v1.704h-3.456Zm-12.936 12.48H82.94v-4.032H71.995v4.032Zm-1.968.888v-5.856c0-.432.24-.696.744-.696h13.44c.456 0 .72.264.72.696v5.856c0 .504-.288.768-.816.768H70.843c-.552 0-.816-.264-.816-.768Zm-2.016-16.248v-1.704h4.848v-2.592h2.112v2.592h4.8v1.704H75.02v1.68c0 .432.096.744.48 1.032 1.392 1.152 3.072 2.472 4.68 3.576l-1.128 1.488c-1.632-1.128-3.24-2.472-4.752-3.696a.871.871 0 0 1-.312-.456c-.072.192-.216.336-.36.456a38.987 38.987 0 0 1-4.896 3.864l-1.128-1.584a60.337 60.337 0 0 0 4.704-3.624c.36-.288.528-.6.528-1.032v-1.704h-4.824Zm31.684 5.784v-1.704h5.112v-3.432h-5.064v.336c0 1.848-.096 3.024-3.264 4.728-2.016 1.104-4.176 2.184-6.264 3.024l-.792-1.728a44.593 44.593 0 0 0 5.904-2.856c2.304-1.296 2.448-2.184 2.448-3.048v-2.688h-7.728V207.4h8.544c.792 0 1.152.36 1.152 1.128v1.104h5.064v-2.76h1.944v15.312h-1.944v-5.712h-5.112Zm-6.072 4.128v3.912c0 .216.072.384.216.504l.672.696c.12.12.24.168.48.168h12.384v1.704H94.607c-.528 0-.984-.096-1.32-.408l-1.152-1.152c-.336-.336-.48-.744-.48-1.248V220.6h1.968Zm28.444-13.584h1.92v20.28h-1.92v-10.392h-3.624v3.024c0 3.816-1.416 5.952-4.512 5.952-3.12 0-4.464-2.136-4.464-5.952v-6.744c0-3.792 1.344-5.952 4.464-5.952 3.096 0 4.512 2.16 4.512 5.952v2.016h3.624v-8.184Zm-5.592 12.912v-6.744c0-3-.816-4.248-2.544-4.248-1.776 0-2.496 1.248-2.496 4.248v6.744c0 3.024.72 4.248 2.496 4.248 1.728 0 2.544-1.224 2.544-4.248Zm9.72 7.512v-20.568h1.944v20.568h-1.944Zm11.644-10.128c1.656 2.328 3.288 4.584 5.136 6.744l-1.416 1.104a95.325 95.325 0 0 1-4.992-6.48c-.048-.072-.12-.144-.144-.288-.024.144-.12.216-.192.288a67.211 67.211 0 0 1-4.944 6.648l-1.512-1.104a59.664 59.664 0 0 0 5.184-6.912c.36-.504.456-.816.456-1.488v-8.472h1.968v8.472c0 .672.12 1.008.456 1.488Zm8.256-10.44h1.944v20.568h-1.944v-11.376h-5.088v-1.656h5.088v-7.536Zm8.706 2.568v-1.704h11.28v1.704h-4.608v6.336c0 .36.072.648.312 1.008a94.143 94.143 0 0 0 5.112 7.296l-1.512 1.032c-1.752-2.28-3.264-4.536-4.656-6.648a.723.723 0 0 1-.192-.408.723.723 0 0 1-.192.408c-1.392 2.232-2.928 4.536-4.656 6.792l-1.584-1.032a78.817 78.817 0 0 0 5.112-7.44c.24-.36.312-.648.312-1.008v-6.336h-4.728Zm14.904-2.568h1.992v8.016h3.456v1.704h-3.456v10.848h-1.992v-20.568Zm13.132.264h4.824c3.552 0 5.76 1.824 5.76 4.848 0 3-2.208 4.824-5.76 4.824h-4.824c-3.552 0-5.808-1.824-5.808-4.824 0-3.072 2.256-4.848 5.808-4.848Zm0 7.992h4.824c2.28 0 3.84-1.248 3.84-3.144 0-1.944-1.56-3.144-3.84-3.144h-4.824c-2.304 0-3.912 1.176-3.912 3.144 0 1.896 1.608 3.144 3.912 3.144Zm-.432 12.672h-1.968v-6.912h-4.536v-1.68h18.576v1.68h-4.536v6.912h-1.968v-6.912h-5.568v6.912Zm29.139-17.712v-1.44h-13.536v-1.632h14.856c.408 0 .648.192.648.6v3.144c0 .72-.528 1.128-1.416 1.128h-12.144v.648c0 .144.048.288.168.384l.48.528c.12.096.288.144.432.144h12.984v1.632h-7.296v1.896h8.448v1.632H196.52v-1.632h8.256v-1.896h-4.32c-.456 0-.816-.144-1.104-.456l-.936-.984c-.288-.312-.408-.648-.408-1.08v-1.824c0-.408.216-.6.648-.6h12.696c.12 0 .192-.072.192-.192Zm-11.64 9.768v2.232h11.904v-2.232h1.944v6.816c0 .504-.24.768-.768.768h-12.168c-.504 0-.984-.12-1.296-.432l-1.104-1.032c-.36-.336-.48-.72-.48-1.248v-4.872h1.968Zm1.224 5.928h10.68v-2.088h-11.904v.912c0 .216.072.384.216.504l.504.48c.12.12.288.192.504.192Zm27.796-18.768h1.92v20.28h-1.92v-10.632h-3.672c-.216.744-.648 1.512-1.416 2.544-1.68 2.136-3.504 4.128-5.328 6.168l-1.464-1.296c1.8-1.944 3.528-3.816 5.112-5.88 1.344-1.776 1.344-2.64 1.344-4.056v-4.296h-5.976v-1.704h6.792c.792 0 1.176.384 1.176 1.128v5.688h3.432v-7.944Zm4.68 20.424v-20.568h1.944v20.568h-1.944Zm19.074-14.88a80.48 80.48 0 0 0 7.776 5.904l-1.032 1.368c-2.784-1.824-5.376-3.72-7.728-5.76-.12-.072-.24-.264-.312-.432a1.058 1.058 0 0 1-.36.432c-2.328 2.136-4.896 4.032-7.632 5.952l-1.056-1.416a60.5 60.5 0 0 0 7.56-6.048c.288-.24.432-.48.432-.816v-4.56h1.944v4.56c0 .312.12.576.408.816Zm-2.376 6.336h1.944v5.688h8.448v1.728h-18.72v-1.728h8.328v-5.688Zm13.852-5.904v-5.28c0-.504.24-.72.816-.72h14.52v1.704h-13.392v1.8h13.224v1.656h-13.224v.528c0 .36.072.504.312.696l.48.384c.216.168.432.216.768.216h12v1.752h-6.816v1.824h8.448v1.656h-18.648v-1.656h8.256v-1.824h-3.624c-.672 0-1.176-.168-1.608-.528l-.84-.72c-.456-.384-.672-.768-.672-1.488Zm4.416 7.464h6.792c3.192 0 4.896 1.176 4.896 3.552 0 2.352-1.704 3.504-4.896 3.504h-6.792c-3.144 0-4.944-1.152-4.944-3.504 0-2.4 1.8-3.552 4.944-3.552Zm0 5.376h6.792c1.896 0 2.976-.576 2.976-1.824 0-1.272-1.08-1.848-2.976-1.848h-6.792c-1.944 0-3.048.552-3.048 1.848 0 1.248 1.104 1.824 3.048 1.824Zm23.284-8.04v3.768c0 2.496-1.296 4.344-4.008 4.344-2.664 0-3.984-1.848-3.984-4.344v-3.768c0-2.472 1.32-4.32 3.984-4.32 2.712 0 4.008 1.848 4.008 4.32Zm2.832-10.776h1.944v7.992h3.12v-8.136h1.92v20.568h-1.92v-10.728h-3.12v10.584h-1.944v-20.28Zm-4.752 14.544v-3.768c0-1.68-.792-2.616-2.088-2.616-1.32 0-2.016.936-2.016 2.616v3.768c0 1.704.696 2.64 2.016 2.64 1.296 0 2.088-.936 2.088-2.64Zm-6.84-9.792v-1.704h3.816v-2.88h1.968v2.88h3.624v1.704h-9.408Zm23.98-4.416v4.488h12.144v-4.488h1.944v11.328c0 .528-.24.792-.768.792h-6.216v5.256h8.448v1.728h-18.72v-1.728h8.328v-5.256h-3.96c-.768 0-1.104-.168-1.536-.552l-1.032-.912c-.456-.48-.6-.792-.6-1.536v-9.12h1.968Zm1.536 10.464h10.608v-4.344h-12.144v2.88c0 .384.096.576.264.72l.504.456c.192.216.456.288.768.288Zm21.556-.84c1.296 2.4 2.784 4.8 4.416 7.176l-1.488.912c-1.416-2.112-2.784-4.176-3.984-6.408a.693.693 0 0 1-.144-.408.723.723 0 0 1-.192.408 108.684 108.684 0 0 1-3.936 6.6l-1.512-.936c1.584-2.4 3-4.872 4.296-7.344.192-.336.288-.624.288-.984v-8.448h1.968v8.448c0 .36.12.672.288.984Zm6.24-9.96h1.92v20.28h-1.92v-11.4h-3.672v-1.656h3.672v-7.224Zm4.608 20.424v-20.568h1.944v20.568h-1.944Zm11.619-19.944h3.864c4.056 0 6.336 2.352 6.336 5.832 0 2.592-1.296 4.56-3.624 5.376v5.736h4.704v1.728h-18.72v-1.728h4.656v-5.784c-2.304-.84-3.6-2.76-3.6-5.328 0-3.504 2.352-5.832 6.384-5.832Zm.024 9.936h3.84c2.784 0 4.416-1.752 4.416-4.104 0-2.376-1.632-4.128-4.416-4.128h-3.864c-2.808 0-4.488 1.728-4.488 4.128 0 2.352 1.704 4.104 4.512 4.104Zm0 1.68c-.288 0-.552 0-.816-.024v5.352h5.4v-5.352c-.24.024-.504.024-.744.024h-3.84Zm13.948 7.368v-2.52h2.448v2.52h-2.448Z"/></svg>