<svg xmlns="http://www.w3.org/2000/svg" width="57" height="58" fill="none"><path fill="#E0E0E0" fill-rule="evenodd" d="M23.426 54.348a27.84 27.84 0 0 0 12.565-.37 28.274 28.274 0 0 0 3.798-1.285c.069.174.15.344.246.51 1.323 2.29 4.714 2.808 7.575 1.157 2.381-1.376 3.644-3.821 3.237-5.923 1.1-.785 2.148-1.686 3.092-2.769 1.982-2.273 2.834-4.085 3.033-7.336.132-2.138-.212-3.835-.84-5.227.866-4 .834-8.246-.264-12.461C52.078 6.088 37.037-2.585 22.27 1.272 14.3 3.353 8.04 8.66 4.561 15.392a4.754 4.754 0 0 1-.438-.302c-1.212-.94-1.573-2.328-1.815-3.26-.144-.552-.246-.944-.458-.992-.6-.134-1.756 1.934-1.848 5.173-.033 1.207.274 3.991 1.986 6.841a26.821 26.821 0 0 0 .408 11.756c.136.52.286 1.034.45 1.54-.251 1.029-.362 2.2-.285 3.548.187 3.253 1.034 5.075 3.007 7.36 2.162 2.504 4.873 4.047 7.501 5.42.37.99 1.01 1.944 1.903 2.738 2.467 2.194 5.925 2.332 7.723.31.315-.354.558-.75.731-1.176Z" clip-rule="evenodd"/><path fill="#BDBDBD" fill-rule="evenodd" d="M31.53 57.125C25.375 54.85 5.922 42.26 4.872 39.874c-1.167-2.653 2.636-7.211 5.147-7.173 2.67.043 15.273 8.98 22.819 15.028 3.547-6.114 9.319-14.023 11.203-14.52 2.13-.565 6.584 2.233 6.626 4.777.047 2.9-12.815 18.834-15.715 19.312-.677.112-1.284.172-1.824.163l-.03.005c-.164.027-.398.003-.693-.067a3.045 3.045 0 0 1-.874-.274Z" clip-rule="evenodd"/><path fill="#000" d="M34.297 27.056a.77.77 0 0 0-.595-.91.77.77 0 0 0-.92.58.77.77 0 0 0 .595.911.77.77 0 0 0 .92-.58Zm-5.817.063a.77.77 0 0 0-.596-.911.77.77 0 0 0-.92.581.77.77 0 0 0 .596.91.77.77 0 0 0 .92-.58Z"/><path fill="#424242" d="M26.237 32.441c.05-1.295 2.205-2.023 2.377-2.08 1.69-.55 3.268-.891 4.754-.297 1.607.645 2.08 1.783 1.783 2.674-.075.223-.595.891-4.16.891-2.831 0-3.91.393-4.457-.297a1.444 1.444 0 0 1-.297-.891Z"/></svg>