<svg xmlns="http://www.w3.org/2000/svg" width="390" height="130" fill="none"><g clip-path="url(#a)"><path fill="#F5F5F5" d="M0 0h390v130H0z"/><g filter="url(#b)"><path fill="#fff" fill-opacity=".1" d="M162 22.41C162 13.9 168.899 7 177.41 7h64.105c8.511 0 15.41 6.9 15.41 15.41v31.642c0 8.51-6.899 15.41-15.41 15.41H177.41c-8.511 0-15.41-6.9-15.41-15.41V22.41Z"/></g><g filter="url(#c)" opacity=".5"><path fill="url(#d)" d="M162 22.41C162 13.9 168.899 7 177.41 7h64.105c8.511 0 15.41 6.9 15.41 15.41v31.642c0 8.51-6.899 15.41-15.41 15.41H177.41c-8.511 0-15.41-6.9-15.41-15.41V22.41Z" shape-rendering="crispEdges"/></g><path fill="#C6CEEB" fill-opacity=".8" d="M180.082 27.649c0-.965.782-1.747 1.747-1.747h55.27a1.746 1.746 0 0 1 0 3.493h-55.27a1.747 1.747 0 0 1-1.747-1.746Z"/><path fill="#D6DDF3" fill-opacity=".5" d="M180.082 37.922c0-.964.782-1.746 1.747-1.746h55.27a1.746 1.746 0 0 1 0 3.493h-55.27a1.747 1.747 0 0 1-1.747-1.747Z"/><path fill="#D6DDF3" fill-opacity=".34" d="M180.082 48.198c0-.965.782-1.747 1.747-1.747h39.86a1.746 1.746 0 0 1 0 3.493h-39.86a1.747 1.747 0 0 1-1.747-1.746Z"/><path fill="#424242" d="M37.32 48.872h3V69.44h-3v-9.816h-3.696v2.28c0 3.624-1.824 6.024-5.376 6.024-3.528 0-5.28-2.4-5.28-6.024v-7.008c0-3.648 1.776-6.072 5.28-6.072 3.552 0 5.376 2.424 5.376 6.072v2.088h3.696v-8.112Zm-6.792 13.032v-7.008c0-2.352-.912-3.36-2.28-3.36-1.296 0-2.232 1.008-2.232 3.36v7.008c0 2.352.912 3.36 2.232 3.36 1.368 0 2.28-1.008 2.28-3.36Zm21.268-2.544c1.344 2.112 2.928 4.248 4.608 6.312l-2.112 1.896c-1.56-1.92-3.168-3.936-4.44-5.976-.096-.144-.216-.384-.24-.576a1.81 1.81 0 0 1-.24.576 69.746 69.746 0 0 1-4.296 6.192l-2.208-1.848a86.764 86.764 0 0 0 4.56-6.624c.408-.696.6-1.68.6-2.688v-7.32h3.144v7.32c0 1.032.168 1.992.624 2.736Zm6.576-10.488h3.072V69.44h-3.072V58.592h-4.104v-2.736h4.104v-6.984Zm16.77.096c3.6 0 5.856 2.472 5.856 5.352v1.2c0 2.424-1.584 4.584-4.176 5.232v3.816h5.136v2.712H68.782v-2.712h4.992v-3.744c-2.76-.552-4.44-2.784-4.44-5.304v-1.2c0-2.88 2.232-5.352 5.808-5.352Zm8.136-.096h3.096v7.848h2.784v2.712h-2.784V69.44h-3.096V48.872Zm-5.328 6.744v-1.368c0-1.464-1.2-2.64-2.808-2.64-1.56 0-2.76 1.176-2.76 2.64v1.368c0 1.464 1.2 2.688 2.76 2.688 1.608 0 2.808-1.224 2.808-2.688Zm14.02 7.392-.408-13.584 3.504.024-.456 13.56h-2.64Zm-.36 5.232v-3.192h3.264v3.192H91.61ZM40.008 84.528v8.136c0 2.088-.048 2.544-1.056 4.872l-2.832-.576c.72-1.776.792-2.496.792-4.248v-6.36H23.544v-2.736h15.6c.6 0 .864.312.864.912ZM29.28 91.176h3.096v8.856h8.592v2.688H22.512v-2.688h6.768v-8.856Zm16.732 4.92h13.416c.72 0 1.152.432 1.152 1.152v5.304c0 .72-.432 1.152-1.152 1.152H46.012c-.696 0-1.152-.432-1.152-1.152v-5.304c0-.72.456-1.152 1.152-1.152Zm9.528-8.664h-4.584v.816c0 .624.216 1.08.696 1.464 1.224 1.008 3.024 2.232 4.368 2.976l-1.464 2.304c-1.536-.888-3.6-2.352-4.704-3.264a2.912 2.912 0 0 1-.504-.6c-.072.216-.36.504-.576.648-1.104.96-3.024 2.376-4.512 3.216l-1.512-2.256c1.368-.816 3.096-2.088 4.248-3.024.552-.408.72-.84.72-1.464v-.816h-4.632V84.84h4.704v-2.304h3.12v2.304h4.632v2.592Zm1.968-4.56h3.072v4.584h2.784v2.616H60.58v4.872h-3.072V82.872Zm-9.576 18.216h9.6v-2.4h-9.6v2.4Zm35.284-5.4H64.76V93h18.456v2.688Zm-13.488 5.136h12.696v2.664H68.79c-.935 0-1.248-.192-1.775-.72l-.529-.528c-.551-.552-.671-.864-.671-1.92v-3.336h3.096v2.952c0 .192.023.288.167.432l.265.312c.12.096.216.144.384.144Zm1.44-17.808h5.663c3.816 0 5.593 1.704 5.593 4.152 0 2.472-1.777 4.152-5.593 4.152h-5.663c-3.793 0-5.569-1.68-5.569-4.152 0-2.448 1.776-4.152 5.569-4.152Zm-.169 5.712h6c1.657 0 2.305-.648 2.305-1.56 0-.888-.648-1.536-2.305-1.536h-6c-1.655 0-2.303.648-2.303 1.536 0 .912.648 1.56 2.303 1.56Zm27.667 5.424c1.416 1.944 2.712 3.624 4.512 5.616l-2.016 1.824a64.473 64.473 0 0 1-4.392-5.472c-.216-.216-.336-.408-.36-.648-.048.24-.168.408-.312.648a96.68 96.68 0 0 1-4.344 5.592l-2.16-1.776c1.656-1.848 3.192-3.744 4.608-5.784.528-.72.648-1.08.648-2.184v-3.696h-4.704V85.56h4.728v-2.832h3.096v2.832h4.632v2.712h-4.608v3.696c0 1.104.12 1.464.672 2.184Zm6.624-11.28h3.072v20.568h-3.072V93.408h-4.248v-2.712h4.248v-7.824Zm24.844 11.856h-18.456V92.16h18.456v2.568Zm-14.472 6.168h10.512v-2.112h-10.512v2.112Zm-1.848-4.68h14.208c.72 0 1.152.432 1.152 1.152v4.968c0 .696-.432 1.152-1.152 1.152h-14.208c-.72 0-1.152-.456-1.152-1.152v-4.968c0-.72.432-1.152 1.152-1.152Zm4.224-13.392h5.76c3.816 0 5.544 1.656 5.544 3.984 0 2.304-1.728 3.96-5.544 3.96h-5.76c-3.792 0-5.52-1.656-5.52-3.96 0-2.328 1.728-3.984 5.52-3.984Zm-.12 5.328h6c1.608 0 2.208-.552 2.208-1.344s-.6-1.368-2.208-1.368h-6c-1.632 0-2.208.576-2.208 1.368 0 .792.576 1.344 2.208 1.344Zm29.619-5.28h3.072v20.568h-3.072V82.872Zm-8.952-.048c3.6 0 5.4 2.424 5.4 6.072v7.008c0 3.624-1.8 6.024-5.4 6.024-3.576 0-5.328-2.4-5.328-6.024v-7.008c0-3.648 1.776-6.072 5.328-6.072Zm2.304 13.08v-7.008c0-2.352-.912-3.36-2.304-3.36-1.32 0-2.256 1.008-2.256 3.36v7.008c0 2.352.912 3.36 2.256 3.36 1.392 0 2.304-1.008 2.304-3.36Zm25.132-9.768h-4.56V90.6c0 1.008.216 1.968.672 2.712 1.344 2.112 2.856 4.224 4.512 6.36l-2.112 1.896c-1.536-1.968-3.072-3.984-4.392-6.024-.072-.144-.192-.384-.216-.576-.048.24-.144.432-.24.576a70.352 70.352 0 0 1-4.344 6.192l-2.232-1.848a80.73 80.73 0 0 0 4.608-6.624c.408-.696.648-1.68.648-2.688v-4.44h-4.704v-2.688h12.36v2.688Zm2.64-3.264h3.072v20.568h-3.072V82.872Zm9.076 5.976-2.928-.432c.216-3.024 2.04-5.64 6.24-5.64 3.816 0 6.096 2.496 6.096 5.04v.504c0 1.8-1.128 3.576-3.552 4.8-1.224.624-1.728 1.368-1.728 2.328v1.56h-2.928V95.4c0-1.968.432-3.12 2.112-3.936 1.68-.768 2.76-1.92 2.76-3.24v-.336c0-1.152-.936-2.448-2.76-2.448-2.256 0-3.24 1.608-3.312 3.408Zm1.008 13.392v-3.192h3.24v3.192h-3.24ZM28.402 27.78c-.003.504-.011.935-.024 1.293-.01.355-.04.77-.088 1.245-.046.476-.119.99-.22 1.543l-.937-.097a16.499 16.499 0 0 0 .317-2.71c.013-.355.021-.78.025-1.275v-.107h-5.313v-.752h6.24v.86Zm-7.08 5.097h3.037v-3.086h.918v3.086h4.024v.771h-7.979v-.771Zm12.962-1.943h-4.16v-4.112h4.16v4.112Zm-.918-.743v-2.617h-2.334v2.617h2.334Zm-2.168 1.563h.938v2.05h5.048v.762h-5.986v-2.812Zm4.795-5.664h.928v6.27h-.928v-6.27Zm4.866.615c.456 0 .864.088 1.226.264.36.172.644.418.85.737.204.316.307.675.307 1.08 0 .403-.103.764-.308 1.083a2.1 2.1 0 0 1-.85.742c-.36.176-.77.264-1.225.264-.456 0-.866-.088-1.23-.264a2.1 2.1 0 0 1-.85-.742 1.984 1.984 0 0 1-.303-1.084c0-.404.101-.763.303-1.079.205-.316.488-.561.85-.737a2.797 2.797 0 0 1 1.23-.264Zm-2.803 5.488c1.1 0 2.116-.017 3.047-.053s1.82-.116 2.666-.24l.069.674c-.873.17-1.76.277-2.662.323-.898.045-1.899.068-3.003.068l-.117-.772Zm1.338-3.408c-.003.254.057.479.18.674.128.192.302.342.523.45.225.103.479.155.762.155.283 0 .535-.052.757-.156.224-.107.4-.257.527-.449.127-.195.19-.42.19-.674 0-.25-.063-.472-.19-.664a1.263 1.263 0 0 0-.527-.454 1.732 1.732 0 0 0-.757-.161c-.283 0-.537.054-.762.161a1.27 1.27 0 0 0-.522.454 1.17 1.17 0 0 0-.18.664Zm4.922-2.705h.928v8.77h-.928v-8.77Zm5.1 1.807c0 .338.085.662.254.971.17.306.414.578.733.816.322.238.703.42 1.142.547l-.43.722a3.656 3.656 0 0 1-1.298-.659 3.09 3.09 0 0 1-.85-1.05c-.195.443-.48.827-.854 1.153a3.69 3.69 0 0 1-1.333.722l-.45-.722c.44-.13.822-.32 1.148-.572.329-.254.581-.546.757-.879.175-.331.263-.681.263-1.05V27.8h-1.904v-.742h1.904V26.04h.928v1.016h1.895v.742h-1.905v.088Zm-1.777 3.75h5.586v3.086h-5.586v-3.086Zm4.668 2.334v-1.602h-3.76v1.602h3.76Zm-.01-7.89h.928v2.167h1.27v.771h-1.27v2.227h-.928V26.08Zm9.69 6.503h-.927v-2.012h-2.237v-.761h2.237v-1.202h-2.114c-.31.677-.783 1.268-1.421 1.773-.635.501-1.4.893-2.295 1.177l-.4-.733a7.21 7.21 0 0 0 1.752-.815c.505-.332.907-.71 1.206-1.133.3-.423.48-.88.542-1.372H55.28v-.742h4.062c0 .361-.044.726-.132 1.093h1.85V26.09h.928v6.494Zm-5.634-.645h.937v1.954h4.922v.752h-5.86v-2.706Zm11.978-3.632c0 .53.093 1.051.278 1.562.189.508.453.959.791 1.353.339.394.728.688 1.167.883l-.566.743a3.848 3.848 0 0 1-1.284-1.07 5.14 5.14 0 0 1-.845-1.611 5.53 5.53 0 0 1-.855 1.714 3.799 3.799 0 0 1-1.303 1.133l-.586-.752a3.459 3.459 0 0 0 1.177-.938c.344-.416.611-.889.8-1.416.192-.53.288-1.064.288-1.601v-1.494h.938v1.494Zm1.27.683h1.953v-2.91h.918v8.77h-.918v-5.108H69.6v-.752Zm11.164 5.86h-.927v-8.77h.927v8.77Zm-6.758-8.038h.928v2.247h2.354v-2.247h.918v5.938h-4.2v-5.938Zm3.282 5.176v-2.197h-2.354v2.197h2.354Zm9.016-4.668c0 .463.148.912.444 1.348.297.436.69.809 1.182 1.118.495.306 1.02.51 1.577.61l-.43.772a5.026 5.026 0 0 1-2.48-1.343 3.911 3.911 0 0 1-.771-1.108c-.19.4-.45.768-.782 1.103a4.9 4.9 0 0 1-1.137.845 5.147 5.147 0 0 1-1.343.503l-.41-.771a4.434 4.434 0 0 0 1.552-.616c.489-.309.881-.68 1.177-1.113.296-.436.445-.885.445-1.348v-.664h.976v.664Zm-4.443 5.586h8.008v.772h-8.008v-.772Zm18.492.81h-8.008v-.76h3.506v-2.081h.917v2.08h3.585v.762Zm-7.735-3.447a4.422 4.422 0 0 0 1.567-.585 3.853 3.853 0 0 0 1.182-1.075c.296-.423.445-.859.445-1.308v-.664h.976v.664c0 .449.148.885.444 1.308.3.42.695.778 1.187 1.075a4.518 4.518 0 0 0 1.582.585l-.4.762a5.315 5.315 0 0 1-1.363-.468 4.742 4.742 0 0 1-1.147-.811 3.798 3.798 0 0 1-.786-1.074c-.19.39-.451.747-.787 1.07a4.759 4.759 0 0 1-1.142.814 5.175 5.175 0 0 1-1.348.47l-.41-.762Zm15.56 4.561h-.889v-4.54h-1.084v4.12h-.869v-8.095h.869v3.222h1.084V26.08h.889v8.75Zm-7.52-2.5c.937-.534 1.637-1.164 2.1-1.89.462-.726.73-1.554.805-2.485h-2.534v-.762h3.438c-.004 1.247-.254 2.355-.752 3.326-.498.97-1.338 1.788-2.52 2.456l-.537-.645Z"/><g filter="url(#e)"><path fill="#fff" fill-opacity=".7" d="M236.294 67.635c0-12.212 9.9-22.112 22.111-22.112h91.787c12.212 0 22.111 9.9 22.111 22.112v45.402c0 12.212-9.899 22.111-22.111 22.111h-91.787c-12.211 0-22.111-9.899-22.111-22.111V67.635Z"/></g><g filter="url(#f)" opacity=".5"><path fill="url(#g)" d="M236.294 67.635c0-12.212 9.9-22.112 22.111-22.112h91.984c12.211 0 22.111 9.9 22.111 22.112v45.402c0 12.212-9.9 22.111-22.111 22.111h-91.984c-12.211 0-22.111-9.899-22.111-22.111V67.635Z" shape-rendering="crispEdges"/></g><path fill="#D6DDF3" fill-opacity=".34" d="M248.873 67.43a8.15 8.15 0 0 1 8.151-8.15h94.55a8.151 8.151 0 0 1 0 16.301h-94.55a8.15 8.15 0 0 1-8.151-8.15Z"/><g clip-path="url(#h)"><path fill="#fff" fill-opacity=".7" d="M356.102 67.612a4.71 4.71 0 1 1-9.42 0 4.71 4.71 0 0 1 9.42 0Z"/><path fill="#C6CEEB" fill-opacity=".8" fill-rule="evenodd" d="M353.903 65.69a.22.22 0 0 1 0 .312l-3.237 3.238a.222.222 0 0 1-.313 0l-1.471-1.472a.221.221 0 0 1 .312-.312l1.316 1.315 3.081-3.081a.22.22 0 0 1 .312 0Z" clip-rule="evenodd"/><path fill="#C6CEEB" fill-opacity=".8" fill-rule="evenodd" d="M353.452 65.55a.417.417 0 1 1 .59.59l-.139-.139.139.14-3.237 3.237a.418.418 0 0 1-.591 0l-1.471-1.472a.417.417 0 0 1 0-.59l.137.138-.137-.138a.417.417 0 0 1 .59 0l1.177 1.177 2.942-2.943Zm.312.278a.024.024 0 0 0-.034 0l-.137-.138.137.138-3.081 3.081a.197.197 0 0 1-.278 0l-1.316-1.315a.024.024 0 0 0-.034 0 .023.023 0 0 0 0 .034l1.471 1.472c.01.01.025.01.035 0l3.237-3.238a.023.023 0 0 0 0-.034Z" clip-rule="evenodd"/></g><g opacity=".7"><path fill="#D6DDF3" fill-opacity=".34" d="M248.873 90.416a8.15 8.15 0 0 1 8.151-8.15h94.55a8.151 8.151 0 0 1 0 16.301h-94.55a8.15 8.15 0 0 1-8.151-8.15Z"/><g clip-path="url(#i)"><path fill="#fff" fill-opacity=".7" d="M356.102 90.598a4.71 4.71 0 1 1-9.42 0 4.71 4.71 0 0 1 9.42 0Z"/><path fill="#C6CEEB" fill-opacity=".8" fill-rule="evenodd" d="M353.903 88.676a.22.22 0 0 1 0 .312l-3.237 3.238a.222.222 0 0 1-.313 0l-1.471-1.472a.221.221 0 0 1 .312-.312l1.316 1.316 3.081-3.082a.22.22 0 0 1 .312 0Z" clip-rule="evenodd"/><path fill="#C6CEEB" fill-opacity=".8" fill-rule="evenodd" d="M353.452 88.536a.417.417 0 1 1 .59.59l-.139-.139.139.14-3.237 3.237a.418.418 0 0 1-.591 0l-1.471-1.472a.417.417 0 0 1 0-.59l.137.138-.137-.138a.417.417 0 0 1 .59 0l1.177 1.177 2.942-2.943Zm.312.278a.024.024 0 0 0-.034 0l-.137-.137.137.137-3.081 3.082a.197.197 0 0 1-.278 0l-1.316-1.316a.024.024 0 0 0-.034 0 .023.023 0 0 0 0 .035l1.471 1.471c.01.01.025.01.035 0l3.237-3.237a.023.023 0 0 0 0-.035Z" clip-rule="evenodd"/></g></g><g opacity=".5"><path fill="#D6DDF3" fill-opacity=".34" d="M248.873 113.403a8.15 8.15 0 0 1 8.151-8.151h94.55a8.151 8.151 0 0 1 0 16.302h-94.55a8.151 8.151 0 0 1-8.151-8.151Z"/><g clip-path="url(#j)"><path fill="#fff" fill-opacity=".7" d="M356.102 113.584a4.71 4.71 0 1 1-9.42 0 4.71 4.71 0 0 1 9.42 0Z"/><path fill="#C6CEEB" fill-opacity=".8" fill-rule="evenodd" d="M353.903 111.662a.22.22 0 0 1 0 .313l-3.237 3.237a.222.222 0 0 1-.313 0l-1.471-1.471a.22.22 0 1 1 .312-.313l1.316 1.316 3.081-3.082a.22.22 0 0 1 .312 0Z" clip-rule="evenodd"/><path fill="#C6CEEB" fill-opacity=".8" fill-rule="evenodd" d="M353.452 111.523a.417.417 0 1 1 .59.59l-.139-.139.139.139-3.237 3.237a.418.418 0 0 1-.591 0l-1.471-1.471a.417.417 0 0 1 0-.59l.137.137-.137-.137a.417.417 0 0 1 .59 0l1.177 1.176 2.942-2.942Zm.312.278c-.009-.01-.024-.01-.034 0l-.137-.138.137.138-3.081 3.081a.197.197 0 0 1-.278 0l-1.316-1.315a.023.023 0 0 0-.034 0c-.01.009-.01.024 0 .034l1.471 1.472c.01.009.025.009.035 0l3.237-3.238c.01-.01.01-.025 0-.034Z" clip-rule="evenodd"/></g></g><path fill="#FF7860" d="M331.404 26c-.458 0-.788-.093-.991-.278a1.07 1.07 0 0 1-.317-.713c-.097.3-.304.564-.621.793-.309.22-.758.33-1.349.33a2.65 2.65 0 0 1-1.004-.198 2.295 2.295 0 0 1-.873-.687c-.255-.318-.462-.74-.621-1.27-.15-.528-.224-1.184-.224-1.969 0-.3.017-.643.052-1.03.036-.397.106-.798.212-1.204a6.05 6.05 0 0 1 .476-1.203c.211-.396.484-.748.819-1.057a3.914 3.914 0 0 1 1.256-.74c.493-.194 1.084-.29 1.771-.29.45 0 .851.048 1.203.144.361.097.665.234.912.41.256.177.449.392.582.648.141.256.211.542.211.86 0 .51-.167.898-.502 1.162-.335.256-.806.384-1.415.384-.193 0-.312-.014-.356-.04-.036-.035-.058-.101-.066-.198a8.479 8.479 0 0 1-.04-.476c0-.159-.022-.304-.066-.436a.6.6 0 0 0-.198-.318c-.097-.079-.252-.119-.463-.119-.432 0-.776.124-1.031.37-.256.247-.45.547-.582.9a4.22 4.22 0 0 0-.251 1.097c-.035.37-.053.682-.053.938 0 .423.027.78.08 1.07.052.283.127.516.224.701.106.176.229.304.37.383.141.07.304.106.489.106.335 0 .617-.07.846-.211.23-.141.366-.397.41-.767l.079-.74c.027-.256.062-.463.106-.621.044-.168.15-.252.317-.252h.727c.221 0 .397.027.529.08a.547.547 0 0 1 .317.238c.08.105.133.246.159.423.026.176.04.392.04.647 0 .177-.009.41-.027.7-.009.292-.026.587-.053.886-.017.3-.039.578-.066.833a7.734 7.734 0 0 1-.066.516c-.017.079-.039.132-.066.158-.026.027-.079.04-.159.04h-.727Zm5.351.132c-.608 0-1.115-.084-1.52-.251a2.465 2.465 0 0 1-.952-.714 2.678 2.678 0 0 1-.502-1.044 5.553 5.553 0 0 1-.146-1.295c0-.529.062-1.044.185-1.547.132-.51.353-.965.661-1.361a3.302 3.302 0 0 1 1.216-.952c.511-.247 1.146-.37 1.904-.37 1.11 0 1.903.273 2.379.82.484.537.727 1.295.727 2.273 0 .273-.022.577-.066.912-.036.326-.11.652-.225.978a4.295 4.295 0 0 1-.449.952 3.143 3.143 0 0 1-.714.82 3.36 3.36 0 0 1-1.058.568c-.405.14-.885.211-1.44.211Zm.621-5.776c-.335 0-.604.088-.806.264a1.687 1.687 0 0 0-.45.622 3.047 3.047 0 0 0-.198.766 6.78 6.78 0 0 0-.04.674c0 .582.093 1.01.278 1.282.185.274.449.41.793.41.308 0 .559-.097.753-.29a1.91 1.91 0 0 0 .463-.701c.114-.273.189-.56.225-.86.044-.299.066-.55.066-.753 0-.44-.084-.784-.251-1.03-.159-.256-.437-.384-.833-.384Zm8.415 3.714c.361 0 .665-.053.912-.158.256-.106.472-.225.648-.357.176-.133.33-.252.462-.357a.703.703 0 0 1 .423-.159c.177 0 .265.132.265.397 0 .14-.018.313-.053.515-.035.194-.084.414-.145.661-.036.15-.124.313-.265.49a2.227 2.227 0 0 1-.555.502 3.61 3.61 0 0 1-.886.383c-.343.097-.74.145-1.189.145a4.75 4.75 0 0 1-1.348-.198 3.068 3.068 0 0 1-1.203-.674c-.353-.317-.639-.745-.859-1.282-.221-.538-.331-1.212-.331-2.023 0-.29.018-.625.053-1.004.044-.388.123-.785.238-1.19.114-.405.273-.802.476-1.19.211-.396.48-.748.806-1.057a3.684 3.684 0 0 1 1.19-.74c.476-.194 1.039-.29 1.692-.29.519 0 .969.06 1.348.184.388.123.705.295.951.516.256.211.441.462.556.753.123.29.185.6.185.925 0 .564-.168.979-.503 1.243-.326.255-.793.383-1.401.383-.194 0-.317-.013-.37-.04-.044-.035-.066-.1-.066-.198l-.026-.78a1.77 1.77 0 0 0-.093-.542.546.546 0 0 0-.251-.317c-.106-.07-.256-.106-.449-.106a1.37 1.37 0 0 0-.727.186 1.67 1.67 0 0 0-.503.462 2.7 2.7 0 0 0-.33.635c-.079.238-.145.48-.198.727a7.346 7.346 0 0 0-.093.713c-.009.23-.013.428-.013.595 0 .81.132 1.388.396 1.732.274.343.692.515 1.256.515Zm8.449.291c.026-.29.053-.595.079-.912.035-.317.062-.621.079-.912.027-.29.049-.55.067-.78a7.69 7.69 0 0 0 .026-.502c0-.23-.057-.432-.172-.608-.106-.185-.317-.278-.634-.278-.423 0-.767.198-1.031.595-.256.396-.406.925-.45 1.586-.017.185-.039.445-.066.78-.026.326-.053.66-.079 1.005-.027.334-.053.638-.079.912-.018.264-.027.427-.027.489 0 .105-.022.176-.066.211-.035.035-.11.053-.225.053h-.475a2.4 2.4 0 0 1-.675-.08 1.109 1.109 0 0 1-.409-.25.958.958 0 0 1-.212-.384 2.525 2.525 0 0 1-.053-.542c0-.194.014-.462.04-.806.035-.352.079-.833.132-1.44a197.45 197.45 0 0 0 .41-5.896c.009-.194.031-.308.066-.344.026-.026.097-.04.211-.04h.516c.264 0 .485.032.661.093.176.062.317.146.423.251.106.106.18.23.225.37.044.133.066.274.066.424 0 .158-.018.453-.053.885a117.6 117.6 0 0 1-.106 1.52c.264-.44.555-.744.872-.912.326-.167.736-.251 1.23-.251.37 0 .691.04.965.119.273.08.497.216.674.41.185.185.321.431.409.74.089.3.133.674.133 1.123 0 .141-.014.384-.04.727-.026.344-.062.736-.106 1.177-.035.44-.075.903-.119 1.388-.035.476-.066.912-.092 1.308a3.17 3.17 0 0 1-.027.225.211.211 0 0 1-.053.119c-.017.026-.048.044-.092.053a1 1 0 0 1-.185.013h-.423c-.282 0-.511-.026-.687-.08a.955.955 0 0 1-.41-.224.856.856 0 0 1-.212-.357 2.21 2.21 0 0 1-.053-.502v-.251l.027-.225Zm3.257.013c0-.793.357-1.414 1.07-1.863.714-.45 1.767-.692 3.159-.727.009-.097.014-.177.014-.238.008-.07.013-.155.013-.252 0-.282-.053-.506-.159-.674-.105-.167-.326-.25-.661-.25a1.08 1.08 0 0 0-.449.078.7.7 0 0 0-.278.225 1.07 1.07 0 0 0-.171.33 4.103 4.103 0 0 0-.119.437c-.018.08-.058.132-.119.158a1.156 1.156 0 0 1-.291.027c-.899 0-1.348-.34-1.348-1.018 0-.273.061-.533.185-.78.132-.247.321-.458.568-.634.256-.185.573-.33.952-.436a4.936 4.936 0 0 1 1.322-.159c.978 0 1.687.203 2.128.608.44.405.66.978.66 1.718 0 .097-.013.274-.039.529-.018.247-.044.511-.079.793-.027.273-.053.533-.08.78a8.962 8.962 0 0 0-.026.515c0 .22.039.38.119.476.079.088.167.15.264.185.106.036.198.062.278.08.079.017.119.061.119.132 0 .194-.027.392-.08.595a1.622 1.622 0 0 1-.264.555 1.265 1.265 0 0 1-.489.41c-.203.105-.454.158-.754.158-.422 0-.74-.101-.951-.304-.212-.203-.353-.485-.423-.846a3.037 3.037 0 0 1-.833.806c-.335.23-.775.344-1.322.344-.264 0-.515-.03-.753-.092a1.645 1.645 0 0 1-.608-.304 1.598 1.598 0 0 1-.41-.542 2.095 2.095 0 0 1-.145-.82Zm4.11-1.507c-.229 0-.453.018-.674.053-.22.035-.418.093-.594.172a1.08 1.08 0 0 0-.41.29.666.666 0 0 0-.159.45c0 .203.062.344.185.423.132.08.273.12.423.12a1.048 1.048 0 0 0 .793-.37c.115-.133.212-.292.291-.477.079-.185.128-.405.145-.66Zm6.021.754c-.027.405-.057.793-.093 1.163-.035.361-.061.678-.079.952-.009.105-.031.176-.066.211s-.11.053-.225.053h-.476c-.273 0-.497-.026-.674-.08a1.109 1.109 0 0 1-.409-.25.958.958 0 0 1-.212-.384 2.525 2.525 0 0 1-.053-.542c0-.132.005-.317.013-.555.018-.247.045-.581.08-1.004.035-.432.075-.974.119-1.626.053-.661.114-1.476.185-2.446.009-.193.031-.308.066-.343.026-.027.097-.04.211-.04h.516c.264 0 .48.031.648.093.167.061.304.14.409.238a.803.803 0 0 1 .225.343c.044.132.07.269.079.41.256-.476.547-.797.873-.965.326-.167.709-.251 1.15-.251.238 0 .467.022.687.066.22.044.419.119.595.225.176.105.326.247.449.423.124.167.212.383.265.647.273-.51.572-.863.898-1.057.326-.203.736-.304 1.23-.304.273 0 .533.03.779.093.256.052.476.15.661.29.185.141.331.335.437.582.114.238.171.537.171.899 0 .273-.013.608-.039 1.004a113.114 113.114 0 0 1-.212 2.723c-.044.485-.079.952-.105 1.401a3.17 3.17 0 0 1-.027.225.211.211 0 0 1-.053.119c-.017.026-.048.044-.092.053a1 1 0 0 1-.185.013h-.423a2.46 2.46 0 0 1-.688-.08.95.95 0 0 1-.409-.224.856.856 0 0 1-.212-.357 2.21 2.21 0 0 1-.053-.502c0-.115.005-.278.013-.49.018-.21.036-.44.053-.687.027-.246.049-.502.066-.766.027-.265.049-.507.066-.727.027-.23.045-.428.053-.595.018-.167.027-.278.027-.33 0-.23-.049-.432-.146-.608-.088-.177-.264-.265-.528-.265a.862.862 0 0 0-.595.225 1.74 1.74 0 0 0-.423.621 4.577 4.577 0 0 0-.278.939c-.07.36-.119.753-.145 1.176-.018.273-.04.586-.066.939-.027.352-.057.793-.093 1.321a3.287 3.287 0 0 1-.026.225.218.218 0 0 1-.053.119c-.018.026-.048.044-.093.053a.993.993 0 0 1-.185.013h-.423c-.282 0-.511-.026-.687-.08a.96.96 0 0 1-.41-.224.854.854 0 0 1-.211-.357 2.21 2.21 0 0 1-.053-.502c0-.176.013-.432.04-.767.035-.343.066-.696.092-1.057.035-.37.066-.718.093-1.045.035-.334.053-.577.053-.726 0-.23-.049-.432-.146-.608-.088-.177-.264-.265-.529-.265a.81.81 0 0 0-.608.265 2.142 2.142 0 0 0-.423.713c-.105.291-.193.635-.264 1.031-.062.397-.106.811-.132 1.243ZM317.713 26.512a5.788 5.788 0 1 0 0-11.576 5.788 5.788 0 0 0 0 11.576Z"/><path fill="#FF7860" d="M319.917 25.562a11.42 11.42 0 0 1 2.034-1.718c.352.202-.036 1.164.556 1.718.376.352.911.212.957.327.047.115-.338.436-1.004.57a2.91 2.91 0 0 1-2.543-.897Z"/><path fill="#fff" d="M317.774 22.502c0 .49-.256.614-.748.614s-3.032-2.307-3.101-2.793c-.061-.426.599-1.015.964-.98.484.048 2.885 2.669 2.885 3.16Z"/><path fill="#fff" d="M321.519 19.377c-.123.477-3.692 3.715-4.182 3.715-.491 0-.589-.132-1.017-.575-.155-.158 3.515-4.077 4.16-4.196.412-.077 1.16.58 1.039 1.056Z"/></g><defs><clipPath id="a"><path fill="#fff" d="M0 0h390v130H0z"/></clipPath><clipPath id="h"><path fill="#fff" d="M346.683 62.902h9.419v9.42h-9.419z"/></clipPath><clipPath id="i"><path fill="#fff" d="M346.683 85.889h9.419v9.419h-9.419z"/></clipPath><clipPath id="j"><path fill="#fff" d="M346.683 108.875h9.419v9.419h-9.419z"/></clipPath><filter id="b" width="294.925" height="262.461" x="62" y="-93" color-interpolation-filters="sRGB" filterUnits="userSpaceOnUse"><feFlood flood-opacity="0" result="BackgroundImageFix"/><feGaussianBlur in="BackgroundImageFix" stdDeviation="50"/><feComposite in2="SourceAlpha" operator="in" result="effect1_backgroundBlur_3872_23103"/><feBlend in="SourceGraphic" in2="effect1_backgroundBlur_3872_23103" result="shape"/></filter><filter id="c" width="105.379" height="72.915" x="156.773" y="1.773" color-interpolation-filters="sRGB" filterUnits="userSpaceOnUse"><feFlood flood-opacity="0" result="BackgroundImageFix"/><feGaussianBlur in="BackgroundImageFix" stdDeviation="2.613"/><feComposite in2="SourceAlpha" operator="in" result="effect1_backgroundBlur_3872_23103"/><feColorMatrix in="SourceAlpha" result="hardAlpha" values="0 0 0 0 0 0 0 0 0 0 0 0 0 0 0 0 0 0 127 0"/><feOffset dy="2.091"/><feGaussianBlur stdDeviation="1.045"/><feComposite in2="hardAlpha" operator="out"/><feColorMatrix values="0 0 0 0 0 0 0 0 0 0 0 0 0 0 0 0 0 0 0.25 0"/><feBlend in2="effect1_backgroundBlur_3872_23103" result="effect2_dropShadow_3872_23103"/><feBlend in="SourceGraphic" in2="effect2_dropShadow_3872_23103" result="shape"/></filter><filter id="e" width="336.009" height="289.625" x="136.294" y="-54.477" color-interpolation-filters="sRGB" filterUnits="userSpaceOnUse"><feFlood flood-opacity="0" result="BackgroundImageFix"/><feGaussianBlur in="BackgroundImageFix" stdDeviation="50"/><feComposite in2="SourceAlpha" operator="in" result="effect1_backgroundBlur_3872_23103"/><feBlend in="SourceGraphic" in2="effect1_backgroundBlur_3872_23103" result="shape"/></filter><filter id="f" width="151.206" height="104.625" x="228.794" y="38.023" color-interpolation-filters="sRGB" filterUnits="userSpaceOnUse"><feFlood flood-opacity="0" result="BackgroundImageFix"/><feGaussianBlur in="BackgroundImageFix" stdDeviation="3.75"/><feComposite in2="SourceAlpha" operator="in" result="effect1_backgroundBlur_3872_23103"/><feColorMatrix in="SourceAlpha" result="hardAlpha" values="0 0 0 0 0 0 0 0 0 0 0 0 0 0 0 0 0 0 127 0"/><feOffset dy="3"/><feGaussianBlur stdDeviation="1.5"/><feComposite in2="hardAlpha" operator="out"/><feColorMatrix values="0 0 0 0 0 0 0 0 0 0 0 0 0 0 0 0 0 0 0.25 0"/><feBlend in2="effect1_backgroundBlur_3872_23103" result="effect2_dropShadow_3872_23103"/><feBlend in="SourceGraphic" in2="effect2_dropShadow_3872_23103" result="shape"/></filter><radialGradient id="d" cx="0" cy="0" r="1" gradientTransform="rotate(31.997 71.474 273.855) scale(115.065 174.467)" gradientUnits="userSpaceOnUse"><stop stop-color="#fff" stop-opacity=".17"/><stop offset="1" stop-color="#fff" stop-opacity="0"/><stop offset="1" stop-color="#fff" stop-opacity="0"/></radialGradient><radialGradient id="g" cx="0" cy="0" r="1" gradientTransform="matrix(140.02233 87.48377 -132.64649 212.30762 227.634 40.834)" gradientUnits="userSpaceOnUse"><stop stop-color="#fff" stop-opacity=".17"/><stop offset="1" stop-color="#fff" stop-opacity="0"/><stop offset="1" stop-color="#fff" stop-opacity="0"/></radialGradient></defs></svg>