<svg width="32" height="32" viewBox="0 0 32 32" fill="none" xmlns="http://www.w3.org/2000/svg">
<path d="M21.3327 12.0003C22.8054 12.0003 23.9993 10.8064 23.9993 9.33366C23.9993 7.8609 22.8054 6.66699 21.3327 6.66699C19.8599 6.66699 18.666 7.8609 18.666 9.33366C18.666 10.8064 19.8599 12.0003 21.3327 12.0003Z" stroke="#6A6C73" stroke-width="2" stroke-linecap="round" stroke-linejoin="round"/>
<path d="M10.6667 18.6668C12.1394 18.6668 13.3333 17.4729 13.3333 16.0002C13.3333 14.5274 12.1394 13.3335 10.6667 13.3335C9.19391 13.3335 8 14.5274 8 16.0002C8 17.4729 9.19391 18.6668 10.6667 18.6668Z" stroke="#6A6C73" stroke-width="2" stroke-linecap="round" stroke-linejoin="round"/>
<path d="M21.3327 25.3333C22.8054 25.3333 23.9993 24.1394 23.9993 22.6667C23.9993 21.1939 22.8054 20 21.3327 20C19.8599 20 18.666 21.1939 18.666 22.6667C18.666 24.1394 19.8599 25.3333 21.3327 25.3333Z" stroke="#6A6C73" stroke-width="2" stroke-linecap="round" stroke-linejoin="round"/>
<path d="M13.334 17.333L18.6673 21.333" stroke="#6A6C73" stroke-width="2" stroke-linecap="round" stroke-linejoin="round"/>
<path d="M18.6673 10.667L13.334 14.667" stroke="#6A6C73" stroke-width="2" stroke-linecap="round" stroke-linejoin="round"/>
</svg>
