<svg width="44" height="44" viewBox="0 0 44 44" fill="none" xmlns="http://www.w3.org/2000/svg">
<path d="M25.1719 31.2685L25.1713 31.268L16.6304 22.8463C16.6303 22.8462 16.6301 22.8461 16.63 22.846C16.5742 22.7907 16.5477 22.7441 16.5346 22.7074L16.5337 22.705C16.5125 22.6467 16.5 22.5797 16.5 22.5C16.5 22.4203 16.5125 22.3533 16.5337 22.295L16.5346 22.2926C16.5478 22.2558 16.5743 22.2091 16.6304 22.1537L25.1719 13.7064C25.3081 13.5717 25.4745 13.5 25.7074 13.5C25.9299 13.5 26.1079 13.5729 26.2682 13.7315C26.4337 13.8952 26.5 14.0622 26.5 14.2533C26.5 14.4444 26.4337 14.6114 26.2682 14.7751L18.8166 22.1445L18.4571 22.5L18.8166 22.8555L26.2682 30.2249C26.4068 30.362 26.4747 30.5207 26.4747 30.7337C26.4747 30.9372 26.4056 31.1076 26.2429 31.2685C26.0773 31.4322 25.9059 31.5 25.7074 31.5C25.5089 31.5 25.3374 31.4322 25.1719 31.2685Z" fill="#6A6C73" stroke="#6A6C73"/>
</svg>
