<svg width="390" height="117" viewBox="0 0 390 117" fill="none" xmlns="http://www.w3.org/2000/svg">
<path d="M10.5294 27.7461H70.8341V57.8984H65.8087V62.9238H55.7579V57.8984H60.7833V32.7715H10.5294V27.7461ZM5.50401 78H35.6564V52.873H45.7072V78H75.8595V83.0254H5.50401V78ZM83.4981 22.7207H123.701V52.873H118.676V57.8984H88.5235V52.873H83.4981V22.7207ZM93.5489 27.7461V52.873H113.65V27.7461H93.5489ZM138.777 22.7207H148.828V57.8984H138.777V22.7207ZM88.5235 62.9238H98.5743V83.0254H148.828V88.0508H93.5489V83.0254H88.5235V62.9238ZM161.492 37.7969H166.518V32.7715H171.543V27.7461H191.645V32.7715H196.67V37.7969H201.695V52.873H196.67V57.8984H191.645V62.9238H171.543V57.8984H166.518V52.873H161.492V37.7969ZM171.543 37.7969V52.873H176.568V57.8984H186.619V52.873H191.645V37.7969H186.619V32.7715H176.568V37.7969H171.543ZM161.492 78H216.772V22.7207H226.822V88.0508H216.772V83.0254H161.492V78ZM239.486 27.7461H254.562V22.7207H264.613V27.7461H279.689V32.7715H264.613V42.8223H269.639V47.8476H274.664V52.873H279.689V57.8984H269.639V52.873H264.613V47.8476H254.562V52.873H249.537V57.8984H239.486V52.873H244.512V47.8476H249.537V42.8223H254.562V32.7715H239.486V27.7461ZM289.74 22.7207H299.791V37.7969H314.867V42.8223H299.791V57.8984H289.74V22.7207ZM244.512 62.9238H299.791V83.0254H294.766V88.0508H249.537V83.0254H244.512V62.9238ZM254.562 67.9492V83.0254H289.74V67.9492H254.562ZM317.48 22.7207H347.633V52.873H342.607V57.8984H322.506V52.873H337.582V27.7461H317.48V22.7207ZM357.683 32.7715H372.76V22.7207H382.81V57.8984H372.76V47.8476H357.683V42.8223H372.76V37.7969H357.683V32.7715ZM322.506 62.9238H332.557V83.0254H382.81V88.0508H327.531V83.0254H322.506V62.9238Z" fill="white"/>
<path d="M267 3.42857H268.429V2L275.571 2V3.42857H277V10.5714H275.571V12H268.429V10.5714H267V3.42857Z" fill="white"/>
<path d="M350 3.42857H351.429V2L358.571 2V3.42857H360V10.5714H358.571V12H351.429V10.5714H350V3.42857Z" fill="white"/>
</svg>
