<svg width="390" height="117" viewBox="0 0 390 117" fill="none" xmlns="http://www.w3.org/2000/svg">
<path d="M10.5299 27.7461H70.8346V57.8984H65.8092V62.9238H55.7584V57.8984H60.7838V32.7715H10.5299V27.7461ZM5.5045 78H35.6569V52.873H45.7076V78H75.86V83.0254H5.5045V78ZM83.4986 22.7207H123.702V52.873H118.676V57.8984H88.524V52.873H83.4986V22.7207ZM93.5494 27.7461V52.873H113.651V27.7461H93.5494ZM138.778 22.7207H148.829V57.8984H138.778V22.7207ZM88.524 62.9238H98.5748V83.0254H148.829V88.0508H93.5494V83.0254H88.524V62.9238ZM161.493 37.7969H166.518V32.7715H171.543V27.7461H191.645V32.7715H196.67V37.7969H201.696V52.873H196.67V57.8984H191.645V62.9238H171.543V57.8984H166.518V52.873H161.493V37.7969ZM171.543 37.7969V52.873H176.569V57.8984H186.62V52.873H191.645V37.7969H186.62V32.7715H176.569V37.7969H171.543ZM161.493 78H216.772V22.7207H226.823V88.0508H216.772V83.0254H161.493V78ZM239.487 27.7461H254.563V22.7207H264.614V27.7461H279.69V32.7715H264.614V42.8223H269.639V47.8476H274.665V52.873H279.69V57.8984H269.639V52.873H264.614V47.8476H254.563V52.873H249.538V57.8984H239.487V52.873H244.512V47.8476H249.538V42.8223H254.563V32.7715H239.487V27.7461ZM289.741 22.7207H299.791V37.7969H314.868V42.8223H299.791V57.8984H289.741V22.7207ZM244.512 62.9238H299.791V83.0254H294.766V88.0508H249.538V83.0254H244.512V62.9238ZM254.563 67.9492V83.0254H289.741V67.9492H254.563ZM317.481 22.7207H347.633V52.873H342.608V57.8984H322.506V52.873H337.582V27.7461H317.481V22.7207ZM357.684 32.7715H372.76V22.7207H382.811V57.8984H372.76V47.8476H357.684V42.8223H372.76V37.7969H357.684V32.7715ZM322.506 62.9238H332.557V83.0254H382.811V88.0508H327.532V83.0254H322.506V62.9238Z" fill="#F5F7FB"/>
<path d="M267 3.42857H268.429V2L275.571 2V3.42857H277V10.5714H275.571V12H268.429V10.5714H267V3.42857Z" fill="#F5F7FB"/>
<path d="M350 3.42857H351.429V2L358.571 2V3.42857H360V10.5714H358.571V12H351.429V10.5714H350V3.42857Z" fill="#F5F7FB"/>
</svg>
