<svg xmlns="http://www.w3.org/2000/svg" width="286" height="66" fill="none"><g filter="url(#a)"><rect width="254" height="34" x="16" y="12" fill="#fff" rx="5"/><path fill="#222" d="M37.906 24.822v4.816c0 1.19-.028 1.484-.56 2.716-.336-.07-.686-.14-1.008-.224.364-1.064.42-1.442.42-2.464v-4.27h-8.05v-.994h8.806c.238 0 .392.168.392.42Zm-5.726 4.102h1.162v5.236h5.46v1.008h-10.92V34.16h4.298v-5.236Zm17.194-5.082h1.134v8.904h-1.134v-8.904Zm1.4 12.054h-7.518c-.406 0-.686-.084-.91-.322l-.546-.518c-.252-.266-.364-.49-.364-.896v-2.422h1.134v2.31c0 .21.07.294.196.42l.252.28c.098.098.21.154.406.154h7.35v.994Zm-4.746-5.264h-3.752c-.392 0-.616-.084-.868-.308l-.644-.588c-.238-.238-.378-.448-.378-.882v-4.27c0-.266.14-.406.406-.406h5.292c.266 0 .392.14.392.406v5.586c0 .294-.14.462-.448.462Zm-3.57-1.022h2.898v-4.438h-3.822v3.514c0 .196.07.322.196.42l.266.294c.112.126.266.21.462.21Zm20.988.224h-10.92v-.952h10.92v.952Zm-9.842 2.94h7.84c.042 0 .07-.042.07-.084v-.966H53.24v-.952h9.044c.252 0 .378.14.378.364v1.862c0 .448-.35.728-.896.728h-7.378v.532c0 .098.028.168.084.238l.294.28c.056.07.126.098.224.098h7.98v.952h-8.302a.846.846 0 0 1-.644-.266l-.546-.56a.865.865 0 0 1-.238-.63v-1.246c0-.224.126-.35.364-.35Zm2.31-8.932h4.144c1.876 0 2.716.728 2.716 2.072s-.84 2.072-2.716 2.072h-4.144c-1.82 0-2.73-.728-2.73-2.072 0-1.358.91-2.072 2.73-2.072Zm0 3.164h4.144c1.106 0 1.596-.448 1.596-1.092 0-.658-.49-1.078-1.596-1.078h-4.144c-1.12 0-1.624.406-1.624 1.078 0 .644.504 1.092 1.624 1.092Zm21.277.742v2.996H76.03v-6.902h1.162v2.912h2.016v.994h-2.016Zm-8.876 3.906h8.456c.266 0 .42.126.42.392v4.018h-1.148v-3.458h-7.728v-.952Zm-.924-6.524v-.952h6.762v.952h-2.828v1.876c0 .182.126.308.238.448.854.84 1.806 1.666 2.828 2.492l-.616.728c-1.022-.826-1.96-1.582-2.856-2.436-.07-.098-.126-.154-.168-.224-.028.084-.112.126-.196.224A30.334 30.334 0 0 1 67.7 30.73l-.63-.728c1.008-.854 1.96-1.68 2.8-2.548.14-.14.266-.266.266-.448V25.13h-2.744Zm16.382 6.314h3.962c1.582 0 2.758.742 2.758 2.198s-1.162 2.212-2.758 2.212h-3.962c-1.624 0-2.772-.756-2.772-2.212 0-1.456 1.162-2.198 2.772-2.198Zm3.962.994h-3.962c-.924 0-1.638.406-1.638 1.204 0 .798.714 1.218 1.638 1.218h3.962c.91 0 1.61-.42 1.61-1.218s-.7-1.204-1.61-1.204Zm-3.64-5.6a29.843 29.843 0 0 0 2.842 2.814l-.686.728c-.994-.924-2.002-1.848-2.772-2.716-.07-.084-.154-.154-.196-.238-.028.084-.098.14-.168.238a35.216 35.216 0 0 1-2.786 2.814l-.728-.742a34.87 34.87 0 0 0 2.856-2.898c.112-.14.238-.252.238-.448v-2.436h1.134v2.436c0 .196.126.308.266.448Zm4.97-.77v-2.226H90.2v6.972h-1.134v-3.752h-2.562v-.994h2.562Zm8.165 4.144v2.198c0 1.456-.757 2.534-2.339 2.534-1.553 0-2.324-1.078-2.324-2.534v-2.198c0-1.442.77-2.52 2.325-2.52 1.582 0 2.338 1.078 2.338 2.52Zm1.651-6.286h1.134v4.662h1.82v-4.746h1.12V35.84h-1.12v-6.258h-1.82v6.174h-1.133v-11.83ZM96.11 32.41v-2.198c0-.98-.462-1.526-1.218-1.526-.77 0-1.175.546-1.175 1.526v2.198c0 .994.406 1.54 1.175 1.54.756 0 1.218-.546 1.218-1.54Zm-3.99-5.712v-.994h2.227v-1.68h1.147v1.68h2.115v.994h-5.489Zm16.775 3.234c.966 1.358 1.918 2.674 2.996 3.934l-.826.644a55.606 55.606 0 0 1-2.912-3.78c-.028-.042-.07-.084-.084-.168-.014.084-.07.126-.112.168a39.206 39.206 0 0 1-2.884 3.878l-.882-.644a34.804 34.804 0 0 0 3.024-4.032c.21-.294.266-.476.266-.868v-4.942h1.148v4.942c0 .392.07.588.266.868Zm4.816-6.09h1.134V35.84h-1.134v-6.636h-2.968v-.966h2.968v-4.396Zm15.9.98v4.816c0 1.19-.028 1.484-.56 2.716-.336-.07-.686-.14-1.008-.224.364-1.064.42-1.442.42-2.464v-4.27h-8.05v-.994h8.806c.238 0 .392.168.392.42Zm-5.726 4.102h1.162v5.236h5.46v1.008h-10.92V34.16h4.298v-5.236Zm17.195-5.082h1.134v8.904h-1.134v-8.904Zm1.4 12.054h-7.518c-.406 0-.686-.084-.91-.322l-.546-.518c-.252-.266-.364-.49-.364-.896v-2.422h1.134v2.31c0 .21.07.294.196.42l.252.28c.098.098.21.154.406.154h7.35v.994Zm-4.746-5.264h-3.752c-.392 0-.616-.084-.868-.308l-.644-.588c-.238-.238-.378-.448-.378-.882v-4.27c0-.266.14-.406.406-.406h5.292c.266 0 .392.14.392.406v5.586c0 .294-.14.462-.448.462Zm-3.57-1.022h2.898v-4.438h-3.822v3.514c0 .196.07.322.196.42l.266.294c.112.126.266.21.462.21Zm19.238-5.768h1.134V35.84h-1.134V23.842Zm-2.842 3.57v4.046c0 2.1-1.19 3.472-3.024 3.472-1.792 0-2.996-1.372-2.996-3.472v-4.046c0-2.086 1.204-3.472 2.996-3.472 1.834 0 3.024 1.386 3.024 3.472Zm-1.134 4.046v-4.046c0-1.624-.868-2.478-1.89-2.478-1.022 0-1.848.854-1.848 2.478v4.046c0 1.624.826 2.478 1.848 2.478 1.022 0 1.89-.854 1.89-2.478Zm14.324-7.532h1.12v11.83h-1.12v-6.062h-2.114v1.764c0 2.226-.826 3.472-2.632 3.472-1.82 0-2.604-1.246-2.604-3.472v-3.934c0-2.212.784-3.472 2.604-3.472 1.806 0 2.632 1.26 2.632 3.472V28.7h2.114v-4.774Zm-3.262 7.532v-3.934c0-1.75-.476-2.478-1.484-2.478-1.036 0-1.456.728-1.456 2.478v3.934c0 1.764.42 2.478 1.456 2.478 1.008 0 1.484-.714 1.484-2.478Zm5.67 4.382V23.842h1.134V35.84h-1.134Zm9.592-11.914h1.12v11.83h-1.12v-6.202h-2.142c-.126.434-.378.882-.826 1.484-.98 1.246-2.044 2.408-3.108 3.598l-.854-.756c1.05-1.134 2.058-2.226 2.982-3.43.784-1.036.784-1.54.784-2.366v-2.506h-3.486v-.994h3.962c.462 0 .686.224.686.658v3.318h2.002v-4.634Zm2.73 11.914V23.842h1.134V35.84h-1.134Zm6.997-.294v-3.36c0-.252.126-.406.406-.406h7.938c.266 0 .406.154.406.406v3.36c0 .294-.154.448-.462.448h-7.84c-.308 0-.448-.154-.448-.448Zm1.638-8.904h.882c1.736 0 2.492.84 2.492 2.086 0 1.232-.756 2.044-2.492 2.044h-.868c-1.708 0-2.506-.812-2.506-2.044 0-1.246.784-2.086 2.492-2.086Zm-.504 8.386h6.482v-2.296h-6.482v2.296Zm-2.8-9.212v-.994h3.122v-1.316h1.162v1.316h3.108v.994h-7.392Zm9.282-1.974h1.134v7.28h-1.134v-7.28Zm-5.964 5.95h.868c.966 0 1.386-.476 1.386-1.064 0-.602-.42-1.092-1.386-1.092h-.882c-.994 0-1.386.49-1.386 1.092 0 .588.406 1.064 1.4 1.064Zm20.036.042h-10.92v-.952h10.92v.952Zm-9.842 2.94h7.84c.042 0 .07-.042.07-.084v-.966h-8.274v-.952h9.044c.252 0 .378.14.378.364v1.862c0 .448-.35.728-.896.728h-7.378v.532c0 .098.028.168.084.238l.294.28c.056.07.126.098.224.098h7.98v.952h-8.302a.846.846 0 0 1-.644-.266l-.546-.56a.865.865 0 0 1-.238-.63v-1.246c0-.224.126-.35.364-.35Zm2.31-8.932h4.144c1.876 0 2.716.728 2.716 2.072s-.84 2.072-2.716 2.072h-4.144c-1.82 0-2.73-.728-2.73-2.072 0-1.358.91-2.072 2.73-2.072Zm0 3.164h4.144c1.106 0 1.596-.448 1.596-1.092 0-.658-.49-1.078-1.596-1.078h-4.144c-1.12 0-1.624.406-1.624 1.078 0 .644.504 1.092 1.624 1.092Zm12.443-1.876v-.994h9.352v.994h-4.116v1.204c0 .196.084.28.252.392 1.274.784 2.744 1.582 4.2 2.352l-.532.924a79.014 79.014 0 0 1-4.312-2.478.476.476 0 0 1-.168-.196c-.042.098-.084.14-.196.196a44.432 44.432 0 0 1-4.27 2.534l-.518-.924c1.414-.728 2.814-1.526 4.102-2.408.14-.098.252-.196.252-.392V25.13h-4.046Zm5.236 10.92h-1.134v-3.948h-4.844v-1.008h10.836v1.008h-4.858v3.948Zm9.578-6.314c.756 1.4 1.624 2.8 2.576 4.186l-.868.532c-.826-1.232-1.624-2.436-2.324-3.738a.404.404 0 0 1-.084-.238.422.422 0 0 1-.112.238 63.399 63.399 0 0 1-2.296 3.85l-.882-.546c.924-1.4 1.75-2.842 2.506-4.284a1.09 1.09 0 0 0 .168-.574v-4.928h1.148v4.928c0 .21.07.392.168.574Zm3.64-5.81h1.12v11.83h-1.12v-6.65h-2.142v-.966h2.142v-4.214Zm2.688 11.914V23.842h1.134V35.84h-1.134Zm7.058-11.634h2.254c2.366 0 3.696 1.372 3.696 3.402 0 1.512-.756 2.66-2.114 3.136v3.346h2.744v1.008h-10.92V34.09h2.716v-3.374c-1.344-.49-2.1-1.61-2.1-3.108 0-2.044 1.372-3.402 3.724-3.402Zm.014 5.796h2.24c1.624 0 2.576-1.022 2.576-2.394 0-1.386-.952-2.408-2.576-2.408h-2.254c-1.638 0-2.618 1.008-2.618 2.408 0 1.372.994 2.394 2.632 2.394Zm0 .98c-.168 0-.322 0-.476-.014v3.122h3.15v-3.122c-.14.014-.294.014-.434.014h-2.24Zm10.166 2.898v1.204h-1.162V33.88h1.162Zm.07-9.702-.182 8.26h-.938l-.182-8.26h1.302Z"/></g><defs><filter id="a" width="286" height="66" x="0" y="0" color-interpolation-filters="sRGB" filterUnits="userSpaceOnUse"><feFlood flood-opacity="0" result="BackgroundImageFix"/><feColorMatrix in="SourceAlpha" result="hardAlpha" values="0 0 0 0 0 0 0 0 0 0 0 0 0 0 0 0 0 0 127 0"/><feOffset dy="4"/><feGaussianBlur stdDeviation="8"/><feComposite in2="hardAlpha" operator="out"/><feColorMatrix values="0 0 0 0 0.164706 0 0 0 0 0.176471 0 0 0 0 0.215686 0 0 0 0.12 0"/><feBlend in2="BackgroundImageFix" result="effect1_dropShadow_3291_17875"/><feBlend in="SourceGraphic" in2="effect1_dropShadow_3291_17875" result="shape"/></filter></defs></svg>