<svg xmlns="http://www.w3.org/2000/svg" width="74" height="66" fill="none">
  <path fill="#FF7860" d="M44.106 58.475c14.277-4.156 22.53-18.93 18.435-33-4.095-14.07-18.989-22.107-33.266-17.95-14.276 4.155-22.53 18.93-18.435 33 4.096 14.069 18.99 22.105 33.266 17.95Z"/>
  <path fill="#FF7860" d="M37.083 51.847c-7.442-.07-12.256 1.146-12.256 1.146-.499 1.815 3.896 3.65 3.757 7.4-.087 2.376-2.299 3.69-2.076 4.211.235.553 2.528.293 5.145-1.473 1.505-1.014 5.511-4.791 5.43-11.284Z"/>
  <path fill="#DB5146" d="M33.413 23.663c.177 2.817 1.714 3.421 4.574 3.233 2.857-.188 16.848-14.416 17.076-17.23.2-2.469-3.85-5.61-5.972-5.263-2.83.458-15.855 16.443-15.678 19.26Z"/>
  <path fill="#DB5146" d="M13.372 9.74c.886 2.697 19.943 17.328 22.8 17.14 2.857-.188 3.378-.999 5.717-3.697.84-.97-19.045-19.474-22.843-19.908-2.434-.278-6.554 3.78-5.674 6.464Z"/>
  <path fill="url(#a)" d="M42.773 35.51c.975 3.744 4.843 5.976 8.644 4.983 3.798-.993 6.087-4.832 5.112-8.578-.976-3.743-4.843-5.975-8.644-4.982-3.798.993-6.088 4.835-5.112 8.578Z"/>
  <path fill="url(#b)" d="M18.253 35.415c.976 3.743 4.843 5.975 8.644 4.982 3.798-.993 6.088-4.831 5.112-8.577-.975-3.744-4.843-5.975-8.644-4.983-3.798.996-6.087 4.835-5.112 8.578Z"/>
  <path fill="#0C0C0C" d="M32.19 31.575c1.074-.312 1.694-1.423 1.386-2.48-.308-1.058-1.427-1.662-2.5-1.35-1.073.312-1.694 1.423-1.386 2.48.308 1.058 1.428 1.663 2.5 1.35Z"/>
  <path fill="#0C0C0C" fill-rule="evenodd" d="M41.125 35.02a.302.302 0 0 1 .131.407c-.107.207-.293.403-.502.576a4.76 4.76 0 0 1-.747.495c-.543.296-1.184.532-1.715.582-.89.084-1.598.046-2.217-.115-.621-.163-1.135-.445-1.641-.827a.302.302 0 1 1 .364-.483c.46.348.903.587 1.43.725.53.138 1.162.177 2.007.099m2.89-1.46a.302.302 0 0 0-.407.131l.407-.13Zm-.407.131c-.052.103-.167.237-.35.387l.35-.387Zm-.35.387a4.163 4.163 0 0 1-.65.43l.65-.43Zm-.65.43c-.5.273-1.062.472-1.483.512l1.483-.512Z" clip-rule="evenodd"/>
  <path fill="#0C0C0C" d="M43.605 31.122c1.073-.312 1.693-1.423 1.385-2.48-.308-1.058-1.427-1.662-2.5-1.35-1.073.312-1.694 1.423-1.386 2.48.308 1.058 1.428 1.663 2.5 1.35Z"/>
  <path fill="#fff" d="M44.06 29.276a.75.75 0 0 0 .496-.937.75.75 0 0 0-.945-.481.75.75 0 0 0-.496.937.75.75 0 0 0 .945.481Z"/>
  <path fill="#000" fill-rule="evenodd" d="M40.802 33.594c.166.01.294.152.285.319-.019.326-.004.491.043.633.05.148.143.297.344.578.136.19.337.334.53.434a1.941 1.941 0 0 0 .345.138l.034.008a.302.302 0 0 1-.076.6 2.036 2.036 0 0 1-.58-.21 2.106 2.106 0 0 1-.744-.618h-.001c-.196-.275-.343-.492-.425-.74-.085-.252-.093-.511-.074-.857a.302.302 0 0 1 .319-.285ZM34.889 34.092c.166.01.293.154.283.32l-.004.093a2.93 2.93 0 0 1-.056.513 2.519 2.519 0 0 1-.39.872c-.22.331-.538.541-.807.672a3.127 3.127 0 0 1-.606.218.302.302 0 1 1-.149-.586c.08-.02.276-.07.49-.175.217-.106.43-.256.57-.464.184-.278.263-.492.3-.665.031-.14.036-.255.042-.387l.007-.127a.302.302 0 0 1 .32-.284Z" clip-rule="evenodd"/>
  <path fill="#fff" d="M43.167 29.836a.75.75 0 0 0-.58-.887.75.75 0 0 0-.897.566.75.75 0 0 0 .58.888.75.75 0 0 0 .897-.567ZM31.714 30.188a.75.75 0 0 0-.58-.888.75.75 0 0 0-.897.567.75.75 0 0 0 .58.887.75.75 0 0 0 .897-.566Z"/>
  <path fill="#FF7860" d="M14.208 23.736c-1.595-1.616-2.432-2.227-4.204-4.102-1.615-1.714-3.48-3.049-4.805-3.216-1.728-.218-2.863 1.476-2.753 2.472.275 2.5 1.72 4.501 2.582 5.584.79.99 2.655 3.398 4.1 4.66 1.012.883 3.982 2.904 6.15 2.22 1.376-.43 2.013-1.846 1.772-3.29-.2-1.248-.92-2.386-2.842-4.328Z"/>
  <path fill="#fff" d="M32.579 29.71a.75.75 0 0 0 .495-.938.75.75 0 0 0-.945-.48.75.75 0 0 0-.495.937.75.75 0 0 0 .945.48Z"/>
  <path fill="#FF7860" d="M63.687 28.068c1.6-1.763 2.197-2.672 4.06-4.632 1.703-1.788 3.003-3.815 3.122-5.216.153-1.827-1.642-2.924-2.66-2.756-2.571.423-4.575 2.047-5.657 3.014-.99.883-3.396 2.967-4.64 4.553-.872 1.112-2.832 4.34-2.042 6.577.501 1.419 1.99 2.012 3.468 1.685 1.28-.286 2.423-1.103 4.349-3.225Z"/>
  <path fill="#FF7860" d="M68.14 23.413a5.645 5.645 0 1 0 0-11.29 5.645 5.645 0 0 0 0 11.29ZM5.645 24.376a5.645 5.645 0 1 0 0-11.29 5.645 5.645 0 0 0 0 11.29Z"/>
  <defs>
    <radialGradient id="a" cx="0" cy="0" r="1" gradientTransform="translate(49.651 33.715) scale(7.05933)" gradientUnits="userSpaceOnUse">
      <stop stop-color="#DB353F" stop-opacity=".6"/>
      <stop offset=".186" stop-color="#E54848" stop-opacity=".674"/>
      <stop offset=".5" stop-color="#F36255" stop-opacity=".8"/>
      <stop offset=".781" stop-color="#FC725D" stop-opacity=".912"/>
      <stop offset="1" stop-color="#FF7860"/>
    </radialGradient>
    <radialGradient id="b" cx="0" cy="0" r="1" gradientTransform="matrix(7.05933 0 0 7.05934 25.13 33.62)" gradientUnits="userSpaceOnUse">
      <stop stop-color="#DB353F" stop-opacity=".6"/>
      <stop offset=".186" stop-color="#E54848" stop-opacity=".674"/>
      <stop offset=".5" stop-color="#F36255" stop-opacity=".8"/>
      <stop offset=".781" stop-color="#FC725D" stop-opacity=".912"/>
      <stop offset="1" stop-color="#FF7860"/>
    </radialGradient>
  </defs>
</svg>