<svg xmlns="http://www.w3.org/2000/svg" width="184" height="66" fill="none"><g filter="url(#a)"><rect width="152" height="34" x="16" y="12" fill="#fff" rx="5"/><path fill="#222" d="M32.152 24.206h2.38c2.38 0 3.696 1.372 3.696 3.402 0 2.016-1.316 3.374-3.696 3.374h-.658v3.192h4.928v1.008h-10.92v-1.008h4.858v-3.192h-.574c-2.352 0-3.724-1.358-3.724-3.374 0-2.044 1.358-3.402 3.71-3.402Zm.014 5.796h2.366c1.638 0 2.59-1.022 2.59-2.394 0-1.386-.952-2.408-2.59-2.408h-2.38c-1.624 0-2.604 1.008-2.604 2.408 0 1.372.98 2.394 2.618 2.394Zm17.012 2.702v-.98h-8.274v-.952h9.044c.252 0 .378.14.378.364v2.058c0 .35-.252.546-.672.546h-7.602v.476c0 .084.028.168.084.224l.336.336c.056.07.14.098.238.098h7.924v.952h-8.246c-.266 0-.49-.084-.644-.266l-.602-.616a.844.844 0 0 1-.238-.63v-1.176c0-.224.126-.35.364-.35h7.826c.056 0 .084-.042.084-.084Zm1.218-4.914H42.64c-.294 0-.56-.07-.756-.252l-.672-.644a.95.95 0 0 1-.294-.714v-2.268h1.162v2.1c0 .14.042.224.126.308l.378.392c.07.07.182.112.294.112h7.518v.966Zm.728 1.988h-10.92v-.952h10.92v.952Zm2.088-1.022V24.64c0-.308.154-.434.476-.434h8.932v.994h-8.26v3.374c0 .266.098.434.252.546l.476.49c.14.112.35.21.658.21h6.972v1.022h-4.186v3.416h4.928v1.008H52.54v-1.008h4.858v-3.416H55.48c-.448 0-.784-.126-1.078-.378l-.742-.728c-.28-.224-.448-.49-.448-.98Zm24.385-3.934v4.816c0 1.19-.028 1.484-.56 2.716-.336-.07-.686-.14-1.008-.224.364-1.064.42-1.442.42-2.464v-4.27H68.4v-.994h8.806c.238 0 .392.168.392.42Zm-5.726 4.102h1.162v5.236h5.46v1.008h-10.92V34.16h4.298v-5.236Zm17.194-5.082H90.2v8.904h-1.134v-8.904Zm1.4 12.054h-7.518c-.406 0-.686-.084-.91-.322l-.546-.518c-.252-.266-.364-.49-.364-.896v-2.422h1.134v2.31c0 .21.07.294.196.42l.252.28c.098.098.21.154.406.154h7.35v.994Zm-4.746-5.264h-3.752c-.392 0-.616-.084-.868-.308l-.644-.588c-.238-.238-.378-.448-.378-.882v-4.27c0-.266.14-.406.406-.406h5.292c.266 0 .392.14.392.406v5.586c0 .294-.14.462-.448.462Zm-3.57-1.022h2.898v-4.438h-3.822v3.514c0 .196.07.322.196.42l.266.294c.112.126.266.21.462.21Zm16.265 2.086h1.4v-1.022H94.97v-.966h10.836v.966h-4.858v1.022h1.428c1.862 0 2.856.714 2.856 2.1 0 1.372-.994 2.086-2.856 2.086h-3.962c-1.834 0-2.884-.714-2.884-2.086 0-1.4 1.05-2.1 2.884-2.1Zm-2.688-6.034v-.994H99.8v-1.134h1.134v1.134h4.144v.994h-4.116v.686c0 .196.098.336.266.392 1.33.49 2.688.952 4.046 1.344l-.322.882c-1.442-.406-2.898-.91-4.34-1.428a.359.359 0 0 1-.21-.196c-.042.098-.112.154-.224.196-1.358.518-2.856 1.064-4.34 1.512l-.308-.91a70.003 70.003 0 0 0 3.976-1.4.396.396 0 0 0 .266-.392v-.686h-4.046Zm2.688 9.24h3.962c1.106 0 1.736-.378 1.736-1.106 0-.728-.63-1.106-1.736-1.106h-3.962c-1.134 0-1.778.364-1.778 1.106 0 .728.644 1.106 1.778 1.106Zm19.448.952h-7.504c-.294 0-.574-.07-.77-.252l-.714-.714c-.196-.196-.28-.434-.28-.728v-2.338h1.134v2.212c0 .126.056.224.14.294l.434.448a.39.39 0 0 0 .28.112h7.28v.966ZM107.32 25.158v-.952h6.902v.952h-2.842v2.114c0 .196.126.308.238.448.924.966 1.876 1.82 2.856 2.618l-.686.756c-1.008-.826-2.03-1.708-2.828-2.548-.084-.084-.14-.14-.168-.224-.028.084-.112.126-.196.224-.868.938-1.862 1.82-2.884 2.646l-.728-.812a26.921 26.921 0 0 0 2.87-2.66c.126-.14.252-.252.252-.448v-2.114h-2.786Zm9.114 1.526v-2.842h1.134v8.932h-1.134v-5.082h-2.324v-1.008h2.324Zm9.405-2.66c2.002 0 3.08 1.204 3.08 2.52v.21c0 1.204-.882 2.296-2.534 2.492v1.092h3.416v1.008h-7.868v-1.008h3.304v-1.106c-1.624-.21-2.506-1.288-2.506-2.478v-.21c0-1.316 1.106-2.52 3.108-2.52Zm4.928-.182h1.162v3.472h2.016v.994h-2.016v4.424h-1.162v-8.89Zm1.414 12.054h-7.224c-.42 0-.728-.084-.966-.336l-.448-.434c-.266-.252-.378-.518-.378-.938V32.41h1.148v1.624c0 .252.028.322.168.462l.28.266c.14.126.196.14.462.14h6.958v.994Zm-4.368-9.184v-.126c0-.868-.77-1.568-1.974-1.568-1.218 0-1.988.7-1.988 1.568v.126c0 .868.77 1.582 1.988 1.582 1.204 0 1.974-.714 1.974-1.582Zm15.78.588v-1.96h-8.232v-.994h8.946c.294 0 .42.154.42.406v2.926c0 .448-.308.714-.84.714h-7.364v1.162c0 .252.07.364.21.504l.196.224c.126.126.28.196.532.196h7.406v.994h-2.142v2.758h2.828v.994h-10.92v-.994h2.828v-2.758h-.252c-.434 0-.686-.07-.938-.308l-.56-.532c-.252-.252-.35-.504-.35-.924v-1.876c0-.252.154-.392.434-.392h7.644c.112 0 .154-.042.154-.14Zm-4.998 6.93h2.982v-2.758h-2.982v2.758Zm10.558-.35v1.204h-1.162V33.88h1.162Zm.07-9.702-.182 8.26h-.938l-.182-8.26h1.302Z"/></g><defs><filter id="a" width="184" height="66" x="0" y="0" color-interpolation-filters="sRGB" filterUnits="userSpaceOnUse"><feFlood flood-opacity="0" result="BackgroundImageFix"/><feColorMatrix in="SourceAlpha" result="hardAlpha" values="0 0 0 0 0 0 0 0 0 0 0 0 0 0 0 0 0 0 127 0"/><feOffset dy="4"/><feGaussianBlur stdDeviation="8"/><feComposite in2="hardAlpha" operator="out"/><feColorMatrix values="0 0 0 0 0.164706 0 0 0 0 0.176471 0 0 0 0 0.215686 0 0 0 0.12 0"/><feBlend in2="BackgroundImageFix" result="effect1_dropShadow_3206_17343"/><feBlend in="SourceGraphic" in2="effect1_dropShadow_3206_17343" result="shape"/></filter></defs></svg>