<svg xmlns="http://www.w3.org/2000/svg" width="187" height="130" viewBox="0 0 187 130" fill="none">
    <g clip-path="url(#clip0_3201_16021)">
        <path d="M10.6302 128.849C3.85017 128.729 -11.3698 118.849 14.6302 118.849C35.4802 118.849 33.6302 78.8491 41.6302 55.8491C47.6702 38.4791 62.1402 21.5891 84.2402 15.1891C102.98 9.76905 116.94 14.6491 127.86 22.1691C153.87 40.0791 154.63 69.8491 152.28 80.9091C150.21 90.6391 145.15 107.849 127.63 119.849C119.01 125.759 100.63 129.849 78.6302 129.849C53.9502 129.849 19.8702 129.019 10.6302 128.849Z" fill="#FF7860"/>
        <path d="M102.77 51.9898C101.32 57.5198 103.87 59.3298 109.41 60.1598C114.96 60.9898 150.53 39.2498 152.74 33.8798C154.68 29.1798 148.97 21.3998 144.73 21.1898C139.07 20.9098 104.22 46.4598 102.77 51.9898Z" fill="#DB5146"/>
        <path d="M69.6504 10.3993C69.6204 15.9993 100.43 58.5493 105.97 59.3793C111.52 60.2093 113.02 58.8493 119.17 54.5993C121.38 53.0693 91.4504 2.66933 84.5104 0.239328C80.0604 -1.31067 69.6704 4.83933 69.6504 10.3993Z" fill="#DB5146"/>
        <path d="M96.8905 64.8002C98.1518 63.9151 98.4466 62.1605 97.5488 60.881C96.651 59.6016 94.9007 59.2819 93.6394 60.167C92.378 61.052 92.0833 62.8067 92.981 64.0862C93.8788 65.3656 95.6291 65.6853 96.8905 64.8002Z" fill="black"/>
        <path d="M149.351 80.97C154.661 81.14 156.901 81.68 162.991 81.7C168.541 81.72 173.491 82.98 175.241 85.4C177.521 88.56 174.851 94.19 172.491 95.9C166.541 100.19 160.521 101.08 157.171 101.4C154.111 101.69 146.731 102.51 142.381 101.97C139.331 101.59 131.691 99.36 130.991 93.55C130.551 89.87 133.091 85.8 136.611 83.49C139.651 81.48 142.971 80.77 149.351 80.97Z" fill="#FF7860"/>
        <path d="M117.469 70.2495C118.73 69.3644 119.025 67.6097 118.127 66.3302C117.229 65.0508 115.479 64.7311 114.217 65.6162C112.956 66.5013 112.661 68.2559 113.559 69.5354C114.457 70.8148 116.207 71.1345 117.469 70.2495Z" fill="black"/>
        <path d="M26.6307 95.8487C19.5807 93.8687 32.4507 67.0287 37.6307 61.8487C44.6307 54.8487 39.6307 48.8487 53.8507 52.7287C60.9107 54.6587 65.0107 62.0187 63.0307 69.0687C61.0507 76.1187 33.6707 97.8287 26.6307 95.8487Z" fill="url(#paint0_linear_3201_16021)"/>
        <path d="M34.4993 86.6096C39.6293 84.6996 44.9793 82.7096 50.0993 87.4896C54.4893 91.5796 53.9493 97.5596 51.9493 101.16C49.5193 105.55 37.0393 109.45 30.5293 108.39C24.1293 107.35 20.1293 106.35 16.1293 103.35C11.5193 99.8896 10.8193 92.0496 12.1293 86.3496C13.2593 81.4096 17.2393 74.4996 24.8993 70.6996C29.4993 68.4096 34.9593 65.0596 39.1293 59.3496" fill="#FF7860"/>
        <path d="M34.4993 86.6096C39.6293 84.6996 44.9793 82.7096 50.0993 87.4896C54.4893 91.5796 53.9493 97.5596 51.9493 101.16C49.5193 105.55 37.0393 109.45 30.5293 108.39C24.1293 107.35 20.1293 106.35 16.1293 103.35C11.5193 99.8896 10.8193 92.0496 12.1293 86.3496C13.2593 81.4096 17.2393 74.4996 24.8993 70.6996C29.4993 68.4096 34.9593 65.0596 39.1293 59.3496" stroke="white" stroke-miterlimit="10" stroke-linecap="round"/>
        <path d="M172.961 104.619C180.279 104.619 186.211 98.6869 186.211 91.3691C186.211 84.0514 180.279 78.1191 172.961 78.1191C165.643 78.1191 159.711 84.0514 159.711 91.3691C159.711 98.6869 165.643 104.619 172.961 104.619Z" fill="url(#paint1_linear_3201_16021)"/>
        <path d="M108.41 77.7197C107.45 78.6497 104.34 79.1797 102.56 78.7597C99.3205 77.9997 97.7905 76.8397 96.4805 74.9297" stroke="#0C0C0C" stroke-width="1.1572" stroke-miterlimit="10" stroke-linecap="round"/>
        <path d="M108.9 75.0684C108.42 76.2584 108.46 76.6384 108.85 77.8884C109.19 78.9784 110.21 79.7384 110.45 79.8484" stroke="black" stroke-width="1.1572" stroke-miterlimit="10" stroke-linecap="round"/>
        <path d="M97.8594 72.3691C97.6194 72.9691 97.4394 73.6691 96.3194 74.5391C95.3394 75.2991 93.9394 75.1991 93.6094 75.1691" stroke="black" stroke-width="1.1572" stroke-miterlimit="10" stroke-linecap="round"/>
    </g>
    <defs>
        <linearGradient id="paint0_linear_3201_16021" x1="51.4314" y1="52.0516" x2="38.231" y2="99.1058" gradientUnits="userSpaceOnUse">
            <stop stop-color="#FF7860"/>
            <stop offset="0.9343" stop-color="#FF7860"/>
        </linearGradient>
        <linearGradient id="paint1_linear_3201_16021" x1="176.545" y1="78.6142" x2="169.387" y2="104.132" gradientUnits="userSpaceOnUse">
            <stop stop-color="#FF7860"/>
            <stop offset="0.9343" stop-color="#FF7860"/>
        </linearGradient>
        <clipPath id="clip0_3201_16021">
            <rect width="186.22" height="129.85" fill="white"/>
        </clipPath>
    </defs>
</svg>
