<svg width="400" height="236" viewBox="0 0 400 236" fill="none" xmlns="http://www.w3.org/2000/svg">
<path d="M122.296 70.1733C119.448 70.1733 117.394 69.5947 116.135 68.4373C114.93 67.2249 114.273 65.7369 114.163 63.9733C113.561 65.8471 112.274 67.5004 110.302 68.9333C108.385 70.3111 105.592 71 101.923 71C99.7869 71 97.7058 70.5867 95.6794 69.76C93.6531 68.8782 91.8458 67.4453 90.2576 65.4613C88.6693 63.4773 87.3823 60.832 86.3965 57.5253C85.4655 54.2187 85 50.1129 85 45.208C85 43.3342 85.1095 41.1849 85.3286 38.76C85.5477 36.28 85.9858 33.7724 86.643 31.2373C87.3549 28.6471 88.3407 26.1396 89.6004 23.7147C90.9147 21.2347 92.6125 19.0302 94.6936 17.1013C96.8295 15.1724 99.4309 13.6293 102.498 12.472C105.565 11.2596 109.234 10.6533 113.506 10.6533C116.299 10.6533 118.791 10.9564 120.981 11.5627C123.227 12.1689 125.116 13.0231 126.65 14.1253C128.238 15.2276 129.443 16.5778 130.264 18.176C131.14 19.7742 131.579 21.5653 131.579 23.5493C131.579 26.7458 130.538 29.1707 128.457 30.824C126.376 32.4222 123.446 33.2213 119.667 33.2213C118.462 33.2213 117.723 33.1387 117.449 32.9733C117.23 32.7529 117.093 32.3396 117.038 31.7333C116.929 30.7413 116.847 29.7493 116.792 28.7573C116.792 27.7653 116.655 26.856 116.381 26.0293C116.162 25.2027 115.751 24.5413 115.149 24.0453C114.546 23.5493 113.588 23.3013 112.274 23.3013C109.59 23.3013 107.454 24.0729 105.866 25.616C104.278 27.1591 103.073 29.0329 102.251 31.2373C101.43 33.4418 100.91 35.7289 100.691 38.0987C100.471 40.4133 100.362 42.3698 100.362 43.968C100.362 46.6133 100.526 48.8453 100.855 50.664C101.183 52.4276 101.649 53.888 102.251 55.0453C102.909 56.1476 103.675 56.9467 104.552 57.4427C105.428 57.8836 106.441 58.104 107.591 58.104C109.672 58.104 111.425 57.6631 112.849 56.7813C114.273 55.8996 115.121 54.3013 115.395 51.9867L115.888 47.3573C116.052 45.7591 116.271 44.464 116.545 43.472C116.819 42.4249 117.476 41.9013 118.517 41.9013H123.035C124.404 41.9013 125.5 42.0667 126.321 42.3973C127.197 42.6729 127.855 43.1689 128.293 43.8853C128.786 44.5467 129.114 45.4284 129.278 46.5307C129.443 47.6329 129.525 48.9831 129.525 50.5813C129.525 51.6836 129.47 53.144 129.361 54.9627C129.306 56.7813 129.196 58.6276 129.032 60.5013C128.922 62.3751 128.786 64.1111 128.621 65.7093C128.457 67.2524 128.32 68.3271 128.211 68.9333C128.101 69.4293 127.964 69.76 127.8 69.9253C127.635 70.0907 127.307 70.1733 126.814 70.1733H122.296Z" fill="#FF7860"/>
<path d="M155.547 71C151.768 71 148.619 70.4764 146.1 69.4293C143.635 68.3271 141.664 66.8391 140.185 64.9653C138.706 63.0916 137.666 60.9147 137.063 58.4347C136.461 55.8996 136.16 53.1991 136.16 50.3333C136.16 47.0267 136.543 43.8027 137.31 40.6613C138.131 37.4649 139.5 34.6267 141.417 32.1467C143.334 29.6667 145.853 27.6827 148.975 26.1947C152.151 24.6516 156.095 23.88 160.805 23.88C167.705 23.88 172.634 25.5884 175.591 29.0053C178.604 32.3671 180.11 37.1067 180.11 43.224C180.11 44.9324 179.973 46.8338 179.699 48.928C179.48 50.9671 179.014 53.0062 178.302 55.0453C177.645 57.0844 176.714 59.0684 175.509 60.9973C174.359 62.9262 172.88 64.6347 171.073 66.1227C169.266 67.6107 167.075 68.7956 164.501 69.6773C161.982 70.5591 158.997 71 155.547 71ZM159.408 34.8747C157.327 34.8747 155.656 35.4258 154.397 36.528C153.192 37.5751 152.261 38.8702 151.604 40.4133C151.001 41.9013 150.591 43.4996 150.372 45.208C150.207 46.8613 150.125 48.2667 150.125 49.424C150.125 53.0613 150.7 55.7342 151.85 57.4427C153 59.1511 154.643 60.0053 156.779 60.0053C158.696 60.0053 160.257 59.3991 161.462 58.1867C162.721 56.9742 163.68 55.5138 164.337 53.8053C165.049 52.0969 165.514 50.3058 165.733 48.432C166.007 46.5582 166.144 44.9876 166.144 43.72C166.144 40.9644 165.624 38.8151 164.583 37.272C163.598 35.6738 161.872 34.8747 159.408 34.8747Z" fill="#FF7860"/>
<path d="M211.709 58.104C213.954 58.104 215.844 57.7733 217.377 57.112C218.965 56.4507 220.307 55.7067 221.402 54.88C222.498 54.0533 223.456 53.3093 224.278 52.648C225.154 51.9867 226.03 51.656 226.906 51.656C228.002 51.656 228.549 52.4827 228.549 54.136C228.549 55.0178 228.44 56.0924 228.221 57.36C228.002 58.5724 227.701 59.9502 227.317 61.4933C227.098 62.4302 226.55 63.4498 225.674 64.552C224.853 65.6542 223.703 66.7013 222.224 67.6933C220.745 68.6302 218.911 69.4293 216.72 70.0907C214.584 70.6969 212.12 71 209.326 71C206.533 71 203.74 70.5867 200.947 69.76C198.154 68.9333 195.662 67.528 193.472 65.544C191.281 63.56 189.501 60.8871 188.132 57.5253C186.763 54.1636 186.078 49.9476 186.078 44.8773C186.078 43.0587 186.188 40.9644 186.407 38.5947C186.681 36.1698 187.174 33.6898 187.886 31.1547C188.597 28.6196 189.583 26.1396 190.843 23.7147C192.157 21.2347 193.828 19.0302 195.854 17.1013C197.88 15.1724 200.345 13.6293 203.247 12.472C206.205 11.2596 209.71 10.6533 213.763 10.6533C216.994 10.6533 219.787 11.0391 222.142 11.8107C224.551 12.5822 226.523 13.6569 228.057 15.0347C229.645 16.3573 230.795 17.928 231.507 19.7467C232.273 21.5653 232.657 23.4942 232.657 25.5333C232.657 29.0604 231.616 31.6507 229.535 33.304C227.509 34.9022 224.606 35.7013 220.827 35.7013C219.623 35.7013 218.856 35.6187 218.527 35.4533C218.253 35.2329 218.116 34.8196 218.116 34.2133C218.062 32.3396 218.007 30.7138 217.952 29.336C217.897 27.9582 217.706 26.8284 217.377 25.9467C217.048 25.0098 216.528 24.3484 215.816 23.9627C215.159 23.5218 214.228 23.3013 213.023 23.3013C211.271 23.3013 209.765 23.6871 208.505 24.4587C207.3 25.1751 206.26 26.1396 205.383 27.352C204.562 28.5093 203.877 29.832 203.33 31.32C202.837 32.808 202.426 34.3236 202.097 35.8667C201.824 37.4098 201.632 38.8978 201.522 40.3307C201.468 41.7636 201.44 43.0036 201.44 44.0507C201.44 49.1209 202.262 52.7307 203.905 54.88C205.602 57.0293 208.204 58.104 211.709 58.104Z" fill="#FF7860"/>
<path d="M264.218 59.9227C264.382 58.104 264.546 56.2027 264.71 54.2187C264.93 52.2347 265.094 50.3333 265.203 48.5147C265.368 46.696 265.505 45.0702 265.614 43.6373C265.724 42.2044 265.778 41.1573 265.778 40.496C265.778 39.0631 265.422 37.7956 264.71 36.6933C264.053 35.536 262.739 34.9573 260.767 34.9573C258.139 34.9573 256.003 36.1973 254.36 38.6773C252.771 41.1573 251.84 44.464 251.567 48.5973C251.457 49.7547 251.32 51.3804 251.156 53.4747C250.992 55.5138 250.827 57.608 250.663 59.7573C250.499 61.8516 250.334 63.7529 250.17 65.4613C250.061 67.1147 250.006 68.1342 250.006 68.52C250.006 69.1813 249.869 69.6222 249.595 69.8427C249.376 70.0631 248.91 70.1733 248.198 70.1733H245.241C243.543 70.1733 242.147 70.008 241.051 69.6773C240.011 69.2916 239.162 68.768 238.505 68.1067C237.902 67.4453 237.464 66.6462 237.19 65.7093C236.971 64.7173 236.862 63.5876 236.862 62.32C236.862 61.1076 236.944 59.4267 237.108 57.2773C237.327 55.0729 237.601 52.0693 237.93 48.2667C238.258 44.4089 238.642 39.504 239.08 33.552C239.518 27.6 239.984 20.2151 240.476 11.3973C240.531 10.1849 240.668 9.46844 240.887 9.248C241.051 9.08266 241.49 9 242.202 9H245.405C247.048 9 248.418 9.19289 249.513 9.57866C250.608 9.96444 251.484 10.488 252.142 11.1493C252.799 11.8107 253.264 12.5822 253.538 13.464C253.812 14.2907 253.949 15.1724 253.949 16.1093C253.949 17.1013 253.839 18.9476 253.62 21.648C253.456 24.3484 253.237 27.5173 252.963 31.1547C254.606 28.3991 256.413 26.4978 258.385 25.4507C260.411 24.4036 262.958 23.88 266.025 23.88C268.325 23.88 270.324 24.128 272.022 24.624C273.72 25.12 275.116 25.9742 276.211 27.1867C277.361 28.344 278.21 29.8871 278.758 31.816C279.306 33.6898 279.579 36.032 279.579 38.8427C279.579 39.7244 279.497 41.24 279.333 43.3893C279.169 45.5387 278.95 47.9911 278.676 50.7467C278.457 53.5022 278.21 56.3956 277.937 59.4267C277.717 62.4027 277.526 65.1307 277.361 67.6107C277.307 68.2169 277.252 68.6853 277.197 69.016C277.142 69.3467 277.033 69.5947 276.869 69.76C276.759 69.9253 276.567 70.0356 276.294 70.0907C276.02 70.1458 275.636 70.1733 275.143 70.1733H272.515C270.762 70.1733 269.338 70.008 268.243 69.6773C267.148 69.3467 266.299 68.8782 265.696 68.272C265.094 67.6658 264.656 66.9218 264.382 66.04C264.163 65.1031 264.053 64.056 264.053 62.8987C264.053 62.3476 264.053 61.824 264.053 61.328C264.108 60.832 264.163 60.3636 264.218 59.9227Z" fill="#FF7860"/>
<path d="M284.459 60.0053C284.459 55.0453 286.677 51.16 291.113 48.3493C295.549 45.5387 302.094 44.0231 310.747 43.8027C310.802 43.1964 310.829 42.7004 310.829 42.3147C310.884 41.8738 310.911 41.3502 310.911 40.744C310.911 38.9804 310.582 37.5751 309.925 36.528C309.268 35.4809 307.899 34.9573 305.818 34.9573C304.668 34.9573 303.737 35.1227 303.025 35.4533C302.313 35.784 301.738 36.2524 301.3 36.8587C300.861 37.4098 300.506 38.0987 300.232 38.9253C299.958 39.752 299.711 40.6613 299.492 41.6533C299.383 42.1493 299.136 42.48 298.753 42.6453C298.37 42.7556 297.767 42.8107 296.946 42.8107C291.36 42.8107 288.566 40.6889 288.566 36.4453C288.566 34.7369 288.95 33.1111 289.717 31.568C290.538 30.0249 291.716 28.7022 293.249 27.6C294.837 26.4427 296.809 25.5333 299.164 24.872C301.519 24.2107 304.257 23.88 307.379 23.88C313.458 23.88 317.866 25.1476 320.605 27.6827C323.343 30.2178 324.712 33.8 324.712 38.4293C324.712 39.0356 324.63 40.1378 324.466 41.736C324.356 43.2791 324.192 44.9324 323.973 46.696C323.809 48.4044 323.644 50.0302 323.48 51.5733C323.37 53.1164 323.316 54.1911 323.316 54.7973C323.316 56.1751 323.562 57.1671 324.055 57.7733C324.548 58.3244 325.096 58.7102 325.698 58.9307C326.355 59.1511 326.93 59.3164 327.423 59.4267C327.916 59.5369 328.162 59.8124 328.162 60.2533C328.162 61.4658 327.998 62.7058 327.67 63.9733C327.341 65.2409 326.793 66.3982 326.027 67.4453C325.315 68.4924 324.301 69.3467 322.987 70.008C321.727 70.6693 320.167 71 318.305 71C315.676 71 313.704 70.3662 312.39 69.0987C311.075 67.8311 310.199 66.0676 309.761 63.808C308.447 65.7369 306.721 67.4178 304.586 68.8507C302.504 70.2836 299.766 71 296.371 71C294.728 71 293.167 70.8071 291.688 70.4213C290.264 70.0356 289.005 69.4018 287.909 68.52C286.869 67.6382 286.02 66.5084 285.363 65.1307C284.76 63.6978 284.459 61.9893 284.459 60.0053ZM310.007 50.5813C308.584 50.5813 307.187 50.6916 305.818 50.912C304.449 51.1324 303.216 51.4907 302.121 51.9867C301.081 52.4276 300.232 53.0338 299.574 53.8053C298.917 54.5769 298.589 55.5138 298.589 56.616C298.589 57.8836 298.972 58.7653 299.739 59.2613C300.56 59.7573 301.437 60.0053 302.368 60.0053C303.244 60.0053 304.12 59.8124 304.996 59.4267C305.873 59.0409 306.639 58.4622 307.297 57.6907C308.008 56.864 308.611 55.872 309.104 54.7147C309.597 53.5573 309.898 52.1796 310.007 50.5813Z" fill="#FF7860"/>
<path d="M347.424 55.2933C347.26 57.8284 347.069 60.2533 346.849 62.568C346.63 64.8276 346.466 66.8116 346.357 68.52C346.302 69.1813 346.165 69.6222 345.946 69.8427C345.727 70.0631 345.261 70.1733 344.549 70.1733H341.592C339.894 70.1733 338.498 70.008 337.402 69.6773C336.362 69.2916 335.513 68.768 334.856 68.1067C334.253 67.4453 333.815 66.6462 333.541 65.7093C333.322 64.7173 333.213 63.5876 333.213 62.32C333.213 61.4933 333.24 60.336 333.295 58.848C333.404 57.3049 333.569 55.2107 333.788 52.5653C334.007 49.8649 334.253 46.4756 334.527 42.3973C334.856 38.264 335.239 33.1662 335.677 27.104C335.732 25.8916 335.869 25.1751 336.088 24.9547C336.252 24.7893 336.69 24.7067 337.402 24.7067H340.606C342.249 24.7067 343.591 24.8996 344.631 25.2853C345.672 25.6711 346.521 26.1671 347.178 26.7733C347.835 27.3796 348.301 28.096 348.575 28.9227C348.848 29.7493 349.013 30.6036 349.067 31.4853C350.656 28.5093 352.463 26.4978 354.489 25.4507C356.516 24.4036 358.898 23.88 361.636 23.88C363.115 23.88 364.539 24.0178 365.908 24.2933C367.277 24.5689 368.509 25.0373 369.605 25.6987C370.7 26.36 371.631 27.2418 372.398 28.344C373.165 29.3911 373.712 30.7413 374.041 32.3947C375.739 29.1982 377.601 26.9938 379.627 25.7813C381.653 24.5138 384.2 23.88 387.267 23.88C388.965 23.88 390.58 24.0729 392.114 24.4587C393.702 24.7893 395.071 25.3956 396.221 26.2773C397.371 27.1591 398.275 28.3716 398.932 29.9147C399.644 31.4027 400 33.2764 400 35.536C400 37.2444 399.918 39.3387 399.754 41.8187C399.589 44.2987 399.398 46.9991 399.178 49.92C398.959 52.7858 398.713 55.7618 398.439 58.848C398.165 61.8791 397.946 64.8 397.782 67.6107C397.727 68.2169 397.672 68.6853 397.618 69.016C397.563 69.3467 397.453 69.5947 397.289 69.76C397.18 69.9253 396.988 70.0356 396.714 70.0907C396.44 70.1458 396.057 70.1733 395.564 70.1733H392.935C391.183 70.1733 389.759 70.008 388.663 69.6773C387.568 69.3467 386.719 68.8782 386.117 68.272C385.514 67.6658 385.076 66.9218 384.802 66.04C384.583 65.1031 384.474 64.056 384.474 62.8987C384.474 62.1822 384.501 61.1627 384.556 59.84C384.665 58.5173 384.775 57.0844 384.885 55.5413C385.049 53.9982 385.186 52.4 385.295 50.7467C385.46 49.0933 385.597 47.5778 385.706 46.2C385.87 44.7671 385.98 43.5271 386.035 42.48C386.144 41.4329 386.199 40.744 386.199 40.4133C386.199 38.9804 385.898 37.7129 385.295 36.6107C384.748 35.5084 383.652 34.9573 382.009 34.9573C380.585 34.9573 379.353 35.4258 378.313 36.3627C377.272 37.2996 376.396 38.5947 375.684 40.248C374.972 41.9013 374.397 43.8578 373.959 46.1173C373.521 48.3769 373.219 50.8293 373.055 53.4747C372.945 55.1831 372.809 57.1396 372.644 59.344C372.48 61.5484 372.288 64.304 372.069 67.6107C372.014 68.2169 371.96 68.6853 371.905 69.016C371.85 69.3467 371.741 69.5947 371.576 69.76C371.467 69.9253 371.275 70.0356 371.001 70.0907C370.727 70.1458 370.344 70.1733 369.851 70.1733H367.222C365.47 70.1733 364.046 70.008 362.951 69.6773C361.855 69.3467 361.007 68.8782 360.404 68.272C359.802 67.6658 359.364 66.9218 359.09 66.04C358.871 65.1031 358.761 64.056 358.761 62.8987C358.761 61.7964 358.843 60.1982 359.008 58.104C359.227 55.9547 359.418 53.7502 359.583 51.4907C359.802 49.176 359.993 46.9991 360.158 44.96C360.377 42.8658 360.486 41.3502 360.486 40.4133C360.486 38.9804 360.185 37.7129 359.583 36.6107C359.035 35.5084 357.94 34.9573 356.297 34.9573C354.818 34.9573 353.558 35.5084 352.518 36.6107C351.477 37.7129 350.601 39.2009 349.889 41.0747C349.232 42.8933 348.684 45.0427 348.246 47.5227C347.863 50.0027 347.589 52.5929 347.424 55.2933Z" fill="#FF7860"/>
<path d="M36 72C55.8822 72 72 55.8823 72 36C72 16.1178 55.8822 0 36 0C16.1177 0 0 16.1178 0 36C0 55.8823 16.1177 72 36 72Z" fill="#FF7860"/>
<path d="M50 66.047C53.7714 61.8677 58.0006 58.1603 62.6014 55C64.7795 56.3001 62.3804 62.4865 66.0486 66.047C68.374 68.3074 71.6902 67.4066 71.9768 68.1459C72.2634 68.8852 69.8806 70.9502 65.7538 71.8084C62.8748 72.2395 59.938 71.9406 57.1946 70.9372C54.4511 69.9339 51.9826 68.256 50 66.047Z" fill="#FF7860"/>
<path d="M37 47.0997C37 50.2182 35.3362 51 32.1458 51C28.9553 51 12.4715 36.3319 12.0255 33.2386C11.631 30.5319 15.9106 26.7829 18.2777 27.0098C21.4167 27.3124 37 43.9812 37 47.0997Z" fill="white"/>
<path d="M59.919 27.6699C59.165 30.6661 37.2726 51 34.2644 51C31.2562 51 30.6562 50.1701 28.0291 47.3897C27.0805 46.3938 49.5891 21.7856 53.5459 21.0386C56.0757 20.5572 60.665 24.6821 59.919 27.6699Z" fill="white"/>
<path d="M22.232 124.872H24.176V134.784H22.232V124.872ZM22.256 139.656V137.736H8.672V136.08H23.552C23.96 136.08 24.176 136.272 24.176 136.656V140.208C24.176 141.072 23.576 141.528 22.664 141.528H10.592V142.968C10.592 143.16 10.664 143.28 10.784 143.376L11.192 143.736C11.312 143.832 11.432 143.88 11.6 143.88H24.704V145.536H11.168C10.736 145.536 10.352 145.464 10.088 145.224L9.08 144.264C8.792 144 8.672 143.664 8.672 143.256V140.52C8.672 140.112 8.888 139.92 9.32 139.92H21.992C22.184 139.92 22.256 139.848 22.256 139.656ZM17.36 129.504V130.104C17.36 132.744 15.296 134.904 12.08 134.904C8.864 134.904 6.728 132.744 6.728 130.104V129.504C6.728 126.864 8.864 124.728 12.08 124.728C15.296 124.728 17.36 126.864 17.36 129.504ZM15.488 130.104V129.504C15.488 127.8 14 126.408 12.08 126.408C10.088 126.408 8.696 127.8 8.696 129.504V130.104C8.696 131.832 10.088 133.2 12.08 133.2C14 133.2 15.488 131.832 15.488 130.104ZM43.6438 131.52V136.776H41.6518V124.872H43.6438V129.816H47.0998V131.52H43.6438ZM32.8437 137.4H39.5398C42.2997 137.4 44.3877 138.864 44.3877 141.456C44.3877 144.072 42.3238 145.512 39.5398 145.512H32.8437C30.0597 145.512 28.0437 144.072 28.0437 141.456C28.0437 138.864 30.0837 137.4 32.8437 137.4ZM39.5398 139.104H32.8437C31.2597 139.104 29.9877 139.968 29.9877 141.456C29.9877 142.944 31.2597 143.832 32.8437 143.832H39.5398C41.1477 143.832 42.4438 142.944 42.4438 141.456C42.4438 139.968 41.1477 139.104 39.5398 139.104ZM34.1637 129.792C35.6037 131.472 37.3077 133.104 39.0837 134.712L37.7878 135.96C36.1077 134.376 34.4517 132.792 33.0837 131.184C32.9637 131.064 32.7957 130.944 32.7717 130.8C32.7237 130.944 32.6037 131.04 32.4597 131.184C30.9717 132.84 29.4117 134.496 27.7317 136.104L26.4117 134.976C28.1397 133.344 29.8197 131.616 31.3317 129.792C31.5717 129.552 31.7637 129.36 31.7637 129.024V125.136H33.7557V129.024C33.7557 129.36 33.9237 129.552 34.1637 129.792ZM63.5195 124.872H65.4635V145.44H63.5195V124.872ZM61.7435 142.416H47.4875V140.688H61.7435V142.416ZM54.1595 125.448C57.5435 125.448 59.7035 127.68 59.7035 130.44V131.664C59.7035 134.424 57.5435 136.656 54.1595 136.656C50.7515 136.656 48.6155 134.424 48.6155 131.664V130.44C48.6155 127.68 50.7755 125.448 54.1595 125.448ZM57.7595 131.664V130.44C57.7595 128.544 56.2475 127.152 54.1595 127.152C52.0475 127.152 50.5835 128.544 50.5835 130.44V131.664C50.5835 133.584 51.9995 134.976 54.1595 134.976C56.2955 134.976 57.7595 133.56 57.7595 131.664ZM89.8179 126.552V134.808C89.8179 136.848 89.7699 137.352 88.8579 139.464C88.2819 139.344 87.6819 139.224 87.1299 139.08C87.7539 137.256 87.8499 136.608 87.8499 134.856V127.536H74.0499V125.832H89.1459C89.5539 125.832 89.8179 126.12 89.8179 126.552ZM80.0019 133.584H81.9939V142.56H91.3539V144.288H72.6339V142.56H80.0019V133.584ZM108.998 124.872H110.942V140.136H108.998V124.872ZM111.398 145.536H98.5096C97.8136 145.536 97.3336 145.392 96.9496 144.984L96.0136 144.096C95.5816 143.64 95.3896 143.256 95.3896 142.56V138.408H97.3336V142.368C97.3336 142.728 97.4536 142.872 97.6696 143.088L98.1016 143.568C98.2696 143.736 98.4616 143.832 98.7976 143.832H111.398V145.536ZM103.262 136.512H96.8296C96.1576 136.512 95.7736 136.368 95.3416 135.984L94.2376 134.976C93.8296 134.568 93.5896 134.208 93.5896 133.464V126.144C93.5896 125.688 93.8296 125.448 94.2856 125.448H103.358C103.814 125.448 104.03 125.688 104.03 126.144V135.72C104.03 136.224 103.79 136.512 103.262 136.512ZM97.1416 134.76H102.11V127.152H95.5576V133.176C95.5576 133.512 95.6776 133.728 95.8936 133.896L96.3496 134.4C96.5416 134.616 96.8056 134.76 97.1416 134.76ZM117.065 125.064V128.424H129.209V125.064H131.177V133.992C131.177 134.496 130.913 134.784 130.385 134.784H118.145C117.449 134.784 116.993 134.688 116.585 134.328L115.673 133.488C115.217 133.104 115.097 132.672 115.097 132V125.064H117.065ZM118.337 133.128H129.209V130.032H117.065V131.952C117.065 132.264 117.113 132.384 117.281 132.552L117.761 132.96C117.881 133.08 118.001 133.128 118.337 133.128ZM124.241 145.8H122.297V138.864H113.993V137.16H132.569V138.864H124.241V145.8ZM135.141 139.296V126.504C135.141 126 135.405 125.712 135.957 125.712H145.701V127.44H137.109V133.728H144.453V135.384H137.109V139.224C137.109 139.968 137.349 140.28 137.613 140.568L138.213 141.24C138.501 141.528 138.837 141.744 139.365 141.744H146.373V143.496H139.005C137.853 143.496 137.397 143.28 136.725 142.512L136.053 141.72C135.429 141.024 135.141 140.64 135.141 139.296ZM150.285 124.872H152.229V145.44H150.285V134.736H146.301V133.032H150.285V124.872ZM170.823 125.016H172.767V132.744H175.887V124.872H177.807V145.416H175.887V134.424H172.767V145.224H170.823V125.016ZM164.871 135.384C166.119 137.712 167.535 139.992 169.095 142.224L167.535 143.424C166.143 141.336 164.967 139.416 163.839 137.256C163.791 137.16 163.695 136.968 163.647 136.752C163.623 136.968 163.527 137.16 163.455 137.256C162.375 139.464 161.127 141.456 159.711 143.544L158.151 142.464C159.735 140.136 161.127 137.688 162.351 135.384C162.543 135.024 162.639 134.736 162.639 134.376V127.536H158.703V125.832H168.423V127.536H164.583V134.376C164.583 134.736 164.679 135 164.871 135.384ZM195.763 124.872H197.707V145.44H195.763V124.872ZM190.219 143.352H184.267C183.331 143.352 183.019 143.256 182.419 142.608L181.243 141.216C180.715 140.616 180.547 140.232 180.547 139.224V126.576C180.547 126.144 180.787 125.88 181.267 125.88H190.291C190.795 125.88 191.035 126.144 191.035 126.576V142.584C191.035 143.088 190.771 143.304 190.219 143.352ZM182.515 127.584V139.344C182.515 139.632 182.659 139.968 182.875 140.184L183.763 141.216C183.955 141.456 184.243 141.624 184.555 141.624H189.067V127.584H182.515ZM206.183 124.92C209.495 124.92 211.535 127.248 211.535 129.96V130.992C211.535 133.704 209.471 136.056 206.183 136.056C202.871 136.056 200.807 133.704 200.807 130.992V129.96C200.807 127.248 202.871 124.92 206.183 124.92ZM208.535 140.76C209.255 141.648 210.095 142.512 210.959 143.328C211.871 142.464 212.759 141.576 213.503 140.664C213.719 140.376 213.983 140.112 213.983 139.728V137.352H215.927V139.728C215.927 140.112 216.143 140.424 216.407 140.664C217.463 141.84 218.783 143.04 220.103 144.168L218.927 145.416C217.679 144.36 216.383 143.232 215.375 142.08C215.183 141.864 215.015 141.744 214.991 141.504C214.943 141.744 214.775 141.912 214.631 142.08C213.599 143.304 212.327 144.456 211.079 145.632C209.855 144.504 208.487 143.376 207.479 142.176C207.335 141.984 207.119 141.864 207.095 141.624C207.047 141.864 206.879 142.032 206.735 142.176C205.727 143.328 204.503 144.456 203.255 145.56L201.959 144.336C203.255 143.232 204.527 142.08 205.631 140.76C205.823 140.496 206.087 140.208 206.087 139.848V137.328H208.031V139.848C208.031 140.208 208.271 140.52 208.535 140.76ZM209.591 130.992V129.96C209.591 128.088 208.223 126.624 206.183 126.624C204.095 126.624 202.775 128.088 202.775 129.96V130.992C202.775 132.84 204.047 134.352 206.183 134.352C208.271 134.352 209.591 132.816 209.591 130.992ZM216.407 136.344V124.872H218.351V136.344H216.407ZM238.899 145.296H225.627C225.123 145.296 224.643 145.176 224.331 144.864L223.155 143.712C222.843 143.376 222.675 142.992 222.675 142.464V138.624H224.643V142.2C224.643 142.416 224.739 142.584 224.859 142.728L225.531 143.4C225.651 143.52 225.819 143.568 226.035 143.568H238.899V145.296ZM225.555 133.296C225.051 133.296 224.595 133.2 224.259 132.864L223.107 131.712C222.771 131.4 222.603 130.992 222.603 130.488V125.16H224.595V130.224C224.595 130.44 224.667 130.584 224.787 130.728L225.459 131.424C225.603 131.52 225.747 131.592 225.963 131.592H238.755V133.296H225.555ZM240.027 136.776H221.307V135.144H240.027V136.776ZM250.389 133.08C249.885 133.08 249.429 132.96 249.093 132.648L247.941 131.496C247.605 131.16 247.437 130.776 247.437 130.272V124.968H249.429V130.008C249.429 130.224 249.501 130.368 249.621 130.512L250.293 131.184C250.437 131.304 250.581 131.376 250.797 131.376H263.589V133.08H256.389V135.504H264.837V137.16H246.189V135.504H254.445V133.08H250.389ZM263.757 145.536H250.557C249.837 145.536 249.405 145.44 248.997 145.032L247.989 144.096C247.581 143.664 247.389 143.256 247.389 142.56V138.648H249.381V142.296C249.381 142.704 249.477 142.872 249.717 143.112L250.149 143.544C250.365 143.76 250.557 143.832 250.941 143.832H263.757V145.536ZM273.193 138H280.777C283.609 138 285.577 139.344 285.577 141.84C285.577 144.336 283.633 145.68 280.777 145.68H273.193C270.337 145.68 268.417 144.336 268.417 141.84C268.417 139.344 270.361 138 273.193 138ZM280.777 139.704H273.193C271.537 139.704 270.361 140.472 270.361 141.84C270.361 143.208 271.537 143.976 273.193 143.976H280.777C282.457 143.976 283.609 143.208 283.609 141.84C283.609 140.472 282.457 139.704 280.777 139.704ZM278.209 125.016H280.153V129.504H283.297V124.872H285.217V136.992H283.297V131.208H280.153V136.512H278.209V125.016ZM272.305 130.368C273.553 132.048 274.777 133.392 276.313 135.024L274.897 136.176C273.553 134.712 272.473 133.584 271.345 132.048C271.249 131.928 271.129 131.712 271.081 131.52C271.057 131.712 270.913 131.904 270.817 132.048C269.713 133.584 268.585 134.784 267.193 136.296L265.825 135.12C267.289 133.44 268.537 132.096 269.785 130.368C270.025 130.056 270.073 129.84 270.073 129.48V127.104H266.137V125.4H275.857V127.104H272.017V129.48C272.017 129.84 272.065 130.056 272.305 130.368ZM288.389 142.92L286.757 141.96C289.133 138.12 290.069 136.056 290.525 134.808C290.885 133.872 290.885 133.248 290.885 132.264V127.584H287.381V125.88H291.677C292.517 125.88 292.877 126.264 292.877 127.008V132.144C292.877 133.416 292.853 134.208 292.397 135.384C291.869 136.728 290.813 138.96 288.389 142.92ZM294.749 143.496L293.045 142.488C295.061 138.888 295.901 136.752 296.405 135.456C296.813 134.304 296.861 133.512 296.861 132.336V127.584H293.717V125.88H297.629C298.445 125.88 298.805 126.264 298.805 127.008V132.216C298.805 133.68 298.781 134.544 298.277 135.912C297.773 137.352 296.861 139.632 294.749 143.496ZM301.949 124.872H303.941V133.44H307.397V135.144H303.941V145.44H301.949V124.872ZM308.024 127.44V125.736H319.76V127.44H314.912V133.992C314.912 134.352 314.96 134.664 315.224 134.976C316.832 137.544 318.488 139.968 320.336 142.296L318.848 143.328C317.12 141.216 315.584 138.888 314.168 136.56C314.072 136.464 314 136.32 313.976 136.152C313.952 136.32 313.88 136.464 313.784 136.56C312.416 138.96 310.856 141.264 309.128 143.472L307.544 142.44C309.416 139.992 311.144 137.496 312.656 134.976C312.896 134.64 312.968 134.352 312.968 133.992V127.44H308.024ZM323.816 124.872H325.76V145.44H323.816V124.872ZM17.912 166.016H19.856V174.272H23V165.872H24.92V186.416H23V175.976H19.856V186.224H17.912V166.016ZM8.288 168.416V180.656C8.288 181.184 8.552 181.472 8.84 181.784L9.32 182.36C9.584 182.672 9.92 182.864 10.448 182.864H13.016V168.416H8.288ZM6.344 180.512V167.384C6.344 166.952 6.608 166.712 7.064 166.712H14.264C14.72 166.712 14.96 166.952 14.96 167.384V183.848C14.96 184.352 14.696 184.616 14.168 184.616H10.088C8.96 184.616 8.456 184.448 7.808 183.656L7.256 182.936C6.656 182.192 6.344 181.856 6.344 180.512ZM42.8758 171.296V165.872H44.8197V181.112H42.8758V172.952H37.3317V177.464C37.3317 177.704 37.2357 177.848 37.0198 177.848H30.4197C29.7957 177.848 29.3157 177.752 28.9797 177.416L28.0197 176.48C27.6357 176.072 27.5157 175.784 27.5157 174.968V166.592H29.4837V170.576H35.3637V166.592H37.3317V171.296H42.8758ZM45.3238 186.464H32.1957C31.6917 186.464 31.1877 186.344 30.8997 186.032L29.6517 184.808C29.3157 184.472 29.1717 184.064 29.1717 183.56V179.648H31.1157V183.344C31.1157 183.56 31.1877 183.728 31.3557 183.848L32.1237 184.616C32.2197 184.736 32.3637 184.808 32.6037 184.808H45.3238V186.464ZM30.8757 176.192H35.3637V172.208H29.4837V174.776C29.4837 175.184 29.5317 175.352 29.7237 175.496L30.1317 175.928C30.3717 176.144 30.4917 176.192 30.8757 176.192ZM67.7341 180.824V178.88H54.0061V177.224H69.0301C69.4381 177.224 69.6541 177.464 69.6541 177.848V181.496C69.6541 182.216 69.1261 182.624 68.2621 182.624H55.9501V183.992C55.9501 184.184 55.9981 184.304 56.1181 184.4L56.5261 184.76C56.6461 184.832 56.7661 184.904 56.9581 184.904H70.1821V186.56H56.5261C56.0701 186.56 55.7101 186.488 55.4221 186.248L54.4141 185.288C54.1261 185.024 54.0061 184.688 54.0061 184.28V181.592C54.0061 181.184 54.2461 180.992 54.6781 180.992H67.5661C67.6861 180.992 67.7341 180.968 67.7341 180.824ZM52.8061 176.312L52.1581 174.656C54.3421 173.96 56.5981 173.072 58.7341 172.088C60.3181 171.344 60.6061 170.456 60.6061 169.64V167.84H53.0221V166.136H61.4221C62.2141 166.136 62.5981 166.52 62.5981 167.264V168.416H67.7101V165.872H69.6541V176.264H67.7101V173.912H62.5981V172.208H67.7101V170.12H62.5741C62.4781 171.536 61.9501 172.616 59.6941 173.648C57.4861 174.68 55.0861 175.568 52.8061 176.312ZM79.2819 178.904H86.0739C88.7859 178.904 90.8019 180.176 90.8019 182.672C90.8019 185.168 88.8099 186.464 86.0739 186.464H79.2819C76.4979 186.464 74.5299 185.168 74.5299 182.672C74.5299 180.176 76.5219 178.904 79.2819 178.904ZM86.0739 180.608H79.2819C77.6979 180.608 76.4739 181.304 76.4739 182.672C76.4739 184.04 77.6979 184.76 79.2819 184.76H86.0739C87.6339 184.76 88.8339 184.04 88.8339 182.672C88.8339 181.304 87.6339 180.608 86.0739 180.608ZM72.7299 168.008V166.376H84.5619V168.008H79.6899V171.392C79.6899 171.728 79.9059 171.92 80.0979 172.16C81.6579 173.528 83.2659 174.848 85.0419 176.144L83.9379 177.584C82.1379 176.216 80.3619 174.896 78.9459 173.576C78.8019 173.432 78.6819 173.288 78.6339 173.144C78.5859 173.288 78.4419 173.408 78.2979 173.576C76.7859 174.968 75.2019 176.288 73.4739 177.632L72.2979 176.216C73.9539 174.92 75.5619 173.6 77.0739 172.16C77.3139 171.944 77.5059 171.728 77.5059 171.392V168.008H72.7299ZM88.3539 170.504V165.872H90.2979V177.824H88.3539V172.208H84.1299V170.504H88.3539ZM104.174 177.464V180.44C104.174 183.032 102.518 185.336 99.2776 185.336C96.0616 185.336 94.4056 182.912 94.4056 180.44V177.464C94.4056 174.872 96.0616 172.616 99.2776 172.616C102.518 172.616 104.174 174.872 104.174 177.464ZM102.254 180.44V177.464C102.254 175.664 101.15 174.32 99.2776 174.32C97.3816 174.32 96.3736 175.664 96.3736 177.464V180.44C96.3736 182.24 97.3816 183.632 99.2776 183.632C101.15 183.632 102.254 182.24 102.254 180.44ZM107.774 165.872H109.766V174.872H113.222V176.576H109.766V186.44H107.774V165.872ZM93.3256 170.768V169.064H98.2696V165.8H100.238V169.064H105.11V170.768H93.3256ZM115.577 184.424L114.353 182.96C116.801 181.088 118.961 179.216 120.113 178.04C122.369 175.736 122.753 174.632 122.753 173.336V168.512H114.833V166.784H123.809C124.385 166.784 124.673 167.144 124.673 167.72V173.096C124.673 175.424 124.529 176.504 121.721 179.192C120.449 180.392 118.409 182.12 115.577 184.424ZM129.641 165.872H131.585V186.44H129.641V165.872ZM141.42 185.936V180.176C141.42 179.744 141.636 179.48 142.116 179.48H155.724C156.18 179.48 156.42 179.744 156.42 180.176V185.936C156.42 186.44 156.156 186.704 155.628 186.704H142.188C141.66 186.704 141.42 186.44 141.42 185.936ZM144.228 170.672H145.74C148.716 170.672 150.012 172.112 150.012 174.248C150.012 176.36 148.716 177.752 145.74 177.752H144.252C141.324 177.752 139.956 176.36 139.956 174.248C139.956 172.112 141.3 170.672 144.228 170.672ZM143.364 185.048H154.476V181.112H143.364V185.048ZM138.564 169.256V167.552H143.916V165.296H145.908V167.552H151.236V169.256H138.564ZM154.476 165.872H156.42V178.352H154.476V165.872ZM144.252 176.072H145.74C147.396 176.072 148.116 175.256 148.116 174.248C148.116 173.216 147.396 172.376 145.74 172.376H144.228C142.524 172.376 141.852 173.216 141.852 174.248C141.852 175.256 142.548 176.072 144.252 176.072ZM176.703 174.44H163.743C163.215 174.44 162.735 174.32 162.423 174.032L161.199 172.832C160.887 172.496 160.719 172.112 160.719 171.584V167C160.719 166.496 160.983 166.232 161.559 166.232H176.463V167.936H162.687V171.32C162.687 171.56 162.783 171.704 162.903 171.848L163.623 172.52C163.767 172.64 163.911 172.688 164.127 172.688H176.703V174.44ZM178.095 178.256H159.375V176.624H178.095V178.256ZM177.015 186.536H163.719C162.975 186.536 162.591 186.44 162.255 186.08L161.295 185.12C160.863 184.64 160.647 184.28 160.647 183.608V180.056H162.639V183.416C162.639 183.68 162.711 183.872 162.927 184.088L163.383 184.568C163.551 184.76 163.791 184.832 164.055 184.832H177.015V186.536ZM202.402 186.464H189.538C189.034 186.464 188.554 186.344 188.218 186.032L186.994 184.808C186.658 184.472 186.514 184.064 186.514 183.56V179.552H188.458V183.344C188.458 183.56 188.554 183.728 188.698 183.848L189.442 184.616C189.562 184.736 189.73 184.808 189.922 184.808H202.402V186.464ZM191.53 171.656C192.994 173.24 194.746 174.848 196.522 176.384L195.322 177.656C193.618 176.216 191.938 174.68 190.474 173.12C190.378 173 190.21 172.88 190.162 172.712C190.114 172.88 189.97 173 189.85 173.12C188.482 174.56 186.898 176.12 185.05 177.752L183.802 176.504C185.506 174.944 187.21 173.312 188.722 171.656C188.938 171.416 189.154 171.224 189.154 170.888V166.376H191.098V170.888C191.098 171.224 191.314 171.416 191.53 171.656ZM199.954 170.288V165.872H201.898V181.184H199.954V171.992H195.562V170.288H199.954ZM204.878 174.872V167.312C204.878 166.808 205.142 166.592 205.694 166.592H213.494V168.272H206.846V171.296H213.062V172.952H206.846V174.584C206.846 174.92 206.966 175.04 207.134 175.28L207.614 175.832C207.782 176 208.046 176 208.358 176H213.878V177.752H207.998C207.326 177.752 206.798 177.656 206.39 177.224L205.55 176.384C205.142 175.952 204.878 175.616 204.878 174.872ZM216.206 166.016H218.078V171.08H221.366V165.872H223.286V178.256H221.366V172.784H218.078V178.088H216.206V166.016ZM206.87 179.456H222.566C223.07 179.456 223.286 179.72 223.286 180.152V186.824H221.366V181.136H206.87V179.456ZM241.241 165.872H243.185V186.44H241.241V165.872ZM239.465 183.416H225.209V181.688H239.465V183.416ZM231.881 166.448C235.265 166.448 237.425 168.68 237.425 171.44V172.664C237.425 175.424 235.265 177.656 231.881 177.656C228.473 177.656 226.337 175.424 226.337 172.664V171.44C226.337 168.68 228.497 166.448 231.881 166.448ZM235.481 172.664V171.44C235.481 169.544 233.969 168.152 231.881 168.152C229.769 168.152 228.305 169.544 228.305 171.44V172.664C228.305 174.584 229.721 175.976 231.881 175.976C234.017 175.976 235.481 174.56 235.481 172.664ZM267.924 186.32H254.508C254.004 186.32 253.548 186.224 253.236 185.912L252.06 184.76C251.724 184.424 251.58 184.016 251.58 183.512V179.864H253.548V183.248C253.548 183.464 253.62 183.632 253.764 183.752L254.412 184.448C254.532 184.568 254.724 184.616 254.916 184.616H267.924V186.32ZM261.108 169.088C263.484 170.48 265.932 171.776 268.308 172.976L267.42 174.464C264.948 173.288 262.5 171.944 260.076 170.456C259.956 170.408 259.788 170.288 259.716 170.12C259.644 170.288 259.524 170.36 259.332 170.456C257.028 171.968 254.556 173.312 252.06 174.584L251.148 173.072C253.572 171.824 255.924 170.48 258.228 169.088C258.516 168.92 258.684 168.776 258.684 168.416V165.752H260.628V168.416C260.628 168.776 260.796 168.92 261.108 169.088ZM260.724 182.144H258.78V177.848H250.428V176.216H269.004V177.848H260.724V182.144ZM271.407 178.4L270.591 176.696C272.607 175.856 274.623 174.872 276.543 173.792C278.847 172.496 278.943 171.656 278.943 170.792V168.2H271.239V166.496H279.735C280.575 166.496 280.935 166.856 280.935 167.624V170.672C280.935 172.52 280.815 173.624 277.695 175.352C275.631 176.456 273.495 177.512 271.407 178.4ZM287.487 173.312V181.184H285.495V165.872H287.487V171.608H290.943V173.312H287.487ZM274.983 179.6V183.512C274.983 183.728 275.055 183.896 275.199 184.016L275.895 184.712C275.991 184.832 276.135 184.88 276.375 184.88H287.919V186.584H275.991C275.463 186.584 274.983 186.488 274.671 186.176L273.519 185.024C273.183 184.688 273.015 184.28 273.015 183.776V179.6H274.983ZM308.947 172.832H295.915C295.387 172.832 294.907 172.712 294.595 172.424L293.395 171.224C293.059 170.888 292.891 170.48 292.891 169.976V166.856C292.891 166.352 293.179 166.112 293.755 166.112H308.707V167.816H294.883V169.712C294.883 169.928 294.955 170.096 295.075 170.216L295.795 170.912C295.939 171.008 296.083 171.08 296.299 171.08H308.947V172.832ZM310.363 176.144H291.643V174.512H310.363V176.144ZM293.491 181.184H306.931C307.003 181.184 307.051 181.112 307.051 181.04V179.384H292.867V177.752H308.371C308.803 177.752 309.019 177.992 309.019 178.376V181.568C309.019 182.336 308.419 182.816 307.483 182.816H294.835V183.728C294.835 183.896 294.883 184.016 294.979 184.136L295.483 184.616C295.579 184.736 295.699 184.784 295.867 184.784H309.547V186.416H295.315C294.883 186.416 294.499 186.272 294.211 185.96L293.275 185C292.987 184.688 292.867 184.352 292.867 183.92V181.784C292.867 181.4 293.083 181.184 293.491 181.184ZM313.175 188.192L312.911 187.592C313.799 187.208 314.087 186.488 314.087 185.264H313.199V182.96H315.671V184.784C315.671 186.368 314.975 187.76 313.175 188.192ZM23.696 208.552V216.808C23.696 218.848 23.648 219.352 22.736 221.464C22.16 221.344 21.56 221.224 21.008 221.08C21.632 219.256 21.728 218.608 21.728 216.856V209.536H7.928V207.832H23.024C23.432 207.832 23.696 208.12 23.696 208.552ZM13.88 215.584H15.872V224.56H25.232V226.288H6.512V224.56H13.88V215.584ZM42.8758 206.872H44.8197V222.136H42.8758V206.872ZM45.2757 227.536H32.3877C31.6917 227.536 31.2117 227.392 30.8277 226.984L29.8917 226.096C29.4597 225.64 29.2677 225.256 29.2677 224.56V220.408H31.2117V224.368C31.2117 224.728 31.3317 224.872 31.5477 225.088L31.9797 225.568C32.1477 225.736 32.3397 225.832 32.6757 225.832H45.2757V227.536ZM37.1398 218.512H30.7077C30.0357 218.512 29.6517 218.368 29.2197 217.984L28.1157 216.976C27.7077 216.568 27.4677 216.208 27.4677 215.464V208.144C27.4677 207.688 27.7077 207.448 28.1637 207.448H37.2357C37.6918 207.448 37.9078 207.688 37.9078 208.144V217.72C37.9078 218.224 37.6678 218.512 37.1398 218.512ZM31.0197 216.76H35.9877V209.152H29.4357V215.176C29.4357 215.512 29.5557 215.728 29.7717 215.896L30.2277 216.4C30.4197 216.616 30.6837 216.76 31.0197 216.76ZM63.5195 206.872H65.4635V227.44H63.5195V206.872ZM61.7435 224.416H47.4875V222.688H61.7435V224.416ZM54.1595 207.448C57.5435 207.448 59.7035 209.68 59.7035 212.44V213.664C59.7035 216.424 57.5435 218.656 54.1595 218.656C50.7515 218.656 48.6155 216.424 48.6155 213.664V212.44C48.6155 209.68 50.7755 207.448 54.1595 207.448ZM57.7595 213.664V212.44C57.7595 210.544 56.2475 209.152 54.1595 209.152C52.0475 209.152 50.5835 210.544 50.5835 212.44V213.664C50.5835 215.584 51.9995 216.976 54.1595 216.976C56.2955 216.976 57.7595 215.56 57.7595 213.664ZM84.9313 213.568V218.992H82.9393V206.872H84.9313V211.864H88.3873V213.568H84.9313ZM71.9953 226.048H82.9393V222.016H71.9953V226.048ZM70.0273 226.936V221.08C70.0273 220.648 70.2673 220.384 70.7713 220.384H84.2113C84.6673 220.384 84.9313 220.648 84.9313 221.08V226.936C84.9313 227.44 84.6433 227.704 84.1153 227.704H70.8433C70.2913 227.704 70.0273 227.44 70.0273 226.936ZM68.0113 210.688V208.984H72.8593V206.392H74.9713V208.984H79.7713V210.688H75.0193V212.368C75.0193 212.8 75.1153 213.112 75.4993 213.4C76.8913 214.552 78.5713 215.872 80.1793 216.976L79.0513 218.464C77.4193 217.336 75.8113 215.992 74.2993 214.768C74.1553 214.648 74.0353 214.504 73.9873 214.312C73.9153 214.504 73.7713 214.648 73.6273 214.768C72.1393 216.16 70.4833 217.456 68.7313 218.632L67.6033 217.048C69.3073 215.872 70.8913 214.624 72.3073 213.424C72.6673 213.136 72.8353 212.824 72.8353 212.392V210.688H68.0113ZM99.695 216.472V214.768H104.807V211.336H99.743V211.672C99.743 213.52 99.647 214.696 96.479 216.4C94.463 217.504 92.303 218.584 90.215 219.424L89.423 217.696C91.415 216.904 93.479 215.92 95.327 214.84C97.631 213.544 97.775 212.656 97.775 211.792V209.104H90.047V207.4H98.591C99.383 207.4 99.743 207.76 99.743 208.528V209.632H104.807V206.872H106.751V222.184H104.807V216.472H99.695ZM93.623 220.6V224.512C93.623 224.728 93.695 224.896 93.839 225.016L94.511 225.712C94.631 225.832 94.751 225.88 94.991 225.88H107.375V227.584H94.607C94.079 227.584 93.623 227.488 93.287 227.176L92.135 226.024C91.799 225.688 91.655 225.28 91.655 224.776V220.6H93.623ZM122.067 207.016H123.987V227.296H122.067V216.904H118.443V219.928C118.443 223.744 117.027 225.88 113.931 225.88C110.811 225.88 109.467 223.744 109.467 219.928V213.184C109.467 209.392 110.811 207.232 113.931 207.232C117.027 207.232 118.443 209.392 118.443 213.184V215.2H122.067V207.016ZM116.475 219.928V213.184C116.475 210.184 115.659 208.936 113.931 208.936C112.155 208.936 111.435 210.184 111.435 213.184V219.928C111.435 222.952 112.155 224.176 113.931 224.176C115.659 224.176 116.475 222.952 116.475 219.928ZM126.195 227.44V206.872H128.139V227.44H126.195ZM137.839 217.312C139.495 219.64 141.127 221.896 142.975 224.056L141.559 225.16C139.759 223.024 138.127 220.888 136.567 218.68C136.519 218.608 136.447 218.536 136.423 218.392C136.399 218.536 136.303 218.608 136.231 218.68C134.719 221.008 133.063 223.216 131.287 225.328L129.775 224.224C131.695 222.016 133.399 219.736 134.959 217.312C135.319 216.808 135.415 216.496 135.415 215.824V207.352H137.383V215.824C137.383 216.496 137.503 216.832 137.839 217.312ZM146.095 206.872H148.039V227.44H146.095V216.064H141.007V214.408H146.095V206.872ZM154.801 209.44V207.736H166.081V209.44H161.473V215.776C161.473 216.136 161.545 216.424 161.785 216.784C163.297 219.184 165.025 221.656 166.897 224.08L165.385 225.112C163.633 222.832 162.121 220.576 160.729 218.464C160.633 218.368 160.561 218.224 160.537 218.056C160.513 218.224 160.441 218.368 160.345 218.464C158.953 220.696 157.417 223 155.689 225.256L154.105 224.224C155.977 221.8 157.681 219.328 159.217 216.784C159.457 216.424 159.529 216.136 159.529 215.776V209.44H154.801ZM169.705 206.872H171.697V214.888H175.153V216.592H171.697V227.44H169.705V206.872ZM182.837 207.136H187.661C191.213 207.136 193.421 208.96 193.421 211.984C193.421 214.984 191.213 216.808 187.661 216.808H182.837C179.285 216.808 177.029 214.984 177.029 211.984C177.029 208.912 179.285 207.136 182.837 207.136ZM182.837 215.128H187.661C189.941 215.128 191.501 213.88 191.501 211.984C191.501 210.04 189.941 208.84 187.661 208.84H182.837C180.533 208.84 178.925 210.016 178.925 211.984C178.925 213.88 180.533 215.128 182.837 215.128ZM182.405 227.8H180.437V220.888H175.901V219.208H194.477V220.888H189.941V227.8H187.973V220.888H182.405V227.8ZM211.544 210.088V208.648H198.008V207.016H212.864C213.272 207.016 213.512 207.208 213.512 207.616V210.76C213.512 211.48 212.984 211.888 212.096 211.888H199.952V212.536C199.952 212.68 200 212.824 200.12 212.92L200.6 213.448C200.72 213.544 200.888 213.592 201.032 213.592H214.016V215.224H206.72V217.12H215.168V218.752H196.52V217.12H204.776V215.224H200.456C200 215.224 199.64 215.08 199.352 214.768L198.416 213.784C198.128 213.472 198.008 213.136 198.008 212.704V210.88C198.008 210.472 198.224 210.28 198.656 210.28H211.352C211.472 210.28 211.544 210.208 211.544 210.088ZM199.904 219.856V222.088H211.808V219.856H213.752V226.672C213.752 227.176 213.512 227.44 212.984 227.44H200.816C200.312 227.44 199.832 227.32 199.52 227.008L198.416 225.976C198.056 225.64 197.936 225.256 197.936 224.728V219.856H199.904ZM201.128 225.784H211.808V223.696H199.904V224.608C199.904 224.824 199.976 224.992 200.12 225.112L200.624 225.592C200.744 225.712 200.912 225.784 201.128 225.784ZM228.924 207.016H230.844V227.296H228.924V216.664H225.252C225.036 217.408 224.604 218.176 223.836 219.208C222.156 221.344 220.332 223.336 218.508 225.376L217.044 224.08C218.844 222.136 220.572 220.264 222.156 218.2C223.5 216.424 223.5 215.56 223.5 214.144V209.848H217.524V208.144H224.316C225.108 208.144 225.492 208.528 225.492 209.272V214.96H228.924V207.016ZM233.604 227.44V206.872H235.548V227.44H233.604ZM252.678 212.56C255.078 214.624 257.622 216.568 260.454 218.464L259.422 219.832C256.638 218.008 254.046 216.112 251.694 214.072C251.574 214 251.454 213.808 251.382 213.64C251.31 213.808 251.166 213.976 251.022 214.072C248.694 216.208 246.126 218.104 243.39 220.024L242.334 218.608C244.998 216.808 247.518 214.792 249.894 212.56C250.182 212.32 250.326 212.08 250.326 211.744V207.184H252.27V211.744C252.27 212.056 252.39 212.32 252.678 212.56ZM250.302 218.896H252.246V224.584H260.694V226.312H241.974V224.584H250.302V218.896ZM264.154 212.992V207.712C264.154 207.208 264.394 206.992 264.97 206.992H279.49V208.696H266.098V210.496H279.322V212.152H266.098V212.68C266.098 213.04 266.17 213.184 266.41 213.376L266.89 213.76C267.106 213.928 267.322 213.976 267.658 213.976H279.658V215.728H272.842V217.552H281.29V219.208H262.642V217.552H270.898V215.728H267.274C266.602 215.728 266.098 215.56 265.666 215.2L264.826 214.48C264.37 214.096 264.154 213.712 264.154 212.992ZM268.57 220.456H275.362C278.554 220.456 280.258 221.632 280.258 224.008C280.258 226.36 278.554 227.512 275.362 227.512H268.57C265.426 227.512 263.626 226.36 263.626 224.008C263.626 221.608 265.426 220.456 268.57 220.456ZM268.57 225.832H275.362C277.258 225.832 278.338 225.256 278.338 224.008C278.338 222.736 277.258 222.16 275.362 222.16H268.57C266.626 222.16 265.522 222.712 265.522 224.008C265.522 225.256 266.626 225.832 268.57 225.832ZM291.854 217.792V221.56C291.854 224.056 290.558 225.904 287.846 225.904C285.182 225.904 283.862 224.056 283.862 221.56V217.792C283.862 215.32 285.182 213.472 287.846 213.472C290.558 213.472 291.854 215.32 291.854 217.792ZM294.686 207.016H296.63V215.008H299.75V206.872H301.67V227.44H299.75V216.712H296.63V227.296H294.686V207.016ZM289.934 221.56V217.792C289.934 216.112 289.142 215.176 287.846 215.176C286.526 215.176 285.83 216.112 285.83 217.792V221.56C285.83 223.264 286.526 224.2 287.846 224.2C289.142 224.2 289.934 223.264 289.934 221.56ZM283.094 211.768V210.064H286.91V207.184H288.878V210.064H292.502V211.768H283.094ZM307.074 207.352V211.84H319.218V207.352H321.162V218.68C321.162 219.208 320.922 219.472 320.394 219.472H314.178V224.728H322.626V226.456H303.906V224.728H312.234V219.472H308.274C307.506 219.472 307.17 219.304 306.738 218.92L305.706 218.008C305.25 217.528 305.106 217.216 305.106 216.472V207.352H307.074ZM308.61 217.816H319.218V213.472H307.074V216.352C307.074 216.736 307.17 216.928 307.338 217.072L307.842 217.528C308.034 217.744 308.298 217.816 308.61 217.816ZM330.166 216.976C331.462 219.376 332.95 221.776 334.582 224.152L333.094 225.064C331.678 222.952 330.31 220.888 329.11 218.656C329.038 218.56 328.966 218.416 328.966 218.248C328.942 218.416 328.87 218.56 328.774 218.656C327.526 220.912 326.254 223.072 324.838 225.256L323.326 224.32C324.91 221.92 326.326 219.448 327.622 216.976C327.814 216.64 327.91 216.352 327.91 215.992V207.544H329.878V215.992C329.878 216.352 329.998 216.664 330.166 216.976ZM336.406 207.016H338.326V227.296H336.406V215.896H332.734V214.24H336.406V207.016ZM341.014 227.44V206.872H342.958V227.44H341.014ZM352.633 207.496H356.497C360.553 207.496 362.833 209.848 362.833 213.328C362.833 215.92 361.537 217.888 359.209 218.704V224.44H363.913V226.168H345.193V224.44H349.849V218.656C347.545 217.816 346.249 215.896 346.249 213.328C346.249 209.824 348.601 207.496 352.633 207.496ZM352.657 217.432H356.497C359.281 217.432 360.913 215.68 360.913 213.328C360.913 210.952 359.281 209.2 356.497 209.2H352.633C349.825 209.2 348.145 210.928 348.145 213.328C348.145 215.68 349.849 217.432 352.657 217.432ZM352.657 219.112C352.369 219.112 352.105 219.112 351.841 219.088V224.44H357.241V219.088C357.001 219.112 356.737 219.112 356.497 219.112H352.657ZM366.605 226.48V223.96H369.053V226.48H366.605Z" fill="#222222" fill-opacity="0.7"/>
</svg>
