<svg width="32" height="32" viewBox="0 0 32 32" fill="none" xmlns="http://www.w3.org/2000/svg">
<path d="M16 19C17.6569 19 19 17.6569 19 16C19 14.3431 17.6569 13 16 13C14.3431 13 13 14.3431 13 16C13 17.6569 14.3431 19 16 19Z" stroke="#424242" stroke-width="2" stroke-linecap="round" stroke-linejoin="round"/>
<path d="M23.4 19C23.2669 19.3016 23.2272 19.6362 23.286 19.9606C23.3448 20.285 23.4995 20.5843 23.73 20.82L23.79 20.88C23.976 21.0657 24.1235 21.2863 24.2241 21.5291C24.3248 21.7719 24.3766 22.0322 24.3766 22.295C24.3766 22.5578 24.3248 22.8181 24.2241 23.0609C24.1235 23.3037 23.976 23.5243 23.79 23.71C23.6043 23.896 23.3837 24.0435 23.1409 24.1441C22.8981 24.2448 22.6378 24.2966 22.375 24.2966C22.1122 24.2966 21.8519 24.2448 21.6091 24.1441C21.3663 24.0435 21.1457 23.896 20.96 23.71L20.9 23.65C20.6643 23.4195 20.365 23.2648 20.0406 23.206C19.7162 23.1472 19.3816 23.1869 19.08 23.32C18.7842 23.4468 18.532 23.6572 18.3543 23.9255C18.1766 24.1938 18.0813 24.5082 18.08 24.83V25C18.08 25.5304 17.8693 26.0391 17.4942 26.4142C17.1191 26.7893 16.6104 27 16.08 27C15.5496 27 15.0409 26.7893 14.6658 26.4142C14.2907 26.0391 14.08 25.5304 14.08 25V24.91C14.0723 24.579 13.9651 24.258 13.7725 23.9887C13.5799 23.7194 13.3107 23.5143 13 23.4C12.6984 23.2669 12.3638 23.2272 12.0394 23.286C11.715 23.3448 11.4157 23.4995 11.18 23.73L11.12 23.79C10.9343 23.976 10.7137 24.1235 10.4709 24.2241C10.2281 24.3248 9.96783 24.3766 9.705 24.3766C9.44217 24.3766 9.18192 24.3248 8.93912 24.2241C8.69632 24.1235 8.47575 23.976 8.29 23.79C8.10405 23.6043 7.95653 23.3837 7.85588 23.1409C7.75523 22.8981 7.70343 22.6378 7.70343 22.375C7.70343 22.1122 7.75523 21.8519 7.85588 21.6091C7.95653 21.3663 8.10405 21.1457 8.29 20.96L8.35 20.9C8.58054 20.6643 8.73519 20.365 8.794 20.0406C8.85282 19.7162 8.81312 19.3816 8.68 19.08C8.55324 18.7842 8.34276 18.532 8.07447 18.3543C7.80618 18.1766 7.49179 18.0813 7.17 18.08H7C6.46957 18.08 5.96086 17.8693 5.58579 17.4942C5.21071 17.1191 5 16.6104 5 16.08C5 15.5496 5.21071 15.0409 5.58579 14.6658C5.96086 14.2907 6.46957 14.08 7 14.08H7.09C7.42099 14.0723 7.742 13.9651 8.0113 13.7725C8.28059 13.5799 8.48572 13.3107 8.6 13C8.73312 12.6984 8.77282 12.3638 8.714 12.0394C8.65519 11.715 8.50054 11.4157 8.27 11.18L8.21 11.12C8.02405 10.9343 7.87653 10.7137 7.77588 10.4709C7.67523 10.2281 7.62343 9.96783 7.62343 9.705C7.62343 9.44217 7.67523 9.18192 7.77588 8.93912C7.87653 8.69632 8.02405 8.47575 8.21 8.29C8.39575 8.10405 8.61632 7.95653 8.85912 7.85588C9.10192 7.75523 9.36217 7.70343 9.625 7.70343C9.88783 7.70343 10.1481 7.75523 10.3909 7.85588C10.6337 7.95653 10.8543 8.10405 11.04 8.29L11.1 8.35C11.3357 8.58054 11.635 8.73519 11.9594 8.794C12.2838 8.85282 12.6184 8.81312 12.92 8.68H13C13.2958 8.55324 13.548 8.34276 13.7257 8.07447C13.9034 7.80618 13.9987 7.49179 14 7.17V7C14 6.46957 14.2107 5.96086 14.5858 5.58579C14.9609 5.21071 15.4696 5 16 5C16.5304 5 17.0391 5.21071 17.4142 5.58579C17.7893 5.96086 18 6.46957 18 7V7.09C18.0013 7.41179 18.0966 7.72618 18.2743 7.99447C18.452 8.26276 18.7042 8.47324 19 8.6C19.3016 8.73312 19.6362 8.77282 19.9606 8.714C20.285 8.65519 20.5843 8.50054 20.82 8.27L20.88 8.21C21.0657 8.02405 21.2863 7.87653 21.5291 7.77588C21.7719 7.67523 22.0322 7.62343 22.295 7.62343C22.5578 7.62343 22.8181 7.67523 23.0609 7.77588C23.3037 7.87653 23.5243 8.02405 23.71 8.21C23.896 8.39575 24.0435 8.61632 24.1441 8.85912C24.2448 9.10192 24.2966 9.36217 24.2966 9.625C24.2966 9.88783 24.2448 10.1481 24.1441 10.3909C24.0435 10.6337 23.896 10.8543 23.71 11.04L23.65 11.1C23.4195 11.3357 23.2648 11.635 23.206 11.9594C23.1472 12.2838 23.1869 12.6184 23.32 12.92V13C23.4468 13.2958 23.6572 13.548 23.9255 13.7257C24.1938 13.9034 24.5082 13.9987 24.83 14H25C25.5304 14 26.0391 14.2107 26.4142 14.5858C26.7893 14.9609 27 15.4696 27 16C27 16.5304 26.7893 17.0391 26.4142 17.4142C26.0391 17.7893 25.5304 18 25 18H24.91C24.5882 18.0013 24.2738 18.0966 24.0055 18.2743C23.7372 18.452 23.5268 18.7042 23.4 19Z" stroke="#424242" stroke-width="2" stroke-linecap="round" stroke-linejoin="round"/>
</svg>
