<svg xmlns="http://www.w3.org/2000/svg" width="32" height="32" fill="none"><path stroke="#424242" stroke-linecap="round" stroke-linejoin="round" stroke-width="2" d="M16 19a3 3 0 1 0 0-6 3 3 0 0 0 0 6Z"/><path stroke="#424242" stroke-linecap="round" stroke-linejoin="round" stroke-width="2" d="M23.4 19a1.65 1.65 0 0 0 .33 1.82l.06.06a1.998 1.998 0 0 1 0 2.83 1.998 1.998 0 0 1-2.83 0l-.06-.06a1.65 1.65 0 0 0-1.82-.33 1.65 1.65 0 0 0-1 1.51V25a2 2 0 0 1-4 0v-.09A1.65 1.65 0 0 0 13 23.4a1.65 1.65 0 0 0-1.82.33l-.06.06a1.998 1.998 0 0 1-2.83 0 2 2 0 0 1 0-2.83l.06-.06a1.65 1.65 0 0 0 .33-1.82 1.65 1.65 0 0 0-1.51-1H7a2 2 0 1 1 0-4h.09A1.65 1.65 0 0 0 8.6 13a1.65 1.65 0 0 0-.33-1.82l-.06-.06a2 2 0 0 1 1.415-3.417 2 2 0 0 1 1.415.587l.06.06a1.65 1.65 0 0 0 1.82.33H13a1.65 1.65 0 0 0 1-1.51V7a2 2 0 1 1 4 0v.09a1.65 1.65 0 0 0 1 1.51 1.65 1.65 0 0 0 1.82-.33l.06-.06a2 2 0 0 1 3.417 1.415 2 2 0 0 1-.587 1.415l-.06.06a1.65 1.65 0 0 0-.33 1.82V13a1.65 1.65 0 0 0 1.51 1H25a2 2 0 0 1 0 4h-.09a1.65 1.65 0 0 0-1.51 1Z"/></svg>