<svg xmlns="http://www.w3.org/2000/svg" width="64" height="64" fill="none"><mask id="a" width="64" height="64" x="0" y="0" maskUnits="userSpaceOnUse" style="mask-type:alpha"><rect width="64" height="64" fill="#F5F5F5" rx="5"/></mask><g mask="url(#a)"><rect width="64" height="64" fill="#F5F5F5" rx="5"/><path fill="#E0E0E0" fill-rule="evenodd" d="M35.707 24.115c9.588-6.838 37.497-37.998 38.238-42.69.822-5.213-7.777-11.497-12.095-10.27C57.265-27.542 39.54-5.984 29.241 8.15 20.38-.994 6.874-12.28 3.401-12.292c-3.927-.016-10.35 6.97-9.283 11.473 1.218 5.134 30.554 27.304 35.772 26.81 1.216-.113 2.29-.286 3.217-.55l.057-.006c.298-.028.692-.18 1.172-.441a5.416 5.416 0 0 0 1.371-.88Z" clip-rule="evenodd"/><path fill="#9E9E9E" fill-rule="evenodd" d="M39.875 37.205a.624.624 0 0 1-.06.82c-.125.116-.28.27-.459.447-.403.4-.928.92-1.493 1.404-.829.712-1.834 1.433-2.898 1.765-3.588 1.125-7.24-.696-8.521-1.335a72.693 72.693 0 0 0-.133-.066c-.265-.131-.384-.475-.265-.768.119-.293.43-.424.695-.293l.103.051c1.287.64 4.627 2.299 7.834 1.292h.001c.868-.27 1.745-.883 2.538-1.564.539-.462.998-.917 1.388-1.304.193-.192.369-.366.529-.516a.492.492 0 0 1 .741.067ZM38 28.65c.019-.38.285-.67.596-.649l8.873.622c.31.022.548.348.53.728-.018.38-.284.67-.595.648l-8.873-.622c-.31-.022-.548-.348-.53-.728Zm-13.03 1.746a.574.574 0 0 1-.375.729l-8.822 2.846a.592.592 0 0 1-.743-.367.574.574 0 0 1 .375-.728l8.822-2.847a.59.59 0 0 1 .743.367Z" clip-rule="evenodd"/></g></svg>